EncodeSansCondensed-Medium.ufo
<glyph name="exclam" format="2">
  <advance width="472.4848484848485"/>
  <unicode hex="0021"/>
  <outline>
    <contour>
      <point x="176.0" y="401.0909090909091" type="line"/>
      <point x="298.06060606060606" y="401.0909090909091" type="line"/>
      <point x="340.0" y="931.7575757575758" type="line"/>
      <point x="340.0" y="1480.0" type="line"/>
      <point x="132.4848484848485" y="1480.0" type="line"/>
      <point x="132.4848484848485" y="931.7575757575758" type="line"/>
    </contour>
    <contour>
      <point x="236.24242424242425" y="-13.93939393939394" type="curve" smooth="yes"/>
      <point x="314.78787878787875" y="-13.93939393939394"/>
      <point x="370.72727272727275" y="38.42424242424242"/>
      <point x="370.72727272727275" y="116.60606060606061" type="curve" smooth="yes"/>
      <point x="370.72727272727275" y="194.78787878787878"/>
      <point x="316.3636363636364" y="248.36363636363635"/>
      <point x="236.24242424242425" y="248.36363636363635" type="curve" smooth="yes"/>
      <point x="156.12121212121212" y="248.36363636363635"/>
      <point x="101.75757575757575" y="196.36363636363637"/>
      <point x="101.75757575757575" y="116.60606060606061" type="curve" smooth="yes"/>
      <point x="101.75757575757575" y="36.848484848484844"/>
      <point x="157.6969696969697" y="-13.93939393939394"/>
    </contour>
  </outline>
</glyph>
<glyph name="dollar" format="2">
  <advance width="938.4848484848485"/>
  <unicode hex="0024"/>
  <outline>
    <contour>
      <point x="392.3636363636364" y="-18.78787878787879" type="curve" smooth="yes"/>
      <point x="710.5454545454545" y="-18.78787878787879"/>
      <point x="889.3939393939394" y="139.33333333333334"/>
      <point x="889.3939393939394" y="407.5151515151515" type="curve" smooth="yes"/>
      <point x="889.3939393939394" y="627.6969696969697"/>
      <point x="765.5757575757576" y="750.8484848484849"/>
      <point x="550.0" y="824.060606060606" type="curve" smooth="yes"/>
      <point x="471.2121212121212" y="850.7272727272727" type="line" smooth="yes"/>
      <point x="305.8787878787879" y="908.1212121212121"/>
      <point x="247.93939393939394" y="970.060606060606"/>
      <point x="247.93939393939394" y="1096.4242424242425" type="curve" smooth="yes"/>
      <point x="247.93939393939394" y="1240.8484848484848"/>
      <point x="338.72727272727275" y="1329.5757575757575"/>
      <point x="568.060606060606" y="1329.5757575757575" type="curve" smooth="yes"/>
      <point x="651.2727272727273" y="1329.5757575757575"/>
      <point x="740.7272727272727" y="1318.7878787878788"/>
      <point x="824.3636363636364" y="1293.939393939394" type="curve"/>
      <point x="824.3636363636364" y="1463.5757575757575" type="line"/>
      <point x="750.060606060606" y="1486.0"/>
      <point x="646.1212121212121" y="1498.7878787878788"/>
      <point x="555.5151515151515" y="1498.7878787878788" type="curve" smooth="yes"/>
      <point x="218.0" y="1498.7878787878788"/>
      <point x="49.09090909090909" y="1341.030303030303"/>
      <point x="49.09090909090909" y="1082.1818181818182" type="curve" smooth="yes"/>
      <point x="49.09090909090909" y="867.5757575757576"/>
      <point x="173.27272727272728" y="743.6969696969697"/>
      <point x="372.969696969697" y="674.8484848484849" type="curve" smooth="yes"/>
      <point x="451.75757575757575" y="648.1818181818182" type="line" smooth="yes"/>
      <point x="627.8181818181819" y="587.2121212121212"/>
      <point x="690.5454545454545" y="523.6969696969697"/>
      <point x="690.5454545454545" y="390.9090909090909" type="curve" smooth="yes"/>
      <point x="690.5454545454545" y="234.0"/>
      <point x="594.1212121212121" y="150.42424242424244"/>
      <point x="391.27272727272725" y="150.42424242424244" type="curve" smooth="yes"/>
      <point x="291.030303030303" y="150.42424242424244"/>
      <point x="182.06060606060606" y="169.57575757575756"/>
      <point x="75.6969696969697" y="204.0" type="curve"/>
      <point x="75.6969696969697" y="34.36363636363636" type="line"/>
      <point x="175.21212121212122" y="-1.2121212121212122"/>
      <point x="298.1212121212121" y="-18.78787878787879"/>
    </contour>
    <contour>
      <point x="379.93939393939394" y="-240.0" type="line"/>
      <point x="560.5454545454545" y="-240.0" type="line"/>
      <point x="560.5454545454545" y="51.515151515151516" type="line"/>
      <point x="379.93939393939394" y="39.39393939393939" type="line"/>
    </contour>
    <contour>
      <point x="379.93939393939394" y="1456.3636363636363" type="line"/>
      <point x="560.5454545454545" y="1456.3636363636363" type="line"/>
      <point x="560.5454545454545" y="1720.0" type="line"/>
      <point x="379.93939393939394" y="1720.0" type="line"/>
    </contour>
  </outline>
</glyph>
<glyph name="percent" format="2">
  <advance width="1729.6969696969697"/>
  <unicode hex="0025"/>
  <note>
450
</note>
  <outline>
    <contour>
      <point x="503.27272727272725" y="0.0" type="line"/>
      <point x="664.2424242424242" y="0.0" type="line"/>
      <point x="1226.4242424242425" y="1480.0" type="line"/>
      <point x="1065.4545454545455" y="1480.0" type="line"/>
    </contour>
    <contour>
      <point x="405.1515151515151" y="573.2727272727273" type="curve" smooth="yes"/>
      <point x="600.3030303030303" y="573.2727272727273"/>
      <point x="732.4242424242424" y="702.6666666666666"/>
      <point x="732.4242424242424" y="1036.4242424242425" type="curve" smooth="yes"/>
      <point x="732.4242424242424" y="1370.1818181818182"/>
      <point x="601.5151515151515" y="1498.7878787878788"/>
      <point x="405.1515151515151" y="1498.7878787878788" type="curve" smooth="yes"/>
      <point x="208.78787878787878" y="1498.7878787878788"/>
      <point x="77.87878787878788" y="1370.1818181818182"/>
      <point x="77.87878787878788" y="1036.4242424242425" type="curve" smooth="yes"/>
      <point x="77.87878787878788" y="702.6666666666666"/>
      <point x="210.0" y="573.2727272727273"/>
    </contour>
    <contour>
      <point x="405.1515151515151" y="706.969696969697" type="curve" smooth="yes"/>
      <point x="306.3030303030303" y="706.969696969697"/>
      <point x="239.2121212121212" y="780.8484848484849"/>
      <point x="239.2121212121212" y="1037.6363636363637" type="curve" smooth="yes"/>
      <point x="239.2121212121212" y="1292.0"/>
      <point x="306.3030303030303" y="1365.090909090909"/>
      <point x="405.1515151515151" y="1365.090909090909" type="curve" smooth="yes"/>
      <point x="504.0" y="1365.090909090909"/>
      <point x="571.0909090909091" y="1292.0"/>
      <point x="571.0909090909091" y="1035.2121212121212" type="curve" smooth="yes"/>
      <point x="571.0909090909091" y="780.8484848484849"/>
      <point x="504.0" y="706.969696969697"/>
    </contour>
    <contour>
      <point x="1324.5454545454545" y="-18.0" type="curve" smooth="yes"/>
      <point x="1520.909090909091" y="-18.0"/>
      <point x="1651.8181818181818" y="111.39393939393939"/>
      <point x="1651.8181818181818" y="445.1515151515151" type="curve" smooth="yes"/>
      <point x="1651.8181818181818" y="778.9090909090909"/>
      <point x="1519.6969696969697" y="907.5151515151515"/>
      <point x="1324.5454545454545" y="907.5151515151515" type="curve" smooth="yes"/>
      <point x="1129.3939393939395" y="907.5151515151515"/>
      <point x="997.2727272727273" y="778.9090909090909"/>
      <point x="997.2727272727273" y="445.1515151515151" type="curve" smooth="yes"/>
      <point x="997.2727272727273" y="111.39393939393939"/>
      <point x="1128.1818181818182" y="-18.0"/>
    </contour>
    <contour>
      <point x="1324.5454545454545" y="115.69696969696969" type="curve" smooth="yes"/>
      <point x="1225.6969696969697" y="115.69696969696969"/>
      <point x="1158.6060606060605" y="189.57575757575756"/>
      <point x="1158.6060606060605" y="446.3636363636364" type="curve" smooth="yes"/>
      <point x="1158.6060606060605" y="700.7272727272727"/>
      <point x="1225.6969696969697" y="773.8181818181819"/>
      <point x="1324.5454545454545" y="773.8181818181819" type="curve" smooth="yes"/>
      <point x="1423.3939393939395" y="773.8181818181819"/>
      <point x="1490.4848484848485" y="700.7272727272727"/>
      <point x="1490.4848484848485" y="443.93939393939394" type="curve" smooth="yes"/>
      <point x="1490.4848484848485" y="189.57575757575756"/>
      <point x="1423.3939393939395" y="115.69696969696969"/>
    </contour>
  </outline>
</glyph>
<glyph name="ampersand" format="2">
  <advance width="1348.060606060606"/>
  <unicode hex="0026"/>
  <outline>
    <contour>
      <point x="1239.030303030303" y="-20.0" type="line"/>
      <point x="1348.060606060606" y="128.4848484848485" type="line"/>
      <point x="623.2727272727273" y="740.969696969697" type="line" smooth="yes"/>
      <point x="479.6363636363636" y="871.4545454545455"/>
      <point x="437.0909090909091" y="953.8787878787879"/>
      <point x="437.0909090909091" y="1070.8484848484848" type="curve" smooth="yes"/>
      <point x="437.0909090909091" y="1239.6363636363637"/>
      <point x="533.3939393939394" y="1329.5757575757575"/>
      <point x="752.8484848484849" y="1329.5757575757575" type="curve" smooth="yes"/>
      <point x="812.7878787878788" y="1329.5757575757575"/>
      <point x="878.6060606060606" y="1323.2121212121212"/>
      <point x="947.8787878787879" y="1306.3636363636365" type="curve"/>
      <point x="947.8787878787879" y="1476.0" type="line"/>
      <point x="883.5757575757576" y="1490.0"/>
      <point x="814.4848484848485" y="1498.7878787878788"/>
      <point x="740.3030303030303" y="1498.7878787878788" type="curve" smooth="yes"/>
      <point x="404.72727272727275" y="1498.7878787878788"/>
      <point x="238.24242424242425" y="1342.2424242424242"/>
      <point x="238.24242424242425" y="1068.8484848484848" type="curve" smooth="yes"/>
      <point x="238.24242424242425" y="901.939393939394"/>
      <point x="303.45454545454544" y="774.7878787878788"/>
      <point x="514.2424242424242" y="592.4848484848485" type="curve" smooth="yes"/>
    </contour>
    <contour>
      <point x="594.969696969697" y="-18.0" type="curve" smooth="yes"/>
      <point x="923.030303030303" y="-18.0"/>
      <point x="1133.7575757575758" y="173.21212121212122"/>
      <point x="1133.7575757575758" y="556.9090909090909" type="curve" smooth="yes"/>
      <point x="1133.7575757575758" y="636.1818181818181"/>
      <point x="1123.7575757575758" y="731.4545454545455"/>
      <point x="1102.121212121212" y="817.5151515151515" type="curve"/>
      <point x="936.0" y="817.5151515151515" type="line"/>
      <point x="958.8484848484849" y="731.4545454545455"/>
      <point x="970.060606060606" y="635.3939393939394"/>
      <point x="970.060606060606" y="554.1212121212121" type="curve" smooth="yes"/>
      <point x="970.060606060606" y="248.84848484848484"/>
      <point x="825.1515151515151" y="135.45454545454544"/>
      <point x="614.3030303030303" y="135.45454545454544" type="curve" smooth="yes"/>
      <point x="419.6969696969697" y="135.45454545454544"/>
      <point x="305.75757575757575" y="246.3030303030303"/>
      <point x="305.75757575757575" y="427.3333333333333" type="curve" smooth="yes"/>
      <point x="305.75757575757575" y="553.8181818181819"/>
      <point x="359.2121212121212" y="647.8181818181819"/>
      <point x="457.75757575757575" y="710.7878787878788" type="curve"/>
      <point x="358.3636363636364" y="805.3939393939394" type="line"/>
      <point x="207.87878787878788" y="735.1515151515151"/>
      <point x="108.48484848484848" y="593.5151515151515"/>
      <point x="108.48484848484848" y="404.7878787878788" type="curve" smooth="yes"/>
      <point x="108.48484848484848" y="148.0"/>
      <point x="286.3636363636364" y="-18.0"/>
    </contour>
  </outline>
</glyph>
<glyph name="quotesingle" format="2">
  <advance width="384.969696969697"/>
  <unicode hex="0027"/>
  <outline>
    <contour>
      <point x="133.0909090909091" y="899.2727272727273" type="line"/>
      <point x="251.87878787878788" y="899.2727272727273" type="line"/>
      <point x="293.1515151515151" y="1616.0" type="line"/>
      <point x="91.81818181818181" y="1616.0" type="line"/>
    </contour>
  </outline>
</glyph>
<glyph name="parenleft" format="2">
  <advance width="596.4242424242424"/>
  <unicode hex="0028"/>
  <outline>
    <contour>
      <point x="388.06060606060606" y="-440.0" type="curve"/>
      <point x="581.7575757575758" y="-440.0" type="line"/>
      <point x="392.72727272727275" y="-137.0909090909091"/>
      <point x="302.66666666666663" y="210.12121212121212"/>
      <point x="302.66666666666663" y="588.0" type="curve" smooth="yes"/>
      <point x="302.66666666666663" y="965.8787878787879"/>
      <point x="392.72727272727275" y="1313.090909090909"/>
      <point x="581.7575757575758" y="1616.0" type="curve"/>
      <point x="388.06060606060606" y="1616.0" type="line"/>
      <point x="188.72727272727272" y="1319.4545454545455"/>
      <point x="100.66666666666667" y="973.4545454545455"/>
      <point x="100.66666666666667" y="588.0" type="curve" smooth="yes"/>
      <point x="100.66666666666667" y="202.54545454545456"/>
      <point x="188.72727272727272" y="-143.45454545454544"/>
    </contour>
  </outline>
</glyph>
<glyph name="parenright" format="2">
  <advance width="596.4242424242424"/>
  <unicode hex="0029"/>
  <outline>
    <contour>
      <point x="14.666666666666671" y="-440.0" type="curve"/>
      <point x="208.36363636363637" y="-440.0" type="line"/>
      <point x="407.6969696969697" y="-143.45454545454544"/>
      <point x="495.75757575757575" y="202.54545454545456"/>
      <point x="495.75757575757575" y="588.0" type="curve" smooth="yes"/>
      <point x="495.75757575757575" y="973.4545454545455"/>
      <point x="407.6969696969697" y="1319.4545454545455"/>
      <point x="208.36363636363637" y="1616.0" type="curve"/>
      <point x="14.666666666666671" y="1616.0" type="line"/>
      <point x="203.6969696969697" y="1313.090909090909"/>
      <point x="293.75757575757575" y="965.8787878787879"/>
      <point x="293.75757575757575" y="588.0" type="curve" smooth="yes"/>
      <point x="293.75757575757575" y="210.12121212121212"/>
      <point x="203.6969696969697" y="-137.0909090909091"/>
    </contour>
  </outline>
</glyph>
<glyph name="asterisk" format="2">
  <advance width="900.4848484848485"/>
  <unicode hex="002A"/>
  <outline>
    <contour>
      <point x="521.1515151515151" y="1173.8181818181818" type="line"/>
      <point x="719.939393939394" y="1210.0" type="line"/>
      <point x="870.4848484848485" y="1258.8484848484848" type="line"/>
      <point x="826.060606060606" y="1394.4848484848485" type="line"/>
      <point x="676.7272727272727" y="1344.8484848484848" type="line"/>
      <point x="493.8181818181818" y="1256.6060606060605" type="line"/>
      <point x="521.6363636363636" y="1457.4545454545455" type="line"/>
      <point x="521.6363636363636" y="1616.0" type="line"/>
      <point x="378.8484848484849" y="1616.0" type="line"/>
      <point x="378.8484848484849" y="1457.4545454545455" type="line"/>
      <point x="406.6666666666667" y="1256.6060606060605" type="line"/>
      <point x="223.75757575757575" y="1344.8484848484848" type="line"/>
      <point x="74.42424242424242" y="1394.4848484848485" type="line"/>
      <point x="30.0" y="1258.8484848484848" type="line"/>
      <point x="180.54545454545456" y="1210.0" type="line"/>
      <point x="379.3333333333333" y="1173.8181818181818" type="line"/>
      <point x="239.45454545454547" y="1028.060606060606" type="line"/>
      <point x="145.75757575757575" y="899.939393939394" type="line"/>
      <point x="261.57575757575756" y="815.4545454545455" type="line"/>
      <point x="355.27272727272725" y="943.5757575757576" type="line"/>
      <point x="450.24242424242425" y="1123.090909090909" type="line"/>
      <point x="545.2121212121212" y="943.5757575757576" type="line"/>
      <point x="638.9090909090909" y="815.4545454545455" type="line"/>
      <point x="754.7272727272727" y="899.939393939394" type="line"/>
      <point x="661.030303030303" y="1028.060606060606" type="line"/>
    </contour>
  </outline>
</glyph>
<glyph name="plus" format="2">
  <advance width="1023.8787878787879"/>
  <unicode hex="002B"/>
  <outline>
    <contour>
      <point x="429.8787878787879" y="354.3636363636364" type="line"/>
      <point x="594.0" y="354.3636363636364" type="line"/>
      <point x="594.0" y="681.5151515151515" type="line"/>
      <point x="905.8787878787879" y="681.5151515151515" type="line"/>
      <point x="905.8787878787879" y="838.4848484848485" type="line"/>
      <point x="594.0" y="838.4848484848485" type="line"/>
      <point x="594.0" y="1165.6363636363637" type="line"/>
      <point x="429.8787878787879" y="1165.6363636363637" type="line"/>
      <point x="429.8787878787879" y="838.4848484848485" type="line"/>
      <point x="118.0" y="838.4848484848485" type="line"/>
      <point x="118.0" y="681.5151515151515" type="line"/>
      <point x="429.8787878787879" y="681.5151515151515" type="line"/>
    </contour>
  </outline>
</glyph>
<glyph name="hyphen" format="2">
  <advance width="709.8787878787879"/>
  <unicode hex="002D"/>
  <outline>
    <contour>
      <point x="118.0" y="483.0909090909091" type="line"/>
      <point x="591.8787878787879" y="483.0909090909091" type="line"/>
      <point x="591.8787878787879" y="644.7878787878788" type="line"/>
      <point x="118.0" y="644.7878787878788" type="line"/>
    </contour>
  </outline>
</glyph>
<glyph name="period" format="2">
  <advance width="432.4848484848485"/>
  <unicode hex="002E"/>
  <outline>
    <contour>
      <point x="216.24242424242425" y="-13.93939393939394" type="curve" smooth="yes"/>
      <point x="294.78787878787875" y="-13.93939393939394"/>
      <point x="350.72727272727275" y="38.42424242424242"/>
      <point x="350.72727272727275" y="118.96969696969697" type="curve" smooth="yes"/>
      <point x="350.72727272727275" y="199.5151515151515"/>
      <point x="296.3636363636364" y="253.0909090909091"/>
      <point x="216.24242424242425" y="253.0909090909091" type="curve" smooth="yes"/>
      <point x="136.12121212121212" y="253.0909090909091"/>
      <point x="81.75757575757575" y="201.09090909090907"/>
      <point x="81.75757575757575" y="118.96969696969697" type="curve" smooth="yes"/>
      <point x="81.75757575757575" y="36.848484848484844"/>
      <point x="137.6969696969697" y="-13.93939393939394"/>
    </contour>
  </outline>
</glyph>
<glyph name="slash" format="2">
  <advance width="548.0"/>
  <unicode hex="002F"/>
  <outline>
    <contour>
      <point x="0.0" y="-240.0" type="line"/>
      <point x="188.1818181818182" y="-240.0" type="line"/>
      <point x="548.0" y="1616.0" type="line"/>
      <point x="359.8181818181818" y="1616.0" type="line"/>
    </contour>
  </outline>
</glyph>
<glyph name="zero" format="2">
  <advance width="1108.4848484848485"/>
  <unicode hex="0030"/>
  <note>
600
</note>
  <outline>
    <contour>
      <point x="554.2424242424242" y="-18.78787878787879" type="curve" smooth="yes"/>
      <point x="845.2121212121212" y="-18.78787878787879"/>
      <point x="1017.8181818181818" y="188.1818181818182"/>
      <point x="1017.8181818181818" y="740.0" type="curve" smooth="yes"/>
      <point x="1017.8181818181818" y="1291.8181818181818"/>
      <point x="846.4242424242424" y="1498.7878787878788"/>
      <point x="554.2424242424242" y="1498.7878787878788" type="curve" smooth="yes"/>
      <point x="262.06060606060606" y="1498.7878787878788"/>
      <point x="90.66666666666667" y="1291.8181818181818"/>
      <point x="90.66666666666667" y="740.0" type="curve" smooth="yes"/>
      <point x="90.66666666666667" y="188.1818181818182"/>
      <point x="263.27272727272725" y="-18.78787878787879"/>
    </contour>
    <contour>
      <point x="554.2424242424242" y="148.84848484848484" type="curve" smooth="yes"/>
      <point x="386.4848484848485" y="148.84848484848484"/>
      <point x="286.3636363636364" y="284.78787878787875"/>
      <point x="286.3636363636364" y="742.4242424242424" type="curve" smooth="yes"/>
      <point x="286.3636363636364" y="1195.2121212121212"/>
      <point x="386.4848484848485" y="1331.1515151515152"/>
      <point x="554.2424242424242" y="1331.1515151515152" type="curve" smooth="yes"/>
      <point x="722.0" y="1331.1515151515152"/>
      <point x="822.1212121212121" y="1195.2121212121212"/>
      <point x="822.1212121212121" y="737.5757575757576" type="curve" smooth="yes"/>
      <point x="822.1212121212121" y="284.78787878787875"/>
      <point x="722.0" y="148.84848484848484"/>
    </contour>
  </outline>
</glyph>
<glyph name="one" format="2">
  <advance width="619.7575757575758"/>
  <unicode hex="0031"/>
  <outline>
    <contour>
      <point x="280.06060606060606" y="0.0" type="line"/>
      <point x="475.6969696969697" y="0.0" type="line"/>
      <point x="475.6969696969697" y="1484.7878787878788" type="line"/>
      <point x="358.1212121212121" y="1484.7878787878788" type="line"/>
      <point x="15.272727272727273" y="1243.090909090909" type="line"/>
      <point x="15.272727272727273" y="1055.6363636363637" type="line"/>
      <point x="358.1212121212121" y="1297.3333333333333" type="line"/>
      <point x="280.06060606060606" y="1334.909090909091" type="line"/>
    </contour>
  </outline>
</glyph>
<glyph name="two" format="2">
  <advance width="874.1212121212121"/>
  <unicode hex="0032"/>
  <outline>
    <contour>
      <point x="44.121212121212125" y="0.0" type="line"/>
      <point x="822.7878787878788" y="0.0" type="line"/>
      <point x="822.7878787878788" y="173.5151515151515" type="line"/>
      <point x="245.87878787878788" y="173.5151515151515" type="line"/>
      <point x="261.5151515151515" y="121.93939393939394" type="line"/>
      <point x="576.2424242424242" y="606.6666666666666" type="line" smooth="yes"/>
      <point x="713.8787878787879" y="816.5454545454545"/>
      <point x="758.7272727272727" y="958.8484848484849"/>
      <point x="759.939393939394" y="1102.5454545454545" type="curve" smooth="yes"/>
      <point x="762.3636363636364" y="1385.3333333333333"/>
      <point x="591.5151515151515" y="1498.7878787878788"/>
      <point x="318.54545454545456" y="1498.7878787878788" type="curve" smooth="yes"/>
      <point x="220.24242424242425" y="1498.7878787878788"/>
      <point x="100.84848484848484" y="1478.7878787878788"/>
      <point x="26.545454545454547" y="1446.3636363636363" type="curve"/>
      <point x="26.545454545454547" y="1276.7272727272727" type="line"/>
      <point x="110.18181818181819" y="1312.3636363636365"/>
      <point x="199.6969696969697" y="1329.5757575757575"/>
      <point x="294.1212121212121" y="1329.5757575757575" type="curve" smooth="yes"/>
      <point x="472.3636363636364" y="1329.5757575757575"/>
      <point x="564.6666666666666" y="1262.6666666666667"/>
      <point x="564.6666666666666" y="1089.1515151515152" type="curve" smooth="yes"/>
      <point x="564.6666666666666" y="970.8484848484849"/>
      <point x="517.8181818181819" y="849.4545454545455"/>
      <point x="401.6969696969697" y="668.7272727272727" type="curve" smooth="yes"/>
      <point x="44.121212121212125" y="110.9090909090909" type="line"/>
    </contour>
  </outline>
</glyph>
<glyph name="three" format="2">
  <advance width="907.6363636363636"/>
  <unicode hex="0033"/>
  <outline>
    <contour>
      <point x="350.7878787878788" y="-18.78787878787879" type="curve" smooth="yes"/>
      <point x="660.9090909090909" y="-18.78787878787879"/>
      <point x="847.3939393939394" y="128.72727272727272"/>
      <point x="847.3939393939394" y="394.6060606060606" type="curve" smooth="yes"/>
      <point x="847.3939393939394" y="603.5757575757576"/>
      <point x="730.4242424242424" y="740.060606060606"/>
      <point x="502.969696969697" y="775.2727272727273" type="curve"/>
      <point x="501.75757575757575" y="757.2121212121212" type="line"/>
      <point x="694.8484848484849" y="798.060606060606"/>
      <point x="802.969696969697" y="936.969696969697"/>
      <point x="802.969696969697" y="1123.8181818181818" type="curve" smooth="yes"/>
      <point x="802.969696969697" y="1365.2727272727273"/>
      <point x="649.6363636363636" y="1498.7878787878788"/>
      <point x="358.6060606060606" y="1498.7878787878788" type="curve" smooth="yes"/>
      <point x="254.72727272727272" y="1498.7878787878788"/>
      <point x="135.33333333333334" y="1478.7878787878788"/>
      <point x="59.45454545454545" y="1446.3636363636363" type="curve"/>
      <point x="59.45454545454545" y="1285.3939393939395" type="line"/>
      <point x="143.87878787878788" y="1320.2424242424242"/>
      <point x="238.12121212121212" y="1338.2424242424242"/>
      <point x="337.75757575757575" y="1338.2424242424242" type="curve" smooth="yes"/>
      <point x="524.1212121212121" y="1338.2424242424242"/>
      <point x="613.2121212121212" y="1262.7272727272727"/>
      <point x="613.2121212121212" y="1106.909090909091" type="curve" smooth="yes"/>
      <point x="613.2121212121212" y="944.1818181818181"/>
      <point x="501.8787878787879" y="840.4848484848485"/>
      <point x="273.57575757575756" y="840.4848484848485" type="curve" smooth="yes"/>
      <point x="184.42424242424244" y="840.4848484848485" type="line"/>
      <point x="184.42424242424244" y="676.7878787878788" type="line"/>
      <point x="319.93939393939394" y="676.7878787878788" type="line" smooth="yes"/>
      <point x="555.6969696969697" y="676.7878787878788"/>
      <point x="657.6363636363636" y="573.8787878787879"/>
      <point x="657.6363636363636" y="404.42424242424244" type="curve" smooth="yes"/>
      <point x="657.6363636363636" y="228.12121212121212"/>
      <point x="545.5757575757576" y="141.75757575757575"/>
      <point x="345.6363636363636" y="141.75757575757575" type="curve" smooth="yes"/>
      <point x="251.21212121212122" y="141.75757575757575"/>
      <point x="136.96969696969697" y="158.1818181818182"/>
      <point x="38.18181818181818" y="191.45454545454544" type="curve"/>
      <point x="38.18181818181818" y="30.484848484848484" type="line"/>
      <point x="135.6969696969697" y="-2.3636363636363633"/>
      <point x="240.42424242424244" y="-18.78787878787879"/>
    </contour>
  </outline>
</glyph>
<glyph name="four" format="2">
  <advance width="1065.6969696969697"/>
  <unicode hex="0034"/>
  <outline>
    <contour>
      <point x="40.54545454545455" y="345.3939393939394" type="line"/>
      <point x="1031.5757575757575" y="345.3939393939394" type="line"/>
      <point x="1031.5757575757575" y="502.3636363636364" type="line"/>
      <point x="206.4848484848485" y="502.3636363636364" type="line"/>
      <point x="235.45454545454544" y="455.09090909090907" type="line"/>
      <point x="718.9090909090909" y="1480.0" type="line"/>
      <point x="528.3030303030303" y="1480.0" type="line"/>
      <point x="40.54545454545455" y="456.3030303030303" type="line"/>
    </contour>
    <contour>
      <point x="669.8181818181819" y="0.0" type="line"/>
      <point x="847.3333333333334" y="0.0" type="line"/>
      <point x="847.3333333333334" y="980.0" type="line"/>
      <point x="694.060606060606" y="980.0" type="line"/>
      <point x="669.8181818181819" y="502.3636363636364" type="line"/>
    </contour>
  </outline>
</glyph>
<glyph name="five" format="2">
  <advance width="913.939393939394"/>
  <unicode hex="0035"/>
  <outline>
    <contour>
      <point x="378.3636363636364" y="-18.78787878787879" type="curve" smooth="yes"/>
      <point x="693.3939393939394" y="-18.78787878787879"/>
      <point x="871.3939393939394" y="131.15151515151516"/>
      <point x="871.3939393939394" y="420.8484848484849" type="curve" smooth="yes"/>
      <point x="871.3939393939394" y="700.3030303030303"/>
      <point x="700.6060606060606" y="838.6666666666666"/>
      <point x="343.030303030303" y="861.8181818181818" type="curve" smooth="yes"/>
      <point x="195.93939393939394" y="871.030303030303" type="line"/>
      <point x="297.57575757575756" y="789.1515151515151" type="line"/>
      <point x="336.8484848484849" y="1403.030303030303" type="line"/>
      <point x="248.9090909090909" y="1314.3636363636365" type="line"/>
      <point x="813.3333333333334" y="1314.3636363636365" type="line"/>
      <point x="813.3333333333334" y="1480.0" type="line"/>
      <point x="155.03030303030303" y="1480.0" type="line"/>
      <point x="109.03030303030303" y="712.8484848484849" type="line"/>
      <point x="256.1212121212121" y="703.6363636363636" type="line" smooth="yes"/>
      <point x="572.7878787878788" y="684.060606060606"/>
      <point x="681.6363636363636" y="598.1212121212121"/>
      <point x="681.6363636363636" y="413.3333333333333" type="curve" smooth="yes"/>
      <point x="681.6363636363636" y="232.96969696969697"/>
      <point x="580.4848484848485" y="141.75757575757575"/>
      <point x="374.42424242424244" y="141.75757575757575" type="curve" smooth="yes"/>
      <point x="276.3636363636364" y="141.75757575757575"/>
      <point x="162.12121212121212" y="160.1818181818182"/>
      <point x="64.54545454545455" y="193.03030303030303" type="curve"/>
      <point x="64.54545454545455" y="32.06060606060606" type="line"/>
      <point x="159.63636363636363" y="-1.5757575757575757"/>
      <point x="266.7878787878788" y="-18.78787878787879"/>
    </contour>
  </outline>
</glyph>
<glyph name="six" format="2">
  <advance width="1034.7272727272727"/>
  <unicode hex="0036"/>
  <outline>
    <contour>
      <point x="572.3030303030303" y="-18.78787878787879" type="curve" smooth="yes"/>
      <point x="809.6969696969697" y="-18.78787878787879"/>
      <point x="990.2424242424242" y="132.54545454545453"/>
      <point x="990.2424242424242" y="430.06060606060606" type="curve" smooth="yes"/>
      <point x="990.2424242424242" y="727.0909090909091"/>
      <point x="803.6363636363636" y="861.0909090909091"/>
      <point x="584.1212121212121" y="861.0909090909091" type="curve" smooth="yes"/>
      <point x="446.3636363636364" y="861.0909090909091"/>
      <point x="318.66666666666663" y="805.3939393939394"/>
      <point x="254.24242424242425" y="709.6969696969697" type="curve"/>
      <point x="254.24242424242425" y="543.6363636363636" type="line"/>
      <point x="319.93939393939394" y="661.1515151515151"/>
      <point x="440.3030303030303" y="706.060606060606"/>
      <point x="550.1818181818181" y="706.060606060606" type="curve" smooth="yes"/>
      <point x="695.0909090909091" y="706.060606060606"/>
      <point x="808.3636363636364" y="624.969696969697"/>
      <point x="808.3636363636364" y="422.1212121212121" type="curve" smooth="yes"/>
      <point x="808.3636363636364" y="218.9090909090909"/>
      <point x="701.1515151515151" y="137.8181818181818"/>
      <point x="575.0909090909091" y="137.8181818181818" type="curve" smooth="yes"/>
      <point x="415.3333333333333" y="137.8181818181818"/>
      <point x="297.2121212121212" y="243.03030303030303"/>
      <point x="297.2121212121212" y="666.7878787878788" type="curve" smooth="yes"/>
      <point x="297.2121212121212" y="739.4545454545455" type="line" smooth="yes"/>
      <point x="297.2121212121212" y="1178.6666666666667"/>
      <point x="435.8787878787879" y="1335.090909090909"/>
      <point x="694.1818181818181" y="1335.090909090909" type="curve" smooth="yes"/>
      <point x="780.8484848484849" y="1335.090909090909"/>
      <point x="854.060606060606" y="1322.6666666666667"/>
      <point x="924.7272727272727" y="1296.2424242424242" type="curve"/>
      <point x="924.7272727272727" y="1460.3636363636363" type="line"/>
      <point x="859.5757575757576" y="1487.5757575757575"/>
      <point x="774.1212121212121" y="1498.7878787878788"/>
      <point x="691.8787878787879" y="1498.7878787878788" type="curve" smooth="yes"/>
      <point x="323.3333333333333" y="1498.7878787878788"/>
      <point x="103.51515151515152" y="1271.7575757575758"/>
      <point x="103.51515151515152" y="694.7272727272727" type="curve" smooth="yes"/>
      <point x="103.51515151515152" y="156.1818181818182"/>
      <point x="302.06060606060606" y="-18.78787878787879"/>
    </contour>
  </outline>
</glyph>
<glyph name="seven" format="2">
  <advance width="842.3030303030303"/>
  <unicode hex="0037"/>
  <outline>
    <contour>
      <point x="128.84848484848484" y="0.0" type="line"/>
      <point x="331.2121212121212" y="0.0" type="line"/>
      <point x="786.3030303030303" y="1369.090909090909" type="line"/>
      <point x="786.3030303030303" y="1480.0" type="line"/>
      <point x="8.787878787878787" y="1480.0" type="line"/>
      <point x="8.787878787878787" y="1306.4848484848485" type="line"/>
      <point x="658.969696969697" y="1306.4848484848485" type="line"/>
      <point x="596.969696969697" y="1370.3030303030303" type="line"/>
    </contour>
  </outline>
</glyph>
<glyph name="eight" format="2">
  <advance width="1108.4848484848485"/>
  <unicode hex="0038"/>
  <outline>
    <contour>
      <point x="562.3030303030303" y="-18.78787878787879" type="curve" smooth="yes"/>
      <point x="853.7575757575758" y="-18.78787878787879"/>
      <point x="1031.878787878788" y="141.45454545454544"/>
      <point x="1031.878787878788" y="379.27272727272725" type="curve" smooth="yes"/>
      <point x="1031.878787878788" y="595.6363636363636"/>
      <point x="927.030303030303" y="714.7272727272727"/>
      <point x="613.6969696969697" y="819.7575757575758" type="curve" smooth="yes"/>
      <point x="367.0909090909091" y="901.7575757575758"/>
      <point x="304.4848484848485" y="975.6969696969697"/>
      <point x="304.4848484848485" y="1117.4545454545455" type="curve" smooth="yes"/>
      <point x="304.4848484848485" y="1258.909090909091"/>
      <point x="395.57575757575756" y="1349.2727272727273"/>
      <point x="559.6969696969697" y="1349.2727272727273" type="curve" smooth="yes"/>
      <point x="722.6666666666666" y="1349.2727272727273"/>
      <point x="819.8181818181819" y="1265.6969696969697"/>
      <point x="819.8181818181819" y="1112.2424242424242" type="curve" smooth="yes"/>
      <point x="819.8181818181819" y="968.4848484848485"/>
      <point x="753.5757575757576" y="881.0909090909091"/>
      <point x="600.6666666666666" y="802.969696969697" type="curve"/>
      <point x="733.6969696969697" y="742.6666666666666" type="line"/>
      <point x="908.7878787878788" y="827.7575757575758"/>
      <point x="991.8181818181818" y="962.1818181818181"/>
      <point x="991.8181818181818" y="1124.060606060606" type="curve" smooth="yes"/>
      <point x="991.8181818181818" y="1354.0"/>
      <point x="823.6969696969697" y="1498.7878787878788"/>
      <point x="558.1212121212121" y="1498.7878787878788" type="curve" smooth="yes"/>
      <point x="282.0" y="1498.7878787878788"/>
      <point x="115.0909090909091" y="1346.121212121212"/>
      <point x="115.0909090909091" y="1111.5151515151515" type="curve" smooth="yes"/>
      <point x="115.0909090909091" y="899.5151515151515"/>
      <point x="226.3030303030303" y="765.3333333333334"/>
      <point x="532.7878787878788" y="666.6666666666666" type="curve" smooth="yes"/>
      <point x="773.8787878787879" y="589.3939393939394"/>
      <point x="844.8484848484849" y="520.3636363636364"/>
      <point x="844.8484848484849" y="368.54545454545456" type="curve" smooth="yes"/>
      <point x="844.8484848484849" y="219.0909090909091"/>
      <point x="743.2121212121212" y="130.72727272727272"/>
      <point x="562.3030303030303" y="130.72727272727272" type="curve" smooth="yes"/>
      <point x="361.57575757575756" y="130.72727272727272"/>
      <point x="262.8484848484849" y="223.0909090909091"/>
      <point x="262.8484848484849" y="384.1212121212121" type="curve" smooth="yes"/>
      <point x="262.8484848484849" y="530.7878787878788"/>
      <point x="351.2121212121212" y="650.2424242424242"/>
      <point x="503.2121212121212" y="701.5151515151515" type="curve"/>
      <point x="367.8787878787879" y="764.2424242424242" type="line"/>
      <point x="183.15151515151516" y="694.7272727272727"/>
      <point x="75.81818181818181" y="547.7575757575758"/>
      <point x="75.81818181818181" y="370.72727272727275" type="curve" smooth="yes"/>
      <point x="75.81818181818181" y="133.45454545454544"/>
      <point x="246.84848484848484" y="-18.78787878787879"/>
    </contour>
  </outline>
</glyph>
<glyph name="nine" format="2">
  <advance width="1034.7272727272727"/>
  <unicode hex="0039"/>
  <outline>
    <contour>
      <point x="462.42424242424244" y="1498.7878787878788" type="curve" smooth="yes"/>
      <point x="225.03030303030303" y="1498.7878787878788"/>
      <point x="44.484848484848484" y="1347.4545454545455"/>
      <point x="44.484848484848484" y="1049.939393939394" type="curve" smooth="yes"/>
      <point x="44.484848484848484" y="752.9090909090909"/>
      <point x="231.0909090909091" y="618.9090909090909"/>
      <point x="450.6060606060606" y="618.9090909090909" type="curve" smooth="yes"/>
      <point x="588.3636363636364" y="618.9090909090909"/>
      <point x="716.060606060606" y="674.6060606060606"/>
      <point x="780.4848484848485" y="770.3030303030303" type="curve"/>
      <point x="780.4848484848485" y="936.3636363636364" type="line"/>
      <point x="714.7878787878788" y="818.8484848484849"/>
      <point x="594.4242424242424" y="773.939393939394"/>
      <point x="484.54545454545456" y="773.939393939394" type="curve" smooth="yes"/>
      <point x="339.6363636363636" y="773.939393939394"/>
      <point x="226.36363636363637" y="855.030303030303"/>
      <point x="226.36363636363637" y="1057.878787878788" type="curve" smooth="yes"/>
      <point x="226.36363636363637" y="1261.090909090909"/>
      <point x="333.57575757575756" y="1342.1818181818182"/>
      <point x="459.6363636363636" y="1342.1818181818182" type="curve" smooth="yes"/>
      <point x="619.3939393939394" y="1342.1818181818182"/>
      <point x="737.5151515151515" y="1236.969696969697"/>
      <point x="737.5151515151515" y="813.2121212121212" type="curve" smooth="yes"/>
      <point x="737.5151515151515" y="740.5454545454545" type="line" smooth="yes"/>
      <point x="737.5151515151515" y="301.3333333333333"/>
      <point x="598.8484848484849" y="144.9090909090909"/>
      <point x="340.54545454545456" y="144.9090909090909" type="curve" smooth="yes"/>
      <point x="253.87878787878788" y="144.9090909090909"/>
      <point x="180.66666666666666" y="157.33333333333331"/>
      <point x="110.0" y="183.75757575757575" type="curve"/>
      <point x="110.0" y="19.636363636363637" type="line"/>
      <point x="175.15151515151516" y="-7.575757575757576"/>
      <point x="260.6060606060606" y="-18.78787878787879"/>
      <point x="342.8484848484849" y="-18.78787878787879" type="curve" smooth="yes"/>
      <point x="711.3939393939394" y="-18.78787878787879"/>
      <point x="931.2121212121212" y="208.24242424242425"/>
      <point x="931.2121212121212" y="785.2727272727273" type="curve" smooth="yes"/>
      <point x="931.2121212121212" y="1323.8181818181818"/>
      <point x="732.6666666666666" y="1498.7878787878788"/>
    </contour>
  </outline>
</glyph>
<glyph name="less" format="2">
  <advance width="1023.8787878787879"/>
  <unicode hex="003C"/>
  <outline>
    <contour>
      <point x="905.8787878787879" y="337.45454545454544" type="line"/>
      <point x="905.8787878787879" y="499.27272727272725" type="line"/>
      <point x="241.87878787878788" y="772.0" type="line"/>
      <point x="241.87878787878788" y="748.0" type="line"/>
      <point x="905.8787878787879" y="1020.7272727272727" type="line"/>
      <point x="905.8787878787879" y="1182.5454545454545" type="line"/>
      <point x="118.0" y="852.1818181818181" type="line"/>
      <point x="118.0" y="667.8181818181819" type="line"/>
    </contour>
  </outline>
</glyph>
<glyph name="equal" format="2">
  <advance width="1023.8787878787879"/>
  <unicode hex="003D"/>
  <outline>
    <contour>
      <point x="118.0" y="882.4242424242424" type="line"/>
      <point x="905.8787878787879" y="882.4242424242424" type="line"/>
      <point x="905.8787878787879" y="1039.3939393939395" type="line"/>
      <point x="118.0" y="1039.3939393939395" type="line"/>
    </contour>
    <contour>
      <point x="118.0" y="480.6060606060606" type="line"/>
      <point x="905.8787878787879" y="480.6060606060606" type="line"/>
      <point x="905.8787878787879" y="637.5757575757576" type="line"/>
      <point x="118.0" y="637.5757575757576" type="line"/>
    </contour>
  </outline>
</glyph>
<glyph name="greater" format="2">
  <advance width="1023.8787878787879"/>
  <unicode hex="003E"/>
  <outline>
    <contour>
      <point x="118.0" y="337.45454545454544" type="line"/>
      <point x="905.8787878787879" y="667.8181818181819" type="line"/>
      <point x="905.8787878787879" y="852.1818181818181" type="line"/>
      <point x="118.0" y="1182.5454545454545" type="line"/>
      <point x="118.0" y="1020.7272727272727" type="line"/>
      <point x="782.0" y="748.0" type="line"/>
      <point x="782.0" y="772.0" type="line"/>
      <point x="118.0" y="499.27272727272725" type="line"/>
    </contour>
  </outline>
</glyph>
<glyph name="question" format="2">
  <advance width="819.8787878787879"/>
  <unicode hex="003F"/>
  <outline>
    <contour>
      <point x="293.3939393939394" y="391.3939393939394" type="line"/>
      <point x="415.45454545454544" y="391.3939393939394" type="line"/>
      <point x="433.3333333333333" y="693.2121212121212" type="line"/>
      <point x="669.2121212121212" y="789.5757575757576"/>
      <point x="771.6969696969697" y="919.8787878787879"/>
      <point x="771.6969696969697" y="1123.8181818181818" type="curve" smooth="yes"/>
      <point x="771.6969696969697" y="1365.2727272727273"/>
      <point x="618.3636363636364" y="1498.7878787878788"/>
      <point x="327.3333333333333" y="1498.7878787878788" type="curve" smooth="yes"/>
      <point x="223.45454545454544" y="1498.7878787878788"/>
      <point x="104.06060606060606" y="1478.7878787878788"/>
      <point x="28.18181818181818" y="1446.3636363636363" type="curve"/>
      <point x="28.18181818181818" y="1285.3939393939395" type="line"/>
      <point x="112.60606060606061" y="1320.2424242424242"/>
      <point x="206.84848484848484" y="1338.2424242424242"/>
      <point x="305.27272727272725" y="1338.2424242424242" type="curve" smooth="yes"/>
      <point x="492.8484848484849" y="1338.2424242424242"/>
      <point x="581.939393939394" y="1262.7272727272727"/>
      <point x="581.939393939394" y="1106.909090909091" type="curve" smooth="yes"/>
      <point x="581.939393939394" y="959.939393939394"/>
      <point x="506.1818181818182" y="867.1515151515151"/>
      <point x="260.1212121212121" y="788.0" type="curve"/>
    </contour>
    <contour>
      <point x="354.42424242424244" y="-13.93939393939394" type="curve" smooth="yes"/>
      <point x="434.1818181818182" y="-13.93939393939394"/>
      <point x="488.9090909090909" y="39.63636363636364"/>
      <point x="488.9090909090909" y="116.60606060606061" type="curve" smooth="yes"/>
      <point x="488.9090909090909" y="194.78787878787878"/>
      <point x="434.54545454545456" y="248.36363636363635"/>
      <point x="354.42424242424244" y="248.36363636363635" type="curve" smooth="yes"/>
      <point x="274.3030303030303" y="248.36363636363635"/>
      <point x="219.93939393939394" y="196.36363636363637"/>
      <point x="219.93939393939394" y="116.60606060606061" type="curve" smooth="yes"/>
      <point x="219.93939393939394" y="38.06060606060606"/>
      <point x="275.8787878787879" y="-13.93939393939394"/>
    </contour>
  </outline>
</glyph>
<glyph name="at" format="2">
  <advance width="1718.5454545454545"/>
  <unicode hex="0040"/>
  <outline>
    <contour>
      <point x="900.6666666666666" y="-460.0" type="curve" smooth="yes"/>
      <point x="1029.6969696969697" y="-460.0"/>
      <point x="1151.090909090909" y="-438.3636363636364"/>
      <point x="1257.1515151515152" y="-404.7878787878788" type="curve"/>
      <point x="1257.1515151515152" y="-262.72727272727275" type="line"/>
      <point x="1138.1818181818182" y="-299.93939393939394"/>
      <point x="1024.8484848484848" y="-319.1515151515151"/>
      <point x="900.6666666666666" y="-319.1515151515151" type="curve" smooth="yes"/>
      <point x="463.5151515151515" y="-319.1515151515151"/>
      <point x="243.27272727272725" y="-117.45454545454545"/>
      <point x="243.27272727272725" y="522.4242424242424" type="curve" smooth="yes"/>
      <point x="243.27272727272725" y="1156.2424242424242"/>
      <point x="463.5151515151515" y="1357.1515151515152"/>
      <point x="866.2424242424242" y="1357.1515151515152" type="curve" smooth="yes"/>
      <point x="1268.969696969697" y="1357.1515151515152"/>
      <point x="1486.3636363636363" y="1159.3939393939395"/>
      <point x="1487.1515151515152" y="564.2424242424242" type="curve" smooth="yes"/>
      <point x="1487.939393939394" y="220.0"/>
      <point x="1409.2121212121212" y="126.0"/>
      <point x="1323.939393939394" y="126.0" type="curve" smooth="yes"/>
      <point x="1258.121212121212" y="126.0"/>
      <point x="1230.121212121212" y="169.75757575757575"/>
      <point x="1230.121212121212" y="260.3636363636364" type="curve" smooth="yes"/>
      <point x="1230.121212121212" y="711.1515151515151" type="line" smooth="yes"/>
      <point x="1230.121212121212" y="997.8181818181819"/>
      <point x="1101.878787878788" y="1096.7878787878788"/>
      <point x="845.030303030303" y="1096.7878787878788" type="curve" smooth="yes"/>
      <point x="756.0" y="1096.7878787878788"/>
      <point x="643.7575757575758" y="1080.0"/>
      <point x="561.5151515151515" y="1050.4242424242425" type="curve"/>
      <point x="559.939393939394" y="889.4545454545455" type="line"/>
      <point x="646.7878787878788" y="921.4545454545455"/>
      <point x="740.3636363636364" y="936.2424242424242"/>
      <point x="813.8787878787879" y="936.2424242424242" type="curve" smooth="yes"/>
      <point x="968.8484848484849" y="936.2424242424242"/>
      <point x="1041.5757575757575" y="885.3333333333334"/>
      <point x="1041.5757575757575" y="719.4545454545455" type="curve" smooth="yes"/>
      <point x="1041.5757575757575" y="248.0" type="line"/>
      <point x="984.8484848484849" y="160.9090909090909"/>
      <point x="909.1515151515151" y="134.3030303030303"/>
      <point x="843.939393939394" y="134.3030303030303" type="curve" smooth="yes"/>
      <point x="741.3939393939394" y="134.3030303030303"/>
      <point x="680.7272727272727" y="188.54545454545456"/>
      <point x="680.7272727272727" y="305.5151515151515" type="curve" smooth="yes"/>
      <point x="680.7272727272727" y="415.57575757575756"/>
      <point x="742.969696969697" y="476.6060606060606"/>
      <point x="876.7878787878788" y="490.3030303030303" type="curve" smooth="yes"/>
      <point x="1104.909090909091" y="512.8484848484849" type="line"/>
      <point x="1078.3636363636363" y="634.7878787878788" type="line"/>
      <point x="859.0909090909091" y="612.2424242424242" type="line" smooth="yes"/>
      <point x="600.8484848484849" y="588.6060606060606"/>
      <point x="488.54545454545456" y="479.1515151515151"/>
      <point x="488.54545454545456" y="281.75757575757575" type="curve" smooth="yes"/>
      <point x="488.54545454545456" y="91.81818181818181"/>
      <point x="609.2727272727273" y="-18.363636363636363"/>
      <point x="784.3636363636364" y="-18.363636363636363" type="curve" smooth="yes"/>
      <point x="893.6363636363636" y="-18.363636363636363"/>
      <point x="992.8484848484849" y="23.696969696969695"/>
      <point x="1047.4545454545455" y="125.93939393939394" type="curve"/>
      <point x="1059.3939393939395" y="125.93939393939394" type="line"/>
      <point x="1094.6666666666667" y="34.484848484848484"/>
      <point x="1171.939393939394" y="-18.363636363636363"/>
      <point x="1290.7878787878788" y="-18.363636363636363" type="curve" smooth="yes"/>
      <point x="1486.3636363636363" y="-18.363636363636363"/>
      <point x="1637.878787878788" y="143.63636363636363"/>
      <point x="1637.878787878788" y="571.030303030303" type="curve" smooth="yes"/>
      <point x="1637.878787878788" y="1224.3030303030303"/>
      <point x="1354.4242424242425" y="1498.0"/>
      <point x="866.2424242424242" y="1498.0" type="curve" smooth="yes"/>
      <point x="376.8484848484849" y="1498.0"/>
      <point x="80.66666666666667" y="1224.3030303030303"/>
      <point x="80.66666666666667" y="520.0" type="curve" smooth="yes"/>
      <point x="80.66666666666667" y="-189.15151515151516"/>
      <point x="379.27272727272725" y="-460.0"/>
    </contour>
  </outline>
</glyph>
<glyph name="A" format="2">
  <advance width="1196.969696969697"/>
  <unicode hex="0041"/>
  <note>
520
</note>
  <anchor x="599.0909090909091" y="0.0" name="bottom"/>
  <anchor x="1184.3636363636363" y="0.0" name="ogonek"/>
  <anchor x="599.0909090909091" y="1520.0" name="top"/>
  <outline>
    <contour>
      <point x="12.606060606060607" y="0.0" type="line"/>
      <point x="205.93939393939394" y="0.0" type="line"/>
      <point x="610.6666666666666" y="1387.2121212121212" type="line"/>
      <point x="581.939393939394" y="1387.2121212121212" type="line"/>
      <point x="988.2424242424242" y="0.0" type="line"/>
      <point x="1184.3636363636363" y="0.0" type="line"/>
      <point x="740.3636363636364" y="1480.0" type="line"/>
      <point x="456.6060606060606" y="1480.0" type="line"/>
    </contour>
    <contour>
      <point x="246.0" y="455.5151515151515" type="line"/>
      <point x="950.1818181818181" y="455.5151515151515" type="line"/>
      <point x="909.6969696969697" y="625.5151515151515" type="line"/>
      <point x="286.4848484848485" y="625.5151515151515" type="line"/>
    </contour>
  </outline>
</glyph>
<glyph name="B" format="2">
  <advance width="1149.878787878788"/>
  <unicode hex="0042"/>
  <anchor x="584.4848484848485" y="0.0" name="bottom"/>
  <anchor x="584.4848484848485" y="1480.0" name="top"/>
  <outline>
    <contour>
      <point x="468.4848484848485" y="-13.93939393939394" type="curve" smooth="yes"/>
      <point x="909.8787878787879" y="-13.93939393939394"/>
      <point x="1093.5757575757575" y="127.57575757575758"/>
      <point x="1093.5757575757575" y="401.030303030303" type="curve" smooth="yes"/>
      <point x="1093.5757575757575" y="610.1818181818181"/>
      <point x="980.060606060606" y="741.6363636363636"/>
      <point x="770.3636363636364" y="770.4242424242424" type="curve"/>
      <point x="770.3636363636364" y="757.2121212121212" type="line"/>
      <point x="970.1212121212121" y="792.0"/>
      <point x="1051.5757575757575" y="938.1818181818181"/>
      <point x="1051.5757575757575" y="1101.3939393939395" type="curve" smooth="yes"/>
      <point x="1051.5757575757575" y="1374.0"/>
      <point x="883.0909090909091" y="1496.3636363636363"/>
      <point x="505.1515151515151" y="1496.3636363636363" type="curve" smooth="yes"/>
      <point x="368.4848484848485" y="1496.3636363636363"/>
      <point x="239.75757575757575" y="1481.2121212121212"/>
      <point x="134.06060606060606" y="1459.6969696969697" type="curve"/>
      <point x="134.06060606060606" y="7.9393939393939394" type="line"/>
      <point x="239.0909090909091" y="-6.0"/>
      <point x="362.6060606060606" y="-13.93939393939394"/>
    </contour>
    <contour>
      <point x="513.8181818181818" y="144.24242424242425" type="curve" smooth="yes"/>
      <point x="452.8484848484849" y="144.24242424242425"/>
      <point x="391.030303030303" y="146.24242424242425"/>
      <point x="325.75757575757575" y="152.66666666666666" type="curve"/>
      <point x="325.75757575757575" y="1322.5454545454545" type="line"/>
      <point x="387.8787878787879" y="1332.969696969697"/>
      <point x="448.8484848484849" y="1338.1818181818182"/>
      <point x="528.7272727272727" y="1338.1818181818182" type="curve" smooth="yes"/>
      <point x="773.3939393939394" y="1338.1818181818182"/>
      <point x="864.1818181818182" y="1267.090909090909"/>
      <point x="864.1818181818182" y="1090.3636363636363" type="curve" smooth="yes"/>
      <point x="864.1818181818182" y="927.7575757575758"/>
      <point x="786.3030303030303" y="839.6969696969697"/>
      <point x="532.4848484848485" y="839.6969696969697" type="curve" smooth="yes"/>
      <point x="303.45454545454544" y="839.6969696969697" type="line"/>
      <point x="303.45454545454544" y="676.7878787878788" type="line"/>
      <point x="566.969696969697" y="676.7878787878788" type="line" smooth="yes"/>
      <point x="802.6060606060606" y="676.7878787878788"/>
      <point x="906.1818181818182" y="588.3636363636364"/>
      <point x="906.1818181818182" y="408.06060606060606" type="curve" smooth="yes"/>
      <point x="906.1818181818182" y="225.39393939393938"/>
      <point x="800.5454545454545" y="144.24242424242425"/>
    </contour>
  </outline>
</glyph>
<glyph name="F" format="2">
  <advance width="973.030303030303"/>
  <unicode hex="0046"/>
  <outline>
    <contour>
      <point x="134.06060606060606" y="0.0" type="line"/>
      <point x="329.6969696969697" y="0.0" type="line"/>
      <point x="329.6969696969697" y="1306.8484848484848" type="line"/>
      <point x="958.1818181818181" y="1306.8484848484848" type="line"/>
      <point x="958.1818181818181" y="1480.0" type="line"/>
      <point x="134.06060606060606" y="1480.0" type="line"/>
    </contour>
    <contour>
      <point x="279.93939393939394" y="653.1515151515151" type="line"/>
      <point x="865.030303030303" y="653.1515151515151" type="line"/>
      <point x="865.030303030303" y="826.3030303030303" type="line"/>
      <point x="279.93939393939394" y="826.3030303030303" type="line"/>
    </contour>
  </outline>
</glyph>
<glyph name="H" format="2">
  <advance width="1277.5151515151515"/>
  <unicode hex="0048"/>
  <anchor x="639.1515151515151" y="0.0" name="bottom"/>
  <anchor x="639.1515151515151" y="1163.6363636363637" name="center"/>
  <anchor x="639.1515151515151" y="1520.0" name="top"/>
  <anchor x="32.84848484848485" y="1480.0" name="topleft"/>
  <outline>
    <contour>
      <point x="134.06060606060606" y="0.0" type="line"/>
      <point x="329.6969696969697" y="0.0" type="line"/>
      <point x="329.6969696969697" y="668.1212121212121" type="line"/>
      <point x="947.8181818181819" y="668.1212121212121" type="line"/>
      <point x="947.8181818181819" y="0.0" type="line"/>
      <point x="1143.4545454545455" y="0.0" type="line"/>
      <point x="1143.4545454545455" y="1480.0" type="line"/>
      <point x="947.8181818181819" y="1480.0" type="line"/>
      <point x="947.8181818181819" y="849.1515151515151" type="line"/>
      <point x="329.6969696969697" y="849.1515151515151" type="line"/>
      <point x="329.6969696969697" y="1480.0" type="line"/>
      <point x="134.06060606060606" y="1480.0" type="line"/>
    </contour>
  </outline>
</glyph>
<glyph name="I" format="2">
  <advance width="463.75757575757575"/>
  <unicode hex="0049"/>
  <anchor x="231.87878787878788" y="0.0" name="bottom"/>
  <anchor x="329.6969696969697" y="0.0" name="ogonek"/>
  <anchor x="231.87878787878788" y="1520.0" name="top"/>
  <outline>
    <contour>
      <point x="134.06060606060606" y="0.0" type="line"/>
      <point x="329.6969696969697" y="0.0" type="line"/>
      <point x="329.6969696969697" y="1480.0" type="line"/>
      <point x="134.06060606060606" y="1480.0" type="line"/>
    </contour>
  </outline>
</glyph>
<glyph name="J" format="2">
  <advance width="463.75757575757575"/>
  <unicode hex="004A"/>
  <anchor x="353.93939393939394" y="0.0" name="bottom"/>
  <anchor x="231.87878787878788" y="1520.0" name="top"/>
  <outline>
    <contour>
      <point x="107.81818181818181" y="-343.93939393939394" type="line"/>
      <point x="266.969696969697" y="-134.42424242424244"/>
      <point x="324.8484848484849" y="41.696969696969695"/>
      <point x="329.6969696969697" y="282.0" type="curve"/>
      <point x="329.6969696969697" y="1480.0" type="line"/>
      <point x="134.06060606060606" y="1480.0" type="line"/>
      <point x="134.06060606060606" y="293.8787878787879" type="line" smooth="yes"/>
      <point x="134.06060606060606" y="61.21212121212121"/>
      <point x="91.93939393939394" y="-80.54545454545455"/>
      <point x="-23.333333333333332" y="-257.1515151515151" type="curve"/>
    </contour>
  </outline>
</glyph>
<glyph name="K" format="2">
  <advance width="1118.0"/>
  <unicode hex="004B"/>
  <anchor x="591.4545454545455" y="0.0" name="bottom"/>
  <anchor x="586.7272727272727" y="1480.0" name="top"/>
  <outline>
    <contour>
      <point x="954.2424242424242" y="0.0" type="line"/>
      <point x="1168.6060606060605" y="0.0" type="line"/>
      <point x="620.1212121212121" y="790.5454545454545" type="line"/>
      <point x="618.5454545454545" y="732.6666666666666" type="line"/>
      <point x="1128.969696969697" y="1480.0" type="line"/>
      <point x="920.5454545454545" y="1480.0" type="line"/>
      <point x="426.42424242424244" y="754.8484848484849" type="line"/>
    </contour>
    <contour>
      <point x="134.06060606060606" y="0.0" type="line"/>
      <point x="329.6969696969697" y="0.0" type="line"/>
      <point x="329.6969696969697" y="1480.0" type="line"/>
      <point x="134.06060606060606" y="1480.0" type="line"/>
    </contour>
    <contour>
      <point x="299.5151515151515" y="668.1212121212121" type="line"/>
      <point x="506.24242424242425" y="668.1212121212121" type="line"/>
      <point x="506.24242424242425" y="847.939393939394" type="line"/>
      <point x="299.5151515151515" y="847.939393939394" type="line"/>
    </contour>
  </outline>
</glyph>
<glyph name="M" format="2">
  <advance width="1602.6666666666667"/>
  <unicode hex="004D"/>
  <anchor x="811.5757575757576" y="0.0" name="bottom"/>
  <anchor x="811.5757575757576" y="1480.0" name="top"/>
  <outline>
    <contour>
      <point x="138.06060606060606" y="0.0" type="line"/>
      <point x="321.45454545454544" y="0.0" type="line"/>
      <point x="321.45454545454544" y="1294.7272727272727" type="line"/>
      <point x="269.6969696969697" y="1294.7272727272727" type="line"/>
      <point x="718.4242424242424" y="207.87878787878788" type="line"/>
      <point x="884.2424242424242" y="207.87878787878788" type="line"/>
      <point x="1326.2424242424242" y="1294.7272727272727" type="line"/>
      <point x="1281.2121212121212" y="1294.7272727272727" type="line"/>
      <point x="1281.2121212121212" y="0.0" type="line"/>
      <point x="1464.6060606060605" y="0.0" type="line"/>
      <point x="1464.6060606060605" y="1480.0" type="line"/>
      <point x="1227.878787878788" y="1480.0" type="line"/>
      <point x="789.6969696969697" y="384.06060606060606" type="line"/>
      <point x="820.9090909090909" y="384.06060606060606" type="line"/>
      <point x="374.78787878787875" y="1480.0" type="line"/>
      <point x="138.06060606060606" y="1480.0" type="line"/>
    </contour>
  </outline>
</glyph>
<glyph name="N" format="2">
  <advance width="1300.0"/>
  <unicode hex="004E"/>
  <anchor x="650.0" y="0.0" name="bottom"/>
  <anchor x="650.0" y="1520.0" name="top"/>
  <outline>
    <contour>
      <point x="134.06060606060606" y="0.0" type="line"/>
      <point x="318.24242424242425" y="0.0" type="line"/>
      <point x="318.24242424242425" y="1226.969696969697" type="line"/>
      <point x="276.0" y="1226.969696969697" type="line"/>
      <point x="966.2424242424242" y="0.0" type="line"/>
      <point x="1165.939393939394" y="0.0" type="line"/>
      <point x="1165.939393939394" y="1480.0" type="line"/>
      <point x="981.7575757575758" y="1480.0" type="line"/>
      <point x="981.7575757575758" y="253.03030303030303" type="line"/>
      <point x="1024.0" y="253.03030303030303" type="line"/>
      <point x="333.75757575757575" y="1480.0" type="line"/>
      <point x="134.06060606060606" y="1480.0" type="line"/>
    </contour>
  </outline>
</glyph>
<glyph name="P" format="2">
  <advance width="1118.6060606060605"/>
  <unicode hex="0050"/>
  <outline>
    <contour>
      <point x="134.06060606060606" y="0.0" type="line"/>
      <point x="329.6969696969697" y="0.0" type="line"/>
      <point x="329.6969696969697" y="474.7878787878788" type="line"/>
      <point x="378.24242424242425" y="471.1515151515151"/>
      <point x="420.8484848484849" y="469.1515151515151"/>
      <point x="473.3939393939394" y="469.1515151515151" type="curve" smooth="yes"/>
      <point x="855.3939393939394" y="469.1515151515151"/>
      <point x="1044.7272727272727" y="645.8181818181819"/>
      <point x="1044.7272727272727" y="981.1515151515151" type="curve" smooth="yes"/>
      <point x="1044.7272727272727" y="1336.060606060606"/>
      <point x="855.3939393939394" y="1496.3636363636363"/>
      <point x="481.5151515151515" y="1496.3636363636363" type="curve" smooth="yes"/>
      <point x="356.6666666666667" y="1496.3636363636363"/>
      <point x="239.75757575757575" y="1481.2121212121212"/>
      <point x="134.06060606060606" y="1460.909090909091" type="curve"/>
    </contour>
    <contour>
      <point x="478.6060606060606" y="632.8484848484849" type="curve" smooth="yes"/>
      <point x="425.27272727272725" y="632.8484848484849"/>
      <point x="377.8787878787879" y="634.8484848484849"/>
      <point x="329.6969696969697" y="641.2727272727273" type="curve"/>
      <point x="329.6969696969697" y="1319.8181818181818" type="line"/>
      <point x="382.3636363636364" y="1328.2424242424242"/>
      <point x="434.6666666666667" y="1332.6666666666667"/>
      <point x="496.4848484848485" y="1332.6666666666667" type="curve" smooth="yes"/>
      <point x="738.1818181818181" y="1332.6666666666667"/>
      <point x="851.3939393939394" y="1226.7272727272727"/>
      <point x="851.3939393939394" y="977.1515151515151" type="curve" smooth="yes"/>
      <point x="851.3939393939394" y="738.4848484848485"/>
      <point x="732.1212121212121" y="632.8484848484849"/>
    </contour>
  </outline>
</glyph>
<glyph name="Q" format="2">
  <advance width="1255.3939393939395"/>
  <unicode hex="0051"/>
  <outline>
    <contour>
      <point x="1115.5151515151515" y="-248.54545454545456" type="curve"/>
      <point x="1151.939393939394" y="-83.27272727272728" type="line"/>
      <point x="973.030303030303" y="-62.909090909090914"/>
      <point x="779.1515151515151" y="-22.545454545454547"/>
      <point x="587.3333333333334" y="64.54545454545455" type="curve"/>
      <point x="549.030303030303" y="8.545454545454543" type="line"/>
      <point x="958.8484848484849" y="-49.75757575757576"/>
      <point x="1174.7272727272727" y="210.66666666666666"/>
      <point x="1174.7272727272727" y="740.0" type="curve" smooth="yes"/>
      <point x="1174.7272727272727" y="1289.3333333333333"/>
      <point x="956.7878787878788" y="1498.7878787878788"/>
      <point x="627.6969696969697" y="1498.7878787878788" type="curve" smooth="yes"/>
      <point x="298.6060606060606" y="1498.7878787878788"/>
      <point x="80.66666666666667" y="1289.3333333333333"/>
      <point x="80.66666666666667" y="740.0" type="curve" smooth="yes"/>
      <point x="80.66666666666667" y="137.93939393939394"/>
      <point x="325.8181818181818" y="-125.45454545454545"/>
    </contour>
    <contour>
      <point x="627.6969696969697" y="148.84848484848484" type="curve" smooth="yes"/>
      <point x="416.72727272727275" y="148.84848484848484"/>
      <point x="283.45454545454544" y="287.93939393939394"/>
      <point x="283.45454545454544" y="745.5757575757576" type="curve" smooth="yes"/>
      <point x="283.45454545454544" y="1192.060606060606"/>
      <point x="416.72727272727275" y="1331.1515151515152"/>
      <point x="627.6969696969697" y="1331.1515151515152" type="curve" smooth="yes"/>
      <point x="838.6666666666666" y="1331.1515151515152"/>
      <point x="971.939393939394" y="1192.060606060606"/>
      <point x="971.939393939394" y="734.4242424242424" type="curve" smooth="yes"/>
      <point x="971.939393939394" y="287.93939393939394"/>
      <point x="838.6666666666666" y="148.84848484848484"/>
    </contour>
  </outline>
</glyph>
<glyph name="T" format="2">
  <advance width="1061.1515151515152"/>
  <unicode hex="0054"/>
  <anchor x="530.969696969697" y="0.0" name="bottom"/>
  <anchor x="530.969696969697" y="760.6060606060606" name="center"/>
  <anchor x="530.969696969697" y="1520.0" name="top"/>
  <outline>
    <contour>
      <point x="432.3636363636364" y="0.0" type="line"/>
      <point x="628.7878787878788" y="0.0" type="line"/>
      <point x="628.7878787878788" y="1303.6969696969697" type="line"/>
      <point x="1054.7272727272727" y="1303.6969696969697" type="line"/>
      <point x="1054.7272727272727" y="1480.0" type="line"/>
      <point x="6.424242424242424" y="1480.0" type="line"/>
      <point x="6.424242424242424" y="1303.6969696969697" type="line"/>
      <point x="432.3636363636364" y="1303.6969696969697" type="line"/>
    </contour>
  </outline>
</glyph>
<glyph name="V" format="2">
  <advance width="1169.6969696969697"/>
  <unicode hex="0056"/>
  <outline>
    <contour>
      <point x="438.1818181818182" y="0.0" type="line"/>
      <point x="731.5151515151515" y="0.0" type="line"/>
      <point x="1170.7272727272727" y="1480.0" type="line"/>
      <point x="980.969696969697" y="1480.0" type="line"/>
      <point x="569.5757575757576" y="83.33333333333333" type="line"/>
      <point x="609.2121212121212" y="83.33333333333333" type="line"/>
      <point x="202.1818181818182" y="1480.0" type="line"/>
      <point x="-1.0303030303030294" y="1480.0" type="line"/>
    </contour>
  </outline>
</glyph>
<glyph name="X" format="2">
  <advance width="1160.3030303030303"/>
  <unicode hex="0058"/>
  <outline>
    <contour>
      <point x="941.5151515151515" y="0.0" type="line"/>
      <point x="1157.4545454545455" y="0.0" type="line"/>
      <point x="693.8181818181818" y="759.8181818181819" type="line"/>
      <point x="579.7575757575758" y="922.6666666666666" type="line"/>
      <point x="240.1818181818182" y="1480.0" type="line"/>
      <point x="23.090909090909093" y="1480.0" type="line"/>
      <point x="465.6969696969697" y="759.030303030303" type="line"/>
      <point x="579.7575757575758" y="597.3333333333334" type="line"/>
    </contour>
    <contour>
      <point x="-1.0909090909090864" y="0.0" type="line"/>
      <point x="216.0" y="0.0" type="line"/>
      <point x="579.7575757575758" y="597.3333333333334" type="line"/>
      <point x="693.8181818181818" y="759.8181818181819" type="line"/>
      <point x="1133.2727272727273" y="1480.0" type="line"/>
      <point x="919.3333333333334" y="1480.0" type="line"/>
      <point x="579.7575757575758" y="922.6666666666666" type="line"/>
      <point x="465.6969696969697" y="759.030303030303" type="line"/>
    </contour>
  </outline>
</glyph>
<glyph name="bracketleft" format="2">
  <advance width="596.4242424242424"/>
  <unicode hex="005B"/>
  <outline>
    <contour>
      <point x="154.06060606060606" y="-440.0" type="line"/>
      <point x="632.4848484848485" y="-440.0" type="line"/>
      <point x="632.4848484848485" y="-283.030303030303" type="line"/>
      <point x="347.3333333333333" y="-283.030303030303" type="line"/>
      <point x="347.3333333333333" y="1459.030303030303" type="line"/>
      <point x="632.4848484848485" y="1459.030303030303" type="line"/>
      <point x="632.4848484848485" y="1616.0" type="line"/>
      <point x="154.06060606060606" y="1616.0" type="line"/>
    </contour>
  </outline>
</glyph>
<glyph name="bracketright" format="2">
  <advance width="596.4242424242424"/>
  <unicode hex="005D"/>
  <outline>
    <contour>
      <point x="-36.06060606060606" y="-440.0" type="line"/>
      <point x="442.3636363636364" y="-440.0" type="line"/>
      <point x="442.3636363636364" y="1616.0" type="line"/>
      <point x="-36.06060606060606" y="1616.0" type="line"/>
      <point x="-36.06060606060606" y="1459.030303030303" type="line"/>
      <point x="249.0909090909091" y="1459.030303030303" type="line"/>
      <point x="249.0909090909091" y="-283.030303030303" type="line"/>
      <point x="-36.06060606060606" y="-283.030303030303" type="line"/>
    </contour>
  </outline>
</glyph>
<glyph name="asciicircum" format="2">
  <advance width="1078.7878787878788"/>
  <unicode hex="005E"/>
  <outline>
    <contour>
      <point x="90.36363636363636" y="740.0" type="line"/>
      <point x="275.8787878787879" y="740.0" type="line"/>
      <point x="570.1818181818181" y="1371.8181818181818" type="line"/>
      <point x="508.6060606060606" y="1371.8181818181818" type="line"/>
      <point x="802.9090909090909" y="740.0" type="line"/>
      <point x="988.4242424242424" y="740.0" type="line"/>
      <point x="629.5151515151515" y="1480.0" type="line"/>
      <point x="448.06060606060606" y="1480.0" type="line"/>
    </contour>
  </outline>
</glyph>
<glyph name="underscore" format="2">
  <advance width="987.3939393939394"/>
  <unicode hex="005F"/>
  <outline>
    <contour>
      <point x="86.06060606060606" y="-156.96969696969697" type="line"/>
      <point x="901.3333333333334" y="-156.96969696969697" type="line"/>
      <point x="901.3333333333334" y="0.0" type="line"/>
      <point x="86.06060606060606" y="0.0" type="line"/>
    </contour>
  </outline>
</glyph>
<glyph name="grave" format="2">
  <advance width="957.5757575757575"/>
  <unicode hex="0060"/>
  <anchor x="478.78787878787875" y="1200.0" name="_top"/>
  <anchor x="478.78787878787875" y="1595.3939393939395" name="top"/>
  <outline>
    <contour>
      <point x="395.6363636363636" y="1246.6666666666667" type="line"/>
      <point x="561.939393939394" y="1246.6666666666667" type="line"/>
      <point x="390.3030303030303" y="1616.0" type="line"/>
      <point x="193.8181818181818" y="1616.0" type="line"/>
    </contour>
  </outline>
</glyph>
<glyph name="b" format="2">
  <advance width="988.8484848484849"/>
  <unicode hex="0062"/>
  <anchor x="500.1818181818182" y="0.0" name="bottom"/>
  <anchor x="215.03030303030303" y="1616.0" name="top"/>
  <outline>
    <contour>
      <point x="414.54545454545456" y="-18.78787878787879" type="curve" smooth="yes"/>
      <point x="748.969696969697" y="-19.575757575757574"/>
      <point x="919.7575757575758" y="168.1818181818182"/>
      <point x="919.7575757575758" y="562.3636363636364" type="curve" smooth="yes"/>
      <point x="919.7575757575758" y="964.969696969697"/>
      <point x="752.1818181818181" y="1104.6666666666667"/>
      <point x="561.8181818181818" y="1104.6666666666667" type="curve" smooth="yes"/>
      <point x="450.9090909090909" y="1104.6666666666667"/>
      <point x="367.6363636363636" y="1051.3939393939395"/>
      <point x="322.0" y="981.939393939394" type="curve"/>
      <point x="311.27272727272725" y="981.939393939394" type="line"/>
      <point x="311.27272727272725" y="1616.0" type="line"/>
      <point x="118.0" y="1616.0" type="line"/>
      <point x="118.0" y="29.03030303030303" type="line"/>
      <point x="200.84848484848484" y="-1.6363636363636367"/>
      <point x="315.6969696969697" y="-18.78787878787879"/>
    </contour>
    <contour>
      <point x="427.1515151515151" y="136.24242424242425" type="curve" smooth="yes"/>
      <point x="388.1212121212121" y="136.24242424242425"/>
      <point x="341.8181818181818" y="143.0909090909091"/>
      <point x="311.27272727272725" y="151.93939393939394" type="curve"/>
      <point x="311.27272727272725" y="837.7575757575758" type="line"/>
      <point x="349.8787878787879" y="902.7272727272727"/>
      <point x="422.3636363636364" y="937.030303030303"/>
      <point x="491.6363636363636" y="937.030303030303" type="curve" smooth="yes"/>
      <point x="623.6363636363636" y="937.030303030303"/>
      <point x="720.9090909090909" y="865.5757575757576"/>
      <point x="720.9090909090909" y="544.1212121212121" type="curve" smooth="yes"/>
      <point x="720.9090909090909" y="241.15151515151516"/>
      <point x="616.0" y="136.24242424242425"/>
    </contour>
  </outline>
</glyph>
<glyph name="f" format="2">
  <advance width="632.1212121212121"/>
  <unicode hex="0066"/>
  <outline>
    <contour>
      <point x="184.36363636363637" y="0.0" type="line"/>
      <point x="375.27272727272725" y="0.0" type="line"/>
      <point x="375.27272727272725" y="1278.3030303030303" type="line" smooth="yes"/>
      <point x="375.27272727272725" y="1416.6060606060605"/>
      <point x="439.8181818181818" y="1473.878787878788"/>
      <point x="576.6060606060606" y="1473.878787878788" type="curve" smooth="yes"/>
      <point x="615.939393939394" y="1473.878787878788"/>
      <point x="646.7878787878788" y="1470.6666666666667"/>
      <point x="684.8484848484849" y="1464.2424242424242" type="curve"/>
      <point x="684.8484848484849" y="1625.2121212121212" type="line"/>
      <point x="643.2727272727273" y="1633.2121212121212"/>
      <point x="594.1212121212121" y="1636.0"/>
      <point x="554.6060606060606" y="1636.0" type="curve" smooth="yes"/>
      <point x="307.93939393939394" y="1636.0"/>
      <point x="184.36363636363637" y="1506.121212121212"/>
      <point x="184.36363636363637" y="1269.2727272727273" type="curve" smooth="yes"/>
    </contour>
    <contour>
      <point x="8.0" y="930.9090909090909" type="line"/>
      <point x="647.6969696969697" y="930.9090909090909" type="line"/>
      <point x="647.6969696969697" y="1087.878787878788" type="line"/>
      <point x="8.0" y="1087.878787878788" type="line"/>
    </contour>
  </outline>
</glyph>
<glyph name="k" format="2">
  <advance width="933.6363636363636"/>
  <unicode hex="006B"/>
  <guideline x="573.6363636363636" y="557.5151515151515" angle="0.0"/>
  <anchor x="510.8484848484849" y="0.0" name="bottom"/>
  <anchor x="215.03030303030303" y="1616.0" name="top"/>
  <outline>
    <contour>
      <point x="752.3030303030303" y="0.0" type="line"/>
      <point x="965.5151515151515" y="0.0" type="line"/>
      <point x="576.6060606060606" y="589.2121212121212" type="line"/>
      <point x="576.6060606060606" y="531.3333333333334" type="line"/>
      <point x="931.939393939394" y="1087.878787878788" type="line"/>
      <point x="723.8787878787879" y="1087.878787878788" type="line"/>
      <point x="382.8484848484849" y="557.5151515151515" type="line"/>
    </contour>
    <contour>
      <point x="288.969696969697" y="479.030303030303" type="line"/>
      <point x="457.5151515151515" y="479.030303030303" type="line"/>
      <point x="457.5151515151515" y="636.0" type="line"/>
      <point x="288.969696969697" y="636.0" type="line"/>
    </contour>
    <contour>
      <point x="118.0" y="0.0" type="line"/>
      <point x="311.27272727272725" y="0.0" type="line"/>
      <point x="311.27272727272725" y="1616.0" type="line"/>
      <point x="118.0" y="1616.0" type="line"/>
    </contour>
  </outline>
</glyph>
<glyph name="n" format="2">
  <advance width="996.1818181818181"/>
  <unicode hex="006E"/>
  <anchor x="10.0" y="1200.0" name="apostrophe"/>
  <anchor x="502.3030303030303" y="0.0" name="bottom"/>
  <anchor x="502.3030303030303" y="1200.0" name="top"/>
  <outline>
    <contour>
      <point x="118.0" y="0.0" type="line"/>
      <point x="311.27272727272725" y="0.0" type="line"/>
      <point x="311.27272727272725" y="805.0909090909091" type="line"/>
      <point x="364.78787878787875" y="896.969696969697"/>
      <point x="458.969696969697" y="929.939393939394"/>
      <point x="529.6969696969697" y="929.939393939394" type="curve" smooth="yes"/>
      <point x="626.6060606060606" y="929.939393939394"/>
      <point x="692.5454545454545" y="883.6969696969697"/>
      <point x="692.5454545454545" y="736.1818181818182" type="curve" smooth="yes"/>
      <point x="692.5454545454545" y="0.0" type="line"/>
      <point x="885.8181818181818" y="0.0" type="line"/>
      <point x="885.8181818181818" y="749.2121212121212" type="line" smooth="yes"/>
      <point x="885.8181818181818" y="1015.2727272727273"/>
      <point x="757.5151515151515" y="1104.6666666666667"/>
      <point x="589.6363636363636" y="1104.6666666666667" type="curve" smooth="yes"/>
      <point x="474.0" y="1104.6666666666667"/>
      <point x="376.3030303030303" y="1055.8181818181818"/>
      <point x="306.24242424242425" y="968.6060606060606" type="curve"/>
      <point x="295.0909090909091" y="968.6060606060606" type="line"/>
      <point x="280.42424242424244" y="1087.878787878788" type="line"/>
      <point x="118.0" y="1087.878787878788" type="line"/>
    </contour>
  </outline>
</glyph>
<glyph name="p" format="2">
  <advance width="988.8484848484849"/>
  <unicode hex="0070"/>
  <outline>
    <contour>
      <point x="118.0" y="-440.0" type="line"/>
      <point x="311.27272727272725" y="-440.0" type="line"/>
      <point x="311.27272727272725" y="-12.727272727272727" type="line"/>
      <point x="342.72727272727275" y="-16.363636363636363"/>
      <point x="379.45454545454544" y="-18.78787878787879"/>
      <point x="410.9090909090909" y="-18.78787878787879" type="curve" smooth="yes"/>
      <point x="750.1818181818181" y="-18.78787878787879"/>
      <point x="919.7575757575758" y="168.96969696969697"/>
      <point x="919.7575757575758" y="563.1515151515151" type="curve" smooth="yes"/>
      <point x="919.7575757575758" y="965.7575757575758"/>
      <point x="745.8787878787879" y="1104.6666666666667"/>
      <point x="549.1515151515151" y="1104.6666666666667" type="curve" smooth="yes"/>
      <point x="435.93939393939394" y="1104.6666666666667"/>
      <point x="352.66666666666663" y="1048.2424242424242"/>
      <point x="307.8181818181818" y="973.5757575757576" type="curve"/>
      <point x="296.66666666666663" y="973.5757575757576" type="line"/>
      <point x="282.78787878787875" y="1087.878787878788" type="line"/>
      <point x="118.0" y="1087.878787878788" type="line"/>
    </contour>
    <contour>
      <point x="424.72727272727275" y="136.24242424242425" type="curve" smooth="yes"/>
      <point x="390.4848484848485" y="136.24242424242425"/>
      <point x="341.8181818181818" y="140.66666666666666"/>
      <point x="311.27272727272725" y="146.3030303030303" type="curve"/>
      <point x="311.27272727272725" y="832.969696969697" type="line"/>
      <point x="350.66666666666663" y="901.939393939394"/>
      <point x="424.72727272727275" y="937.8181818181819"/>
      <point x="495.1515151515151" y="937.8181818181819" type="curve" smooth="yes"/>
      <point x="623.6363636363636" y="937.8181818181819"/>
      <point x="720.9090909090909" y="866.3636363636364"/>
      <point x="720.9090909090909" y="544.9090909090909" type="curve" smooth="yes"/>
      <point x="720.9090909090909" y="241.15151515151516"/>
      <point x="616.0" y="136.24242424242425"/>
    </contour>
  </outline>
</glyph>
<glyph name="q" format="2">
  <advance width="988.8484848484849"/>
  <unicode hex="0071"/>
  <outline>
    <contour>
      <point x="677.5757575757576" y="-440.0" type="line"/>
      <point x="870.8484848484849" y="-440.0" type="line"/>
      <point x="870.8484848484849" y="1056.8484848484848" type="line"/>
      <point x="790.4242424242424" y="1086.3030303030303"/>
      <point x="673.1515151515151" y="1104.6666666666667"/>
      <point x="574.3030303030303" y="1104.6666666666667" type="curve" smooth="yes"/>
      <point x="239.87878787878788" y="1104.6666666666667"/>
      <point x="69.0909090909091" y="917.6969696969697"/>
      <point x="69.0909090909091" y="523.5151515151515" type="curve" smooth="yes"/>
      <point x="69.0909090909091" y="120.9090909090909"/>
      <point x="236.66666666666666" y="-18.78787878787879"/>
      <point x="427.030303030303" y="-18.78787878787879" type="curve" smooth="yes"/>
      <point x="537.939393939394" y="-18.78787878787879"/>
      <point x="621.2121212121212" y="34.484848484848484"/>
      <point x="666.8484848484849" y="103.93939393939394" type="curve"/>
      <point x="677.5757575757576" y="103.93939393939394" type="line"/>
    </contour>
    <contour>
      <point x="497.2121212121212" y="148.84848484848484" type="curve" smooth="yes"/>
      <point x="365.2121212121212" y="148.84848484848484"/>
      <point x="267.93939393939394" y="220.3030303030303"/>
      <point x="267.93939393939394" y="541.7575757575758" type="curve" smooth="yes"/>
      <point x="267.93939393939394" y="844.7272727272727"/>
      <point x="374.42424242424244" y="949.6363636363636"/>
      <point x="560.9090909090909" y="949.6363636363636" type="curve" smooth="yes"/>
      <point x="599.939393939394" y="949.6363636363636"/>
      <point x="647.030303030303" y="942.7878787878788"/>
      <point x="677.5757575757576" y="935.939393939394" type="curve"/>
      <point x="677.5757575757576" y="248.12121212121212" type="line"/>
      <point x="638.969696969697" y="183.15151515151513"/>
      <point x="566.4848484848485" y="148.84848484848484"/>
    </contour>
  </outline>
</glyph>
<glyph name="v" format="2">
  <advance width="934.4242424242424"/>
  <unicode hex="0076"/>
  <anchor x="467.8181818181818" y="0.0" name="bottom"/>
  <anchor x="467.8181818181818" y="1200.0" name="top"/>
  <outline>
    <contour>
      <point x="340.24242424242425" y="0.0" type="line"/>
      <point x="594.1818181818181" y="0.0" type="line"/>
      <point x="931.0909090909091" y="1087.878787878788" type="line"/>
      <point x="735.3333333333334" y="1087.878787878788" type="line"/>
      <point x="458.1818181818182" y="145.87878787878788" type="line"/>
      <point x="482.54545454545456" y="145.87878787878788" type="line"/>
      <point x="205.39393939393938" y="1087.878787878788" type="line"/>
      <point x="3.333333333333334" y="1087.878787878788" type="line"/>
    </contour>
  </outline>
</glyph>
<glyph name="x" format="2">
  <advance width="890.7878787878788"/>
  <unicode hex="0078"/>
  <anchor x="446.0" y="0.0" name="bottom"/>
  <anchor x="446.7878787878788" y="1200.0" name="top"/>
  <outline>
    <contour>
      <point x="684.9090909090909" y="0.0" type="line"/>
      <point x="897.2727272727273" y="0.0" type="line"/>
      <point x="559.6363636363636" y="550.7272727272727" type="line"/>
      <point x="447.57575757575756" y="699.7575757575758" type="line"/>
      <point x="213.45454545454544" y="1087.878787878788" type="line"/>
      <point x="1.0909090909090935" y="1087.878787878788" type="line"/>
      <point x="330.3636363636364" y="547.939393939394" type="line"/>
      <point x="444.0" y="401.6969696969697" type="line"/>
    </contour>
    <contour>
      <point x="-3.6969696969696955" y="0.0" type="line"/>
      <point x="202.72727272727272" y="0.0" type="line"/>
      <point x="444.0" y="401.6969696969697" type="line"/>
      <point x="559.6363636363636" y="550.7272727272727" type="line"/>
      <point x="888.1212121212121" y="1087.878787878788" type="line"/>
      <point x="681.6969696969697" y="1087.878787878788" type="line"/>
      <point x="447.57575757575756" y="699.7575757575758" type="line"/>
      <point x="330.3636363636364" y="547.939393939394" type="line"/>
    </contour>
  </outline>
</glyph>
<glyph name="y" format="2">
  <advance width="934.4242424242424"/>
  <unicode hex="0079"/>
  <anchor x="761.2727272727273" y="0.0" name="bottom"/>
  <anchor x="467.8181818181818" y="1200.0" name="top"/>
  <outline>
    <contour>
      <point x="265.8181818181818" y="-440.0" type="line"/>
      <point x="457.57575757575756" y="-440.0" type="line"/>
      <point x="931.0909090909091" y="1087.878787878788" type="line"/>
      <point x="735.3333333333334" y="1087.878787878788" type="line"/>
      <point x="458.1818181818182" y="145.87878787878788" type="line"/>
      <point x="403.6363636363636" y="0.0" type="line"/>
    </contour>
    <contour>
      <point x="340.24242424242425" y="0.0" type="line"/>
      <point x="515.8181818181818" y="0.0" type="line"/>
      <point x="205.39393939393938" y="1087.878787878788" type="line"/>
      <point x="3.333333333333334" y="1087.878787878788" type="line"/>
    </contour>
  </outline>
</glyph>
<glyph name="braceleft" format="2">
  <advance width="636.4242424242424"/>
  <unicode hex="007B"/>
  <outline>
    <contour>
      <point x="528.8484848484849" y="-460.0" type="curve" smooth="yes"/>
      <point x="583.0909090909091" y="-460.0"/>
      <point x="633.8181818181818" y="-455.2121212121212"/>
      <point x="672.4848484848485" y="-448.42424242424244" type="curve"/>
      <point x="672.4848484848485" y="-299.45454545454544" type="line"/>
      <point x="553.2121212121212" y="-299.45454545454544" type="line" smooth="yes"/>
      <point x="441.93939393939394" y="-299.45454545454544"/>
      <point x="387.3333333333333" y="-248.0"/>
      <point x="387.3333333333333" y="-139.0909090909091" type="curve" smooth="yes"/>
      <point x="387.3333333333333" y="389.57575757575756" type="line" smooth="yes"/>
      <point x="387.3333333333333" y="537.0909090909091"/>
      <point x="321.6363636363636" y="623.2727272727273"/>
      <point x="154.36363636363637" y="639.030303030303" type="curve"/>
      <point x="154.36363636363637" y="612.8484848484849" type="line"/>
      <point x="321.6363636363636" y="628.6060606060606"/>
      <point x="387.3333333333333" y="714.7878787878788"/>
      <point x="387.3333333333333" y="862.3030303030303" type="curve" smooth="yes"/>
      <point x="387.3333333333333" y="1315.090909090909" type="line" smooth="yes"/>
      <point x="387.3333333333333" y="1424.0"/>
      <point x="441.93939393939394" y="1475.4545454545455"/>
      <point x="553.2121212121212" y="1475.4545454545455" type="curve" smooth="yes"/>
      <point x="672.4848484848485" y="1475.4545454545455" type="line"/>
      <point x="672.4848484848485" y="1624.4242424242425" type="line"/>
      <point x="633.8181818181818" y="1631.2121212121212"/>
      <point x="583.0909090909091" y="1636.0"/>
      <point x="528.8484848484849" y="1636.0" type="curve" smooth="yes"/>
      <point x="307.3939393939394" y="1636.0"/>
      <point x="194.06060606060606" y="1524.2424242424242"/>
      <point x="194.06060606060606" y="1308.6666666666667" type="curve" smooth="yes"/>
      <point x="194.06060606060606" y="850.4848484848485" type="line" smooth="yes"/>
      <point x="194.06060606060606" y="752.9090909090909"/>
      <point x="140.72727272727272" y="704.4242424242424"/>
      <point x="49.21212121212121" y="704.4242424242424" type="curve" smooth="yes"/>
      <point x="22.363636363636363" y="704.4242424242424" type="line"/>
      <point x="22.363636363636363" y="547.4545454545455" type="line"/>
      <point x="49.21212121212121" y="547.4545454545455" type="line" smooth="yes"/>
      <point x="140.72727272727272" y="547.4545454545455"/>
      <point x="194.06060606060606" y="498.969696969697"/>
      <point x="194.06060606060606" y="401.3939393939394" type="curve" smooth="yes"/>
      <point x="194.06060606060606" y="-132.66666666666669" type="line" smooth="yes"/>
      <point x="194.06060606060606" y="-348.24242424242425"/>
      <point x="307.3939393939394" y="-460.0"/>
    </contour>
  </outline>
</glyph>
<glyph name="braceright" format="2">
  <advance width="636.4242424242424"/>
  <unicode hex="007D"/>
  <outline>
    <contour>
      <point x="107.57575757575758" y="-460.0" type="curve" smooth="yes"/>
      <point x="329.030303030303" y="-460.0"/>
      <point x="442.3636363636364" y="-348.24242424242425"/>
      <point x="442.3636363636364" y="-132.66666666666669" type="curve" smooth="yes"/>
      <point x="442.3636363636364" y="401.3939393939394" type="line" smooth="yes"/>
      <point x="442.3636363636364" y="498.969696969697"/>
      <point x="495.6969696969697" y="547.4545454545455"/>
      <point x="587.2121212121212" y="547.4545454545455" type="curve" smooth="yes"/>
      <point x="614.060606060606" y="547.4545454545455" type="line"/>
      <point x="614.060606060606" y="704.4242424242424" type="line"/>
      <point x="587.2121212121212" y="704.4242424242424" type="line" smooth="yes"/>
      <point x="495.6969696969697" y="704.4242424242424"/>
      <point x="442.3636363636364" y="752.9090909090909"/>
      <point x="442.3636363636364" y="850.4848484848485" type="curve" smooth="yes"/>
      <point x="442.3636363636364" y="1308.6666666666667" type="line" smooth="yes"/>
      <point x="442.3636363636364" y="1524.2424242424242"/>
      <point x="329.030303030303" y="1636.0"/>
      <point x="107.57575757575758" y="1636.0" type="curve" smooth="yes"/>
      <point x="53.33333333333333" y="1636.0"/>
      <point x="2.6060606060606055" y="1631.2121212121212"/>
      <point x="-36.06060606060606" y="1624.4242424242425" type="curve"/>
      <point x="-36.06060606060606" y="1475.4545454545455" type="line"/>
      <point x="83.21212121212122" y="1475.4545454545455" type="line" smooth="yes"/>
      <point x="194.4848484848485" y="1475.4545454545455"/>
      <point x="249.0909090909091" y="1424.0"/>
      <point x="249.0909090909091" y="1315.090909090909" type="curve" smooth="yes"/>
      <point x="249.0909090909091" y="862.3030303030303" type="line" smooth="yes"/>
      <point x="249.0909090909091" y="714.7878787878788"/>
      <point x="317.1515151515151" y="628.6060606060606"/>
      <point x="482.06060606060606" y="612.8484848484849" type="curve"/>
      <point x="482.06060606060606" y="639.030303030303" type="line"/>
      <point x="317.1515151515151" y="623.2727272727273"/>
      <point x="249.0909090909091" y="537.0909090909091"/>
      <point x="249.0909090909091" y="389.57575757575756" type="curve" smooth="yes"/>
      <point x="249.0909090909091" y="-139.0909090909091" type="line" smooth="yes"/>
      <point x="249.0909090909091" y="-248.0"/>
      <point x="194.4848484848485" y="-299.45454545454544"/>
      <point x="83.21212121212122" y="-299.45454545454544" type="curve" smooth="yes"/>
      <point x="-36.06060606060606" y="-299.45454545454544" type="line"/>
      <point x="-36.06060606060606" y="-448.42424242424244" type="line"/>
      <point x="2.6060606060606055" y="-455.2121212121212"/>
      <point x="53.33333333333333" y="-460.0"/>
    </contour>
  </outline>
</glyph>
<glyph name="asciitilde" format="2">
  <advance width="1023.8787878787879"/>
  <unicode hex="007E"/>
  <outline>
    <contour>
      <point x="693.3939393939394" y="620.6666666666666" type="curve" smooth="yes"/>
      <point x="782.4242424242424" y="620.6666666666666"/>
      <point x="853.2121212121212" y="651.8787878787879"/>
      <point x="905.8787878787879" y="715.3939393939394" type="curve"/>
      <point x="905.8787878787879" y="884.060606060606" type="line"/>
      <point x="842.4242424242424" y="809.6969696969697"/>
      <point x="776.060606060606" y="775.2727272727273"/>
      <point x="693.7575757575758" y="775.2727272727273" type="curve" smooth="yes"/>
      <point x="581.0909090909091" y="775.2727272727273"/>
      <point x="471.93939393939394" y="892.060606060606"/>
      <point x="330.4848484848485" y="892.060606060606" type="curve" smooth="yes"/>
      <point x="241.45454545454547" y="892.060606060606"/>
      <point x="170.66666666666666" y="860.8484848484849"/>
      <point x="118.0" y="797.3333333333334" type="curve"/>
      <point x="118.0" y="628.6666666666666" type="line"/>
      <point x="181.45454545454547" y="703.030303030303"/>
      <point x="247.8181818181818" y="737.4545454545455"/>
      <point x="330.1212121212121" y="737.4545454545455" type="curve" smooth="yes"/>
      <point x="442.7878787878788" y="737.4545454545455"/>
      <point x="551.939393939394" y="620.6666666666666"/>
    </contour>
  </outline>
</glyph>
<glyph name="exclamdown" format="2">
  <advance width="472.4848484848485"/>
  <unicode hex="00A1"/>
  <outline>
    <contour>
      <point x="176.0" y="682.060606060606" type="line"/>
      <point x="132.4848484848485" y="153.75757575757575" type="line"/>
      <point x="132.4848484848485" y="-380.0" type="line"/>
      <point x="340.0" y="-380.0" type="line"/>
      <point x="340.0" y="153.75757575757575" type="line"/>
      <point x="298.06060606060606" y="682.060606060606" type="line"/>
    </contour>
    <contour>
      <point x="236.24242424242425" y="1101.8181818181818" type="curve" smooth="yes"/>
      <point x="157.6969696969697" y="1101.8181818181818"/>
      <point x="101.75757575757575" y="1051.030303030303"/>
      <point x="101.75757575757575" y="968.9090909090909" type="curve" smooth="yes"/>
      <point x="101.75757575757575" y="886.7878787878788"/>
      <point x="156.12121212121212" y="834.7878787878788"/>
      <point x="236.24242424242425" y="834.7878787878788" type="curve" smooth="yes"/>
      <point x="316.3636363636364" y="834.7878787878788"/>
      <point x="370.72727272727275" y="888.3636363636364"/>
      <point x="370.72727272727275" y="968.9090909090909" type="curve" smooth="yes"/>
      <point x="370.72727272727275" y="1049.4545454545455"/>
      <point x="314.78787878787875" y="1101.8181818181818"/>
    </contour>
  </outline>
</glyph>
<glyph name="cent" format="2">
  <advance width="755.0909090909091"/>
  <unicode hex="00A2"/>
  <outline>
    <contour>
      <point x="506.6060606060606" y="-19.575757575757574" type="curve" smooth="yes"/>
      <point x="579.7575757575758" y="-19.575757575757574"/>
      <point x="656.8484848484849" y="-7.575757575757576"/>
      <point x="733.2727272727273" y="18.848484848484848" type="curve"/>
      <point x="733.2727272727273" y="182.96969696969697" type="line"/>
      <point x="660.3030303030303" y="157.6969696969697"/>
      <point x="599.3939393939394" y="146.4848484848485"/>
      <point x="546.1212121212121" y="146.4848484848485" type="curve" smooth="yes"/>
      <point x="364.1212121212121" y="146.4848484848485"/>
      <point x="271.09090909090907" y="239.2121212121212"/>
      <point x="271.09090909090907" y="547.939393939394" type="curve" smooth="yes"/>
      <point x="271.09090909090907" y="846.3636363636364"/>
      <point x="370.1818181818182" y="938.6060606060606"/>
      <point x="577.3939393939394" y="938.6060606060606" type="curve" smooth="yes"/>
      <point x="620.6060606060606" y="938.6060606060606"/>
      <point x="677.5151515151515" y="933.3939393939394"/>
      <point x="733.2727272727273" y="920.1212121212121" type="curve"/>
      <point x="733.2727272727273" y="1084.2424242424242" type="line"/>
      <point x="672.9090909090909" y="1098.6666666666667"/>
      <point x="609.3333333333334" y="1104.6666666666667"/>
      <point x="549.8787878787879" y="1104.6666666666667" type="curve" smooth="yes"/>
      <point x="246.24242424242425" y="1104.6666666666667"/>
      <point x="69.0909090909091" y="953.2121212121212"/>
      <point x="69.0909090909091" y="543.1515151515151" type="curve" smooth="yes"/>
      <point x="69.0909090909091" y="138.6060606060606"/>
      <point x="226.36363636363637" y="-19.575757575757574"/>
    </contour>
    <contour>
      <point x="411.57575757575756" y="-240.0" type="line"/>
      <point x="576.4242424242424" y="-240.0" type="line"/>
      <point x="576.4242424242424" y="23.636363636363637" type="line"/>
      <point x="411.57575757575756" y="23.636363636363637" type="line"/>
    </contour>
    <contour>
      <point x="411.57575757575756" y="1064.2424242424242" type="line"/>
      <point x="576.4242424242424" y="1064.2424242424242" type="line"/>
      <point x="576.4242424242424" y="1327.878787878788" type="line"/>
      <point x="411.57575757575756" y="1327.878787878788" type="line"/>
    </contour>
  </outline>
</glyph>
<glyph name="currency" format="2">
  <advance width="1078.7878787878788"/>
  <unicode hex="00A4"/>
  <outline>
    <contour>
      <point x="315.3939393939394" y="884.8484848484849" type="line"/>
      <point x="394.54545454545456" y="962.7878787878788" type="line"/>
      <point x="265.6969696969697" y="1121.2121212121212" type="line"/>
      <point x="169.6969696969697" y="1220.4242424242425" type="line"/>
      <point x="57.75757575757576" y="1108.4848484848485" type="line"/>
      <point x="158.1818181818182" y="1012.4848484848485" type="line"/>
    </contour>
    <contour>
      <point x="763.3939393939394" y="884.8484848484849" type="line"/>
      <point x="920.6060606060606" y="1012.4848484848485" type="line"/>
      <point x="1021.030303030303" y="1108.4848484848485" type="line"/>
      <point x="909.0909090909091" y="1220.4242424242425" type="line"/>
      <point x="813.0909090909091" y="1121.2121212121212" type="line"/>
      <point x="684.2424242424242" y="962.7878787878788" type="line"/>
    </contour>
    <contour>
      <point x="907.8787878787879" y="259.57575757575756" type="line"/>
      <point x="1019.8181818181818" y="371.5151515151515" type="line"/>
      <point x="920.6060606060606" y="467.5151515151515" type="line"/>
      <point x="769.4545454545455" y="589.0909090909091" type="line"/>
      <point x="690.3030303030303" y="508.72727272727275" type="line"/>
      <point x="811.8787878787879" y="358.7878787878788" type="line"/>
    </contour>
    <contour>
      <point x="170.9090909090909" y="259.57575757575756" type="line"/>
      <point x="266.9090909090909" y="358.7878787878788" type="line"/>
      <point x="388.4848484848485" y="508.72727272727275" type="line"/>
      <point x="309.3333333333333" y="589.0909090909091" type="line"/>
      <point x="158.1818181818182" y="467.5151515151515" type="line"/>
      <point x="58.96969696969697" y="371.5151515151515" type="line"/>
    </contour>
    <contour>
      <point x="539.3939393939394" y="391.1515151515151" type="curve" smooth="yes"/>
      <point x="737.5757575757576" y="391.1515151515151"/>
      <point x="879.6969696969697" y="530.6060606060606"/>
      <point x="879.6969696969697" y="740.0" type="curve" smooth="yes"/>
      <point x="879.6969696969697" y="947.3939393939394"/>
      <point x="737.5757575757576" y="1086.8484848484848"/>
      <point x="539.3939393939394" y="1086.8484848484848" type="curve" smooth="yes"/>
      <point x="340.0" y="1086.8484848484848"/>
      <point x="199.0909090909091" y="947.3939393939394"/>
      <point x="199.0909090909091" y="740.0" type="curve" smooth="yes"/>
      <point x="199.0909090909091" y="530.6060606060606"/>
      <point x="340.0" y="391.1515151515151"/>
    </contour>
    <contour>
      <point x="539.3939393939394" y="516.969696969697" type="curve" smooth="yes"/>
      <point x="417.8181818181818" y="516.969696969697"/>
      <point x="332.0" y="600.0"/>
      <point x="332.0" y="740.0" type="curve" smooth="yes"/>
      <point x="332.0" y="880.0"/>
      <point x="417.8181818181818" y="963.030303030303"/>
      <point x="541.3939393939394" y="963.030303030303" type="curve" smooth="yes"/>
      <point x="671.030303030303" y="963.030303030303"/>
      <point x="746.7878787878788" y="869.5757575757576"/>
      <point x="746.7878787878788" y="740.0" type="curve" smooth="yes"/>
      <point x="746.7878787878788" y="598.7878787878788"/>
      <point x="660.969696969697" y="516.969696969697"/>
    </contour>
  </outline>
</glyph>
<glyph name="yen" format="2">
  <advance width="1095.090909090909"/>
  <unicode hex="00A5"/>
  <outline>
    <contour>
      <point x="450.1212121212121" y="0.0" type="line"/>
      <point x="645.7575757575758" y="0.0" type="line"/>
      <point x="645.7575757575758" y="732.4242424242424" type="line"/>
      <point x="604.5454545454545" y="576.3636363636364" type="line"/>
      <point x="1115.030303030303" y="1480.0" type="line"/>
      <point x="920.8484848484849" y="1480.0" type="line"/>
      <point x="524.4848484848485" y="781.5151515151515" type="line"/>
      <point x="580.8484848484849" y="781.5151515151515" type="line"/>
      <point x="186.4848484848485" y="1480.0" type="line"/>
      <point x="-22.303030303030305" y="1480.0" type="line"/>
      <point x="491.3333333333333" y="576.3636363636364" type="line"/>
      <point x="450.1212121212121" y="734.7878787878788" type="line"/>
    </contour>
    <contour>
      <point x="154.06060606060606" y="293.2121212121212" type="line"/>
      <point x="941.8181818181818" y="293.2121212121212" type="line"/>
      <point x="941.8181818181818" y="424.1818181818182" type="line"/>
      <point x="154.06060606060606" y="424.1818181818182" type="line"/>
    </contour>
    <contour>
      <point x="154.06060606060606" y="623.8181818181819" type="line"/>
      <point x="941.8181818181818" y="623.8181818181819" type="line"/>
      <point x="941.8181818181818" y="754.7878787878788" type="line"/>
      <point x="154.06060606060606" y="754.7878787878788" type="line"/>
    </contour>
  </outline>
</glyph>
<glyph name="brokenbar" format="2">
  <advance width="443.27272727272725"/>
  <unicode hex="00A6"/>
  <outline>
    <contour>
      <point x="134.06060606060606" y="836.0" type="line"/>
      <point x="309.2121212121212" y="836.0" type="line"/>
      <point x="309.2121212121212" y="1616.0" type="line"/>
      <point x="134.06060606060606" y="1616.0" type="line"/>
    </contour>
    <contour>
      <point x="134.06060606060606" y="-440.0" type="line"/>
      <point x="309.2121212121212" y="-440.0" type="line"/>
      <point x="309.2121212121212" y="340.0" type="line"/>
      <point x="134.06060606060606" y="340.0" type="line"/>
    </contour>
  </outline>
</glyph>
<glyph name="section" format="2">
  <advance width="880.6060606060606"/>
  <unicode hex="00A7"/>
  <outline>
    <contour>
      <point x="372.8484848484849" y="-19.575757575757574" type="curve" smooth="yes"/>
      <point x="620.3636363636364" y="-19.575757575757574"/>
      <point x="766.4242424242424" y="103.03030303030303"/>
      <point x="766.4242424242424" y="302.42424242424244" type="curve" smooth="yes"/>
      <point x="766.4242424242424" y="449.5151515151515"/>
      <point x="696.6666666666666" y="539.2121212121212"/>
      <point x="518.060606060606" y="586.9090909090909" type="curve" smooth="yes"/>
      <point x="385.09090909090907" y="620.7878787878788" type="line" smooth="yes"/>
      <point x="290.3030303030303" y="646.9090909090909"/>
      <point x="247.63636363636363" y="697.1515151515151"/>
      <point x="247.63636363636363" y="784.7878787878788" type="curve" smooth="yes"/>
      <point x="247.63636363636363" y="848.1212121212121"/>
      <point x="276.1212121212121" y="898.7272727272727"/>
      <point x="330.6666666666667" y="942.6666666666666" type="curve"/>
      <point x="218.42424242424244" y="1021.3333333333334" type="line"/>
      <point x="138.96969696969697" y="965.3939393939394"/>
      <point x="86.30303030303031" y="882.2424242424242"/>
      <point x="86.30303030303031" y="776.8484848484849" type="curve" smooth="yes"/>
      <point x="86.30303030303031" y="618.3636363636364"/>
      <point x="162.06060606060606" y="525.1515151515151"/>
      <point x="325.5151515151515" y="481.45454545454544" type="curve" smooth="yes"/>
      <point x="458.4848484848485" y="446.7878787878788" type="line" smooth="yes"/>
      <point x="542.6060606060606" y="423.030303030303"/>
      <point x="586.9090909090909" y="383.1515151515151"/>
      <point x="586.9090909090909" y="292.9090909090909" type="curve" smooth="yes"/>
      <point x="586.9090909090909" y="190.24242424242425"/>
      <point x="517.2727272727273" y="131.5151515151515"/>
      <point x="371.27272727272725" y="131.5151515151515" type="curve" smooth="yes"/>
      <point x="289.45454545454544" y="131.5151515151515"/>
      <point x="207.27272727272728" y="144.3030303030303"/>
      <point x="120.06060606060606" y="170.72727272727272" type="curve"/>
      <point x="120.06060606060606" y="18.424242424242426" type="line"/>
      <point x="200.3030303030303" y="-6.363636363636363"/>
      <point x="286.54545454545456" y="-19.575757575757574"/>
    </contour>
    <contour>
      <point x="657.0909090909091" y="452.72727272727275" type="line"/>
      <point x="739.6969696969697" y="508.24242424242425"/>
      <point x="794.3030303030303" y="591.7575757575758"/>
      <point x="794.3030303030303" y="706.3636363636364" type="curve" smooth="yes"/>
      <point x="794.3030303030303" y="866.8484848484849"/>
      <point x="724.5454545454545" y="960.1212121212121"/>
      <point x="552.2424242424242" y="1006.2424242424242" type="curve" smooth="yes"/>
      <point x="419.27272727272725" y="1040.121212121212" type="line" smooth="yes"/>
      <point x="333.93939393939394" y="1063.878787878788"/>
      <point x="293.6969696969697" y="1106.6060606060605"/>
      <point x="293.6969696969697" y="1186.3636363636363" type="curve" smooth="yes"/>
      <point x="293.6969696969697" y="1272.909090909091"/>
      <point x="357.6363636363636" y="1345.6969696969697"/>
      <point x="526.6666666666666" y="1345.6969696969697" type="curve" smooth="yes"/>
      <point x="597.030303030303" y="1345.6969696969697"/>
      <point x="658.9090909090909" y="1339.6969696969697"/>
      <point x="731.6969696969697" y="1322.4848484848485" type="curve"/>
      <point x="731.6969696969697" y="1474.7878787878788" type="line"/>
      <point x="666.1818181818181" y="1488.7878787878788"/>
      <point x="595.939393939394" y="1496.7878787878788"/>
      <point x="515.6363636363636" y="1496.7878787878788" type="curve" smooth="yes"/>
      <point x="251.15151515151516" y="1496.7878787878788"/>
      <point x="114.18181818181819" y="1364.909090909091"/>
      <point x="114.18181818181819" y="1176.8484848484848" type="curve" smooth="yes"/>
      <point x="114.18181818181819" y="1035.6969696969697"/>
      <point x="189.15151515151516" y="944.4848484848485"/>
      <point x="359.6969696969697" y="900.0" type="curve" smooth="yes"/>
      <point x="492.6666666666667" y="866.1212121212121" type="line" smooth="yes"/>
      <point x="586.2424242424242" y="840.0"/>
      <point x="632.969696969697" y="792.6060606060606"/>
      <point x="632.969696969697" y="698.4242424242424" type="curve" smooth="yes"/>
      <point x="632.969696969697" y="634.5454545454545"/>
      <point x="606.8484848484849" y="587.1515151515151"/>
      <point x="545.6969696969697" y="542.060606060606" type="curve"/>
    </contour>
  </outline>
</glyph>
<glyph name="dieresis" format="2">
  <advance width="957.5757575757575"/>
  <unicode hex="00A8"/>
  <anchor x="478.78787878787875" y="1200.0" name="_top"/>
  <anchor x="478.78787878787875" y="1579.6363636363637" name="top"/>
  <outline>
    <contour>
      <point x="671.0909090909091" y="1304.8484848484848" type="curve" smooth="yes"/>
      <point x="741.7575757575758" y="1304.8484848484848"/>
      <point x="789.030303030303" y="1348.5454545454545"/>
      <point x="789.030303030303" y="1420.4242424242425" type="curve" smooth="yes"/>
      <point x="789.030303030303" y="1492.3030303030303"/>
      <point x="741.7575757575758" y="1537.2121212121212"/>
      <point x="671.0909090909091" y="1537.2121212121212" type="curve" smooth="yes"/>
      <point x="600.4242424242424" y="1537.2121212121212"/>
      <point x="553.1515151515151" y="1492.3030303030303"/>
      <point x="553.1515151515151" y="1420.4242424242425" type="curve" smooth="yes"/>
      <point x="553.1515151515151" y="1348.5454545454545"/>
      <point x="600.4242424242424" y="1304.8484848484848"/>
    </contour>
    <contour>
      <point x="286.4848484848485" y="1304.8484848484848" type="curve" smooth="yes"/>
      <point x="357.1515151515151" y="1304.8484848484848"/>
      <point x="404.42424242424244" y="1348.5454545454545"/>
      <point x="404.42424242424244" y="1420.4242424242425" type="curve" smooth="yes"/>
      <point x="404.42424242424244" y="1492.3030303030303"/>
      <point x="357.1515151515151" y="1537.2121212121212"/>
      <point x="286.4848484848485" y="1537.2121212121212" type="curve" smooth="yes"/>
      <point x="215.8181818181818" y="1537.2121212121212"/>
      <point x="168.54545454545456" y="1492.3030303030303"/>
      <point x="168.54545454545456" y="1420.4242424242425" type="curve" smooth="yes"/>
      <point x="168.54545454545456" y="1348.5454545454545"/>
      <point x="215.8181818181818" y="1304.8484848484848"/>
    </contour>
  </outline>
</glyph>
<glyph name="copyright" format="2">
  <advance width="1654.060606060606"/>
  <unicode hex="00A9"/>
  <outline>
    <contour>
      <point x="827.030303030303" y="-22.0" type="curve" smooth="yes"/>
      <point x="1275.3939393939395" y="-22.0"/>
      <point x="1573.3939393939395" y="282.0"/>
      <point x="1573.3939393939395" y="740.0" type="curve" smooth="yes"/>
      <point x="1573.3939393939395" y="1198.0"/>
      <point x="1275.3939393939395" y="1502.0"/>
      <point x="827.030303030303" y="1502.0" type="curve" smooth="yes"/>
      <point x="378.6666666666667" y="1502.0"/>
      <point x="80.66666666666667" y="1198.0"/>
      <point x="80.66666666666667" y="740.0" type="curve" smooth="yes"/>
      <point x="80.66666666666667" y="282.0"/>
      <point x="378.6666666666667" y="-22.0"/>
    </contour>
    <contour>
      <point x="875.2121212121212" y="324.0" type="curve" smooth="yes"/>
      <point x="954.7878787878788" y="324.0"/>
      <point x="1026.7878787878788" y="336.0"/>
      <point x="1087.6969696969697" y="361.27272727272725" type="curve"/>
      <point x="1087.6969696969697" y="499.75757575757575" type="line"/>
      <point x="1007.2727272727273" y="473.27272727272725"/>
      <point x="947.0909090909091" y="464.8484848484849"/>
      <point x="889.8787878787879" y="464.8484848484849" type="curve" smooth="yes"/>
      <point x="726.969696969697" y="464.8484848484849"/>
      <point x="628.6060606060606" y="552.7878787878788"/>
      <point x="628.6060606060606" y="735.6363636363636" type="curve" smooth="yes"/>
      <point x="628.6060606060606" y="915.6363636363636"/>
      <point x="724.6060606060606" y="1003.1515151515151"/>
      <point x="907.939393939394" y="1003.1515151515151" type="curve" smooth="yes"/>
      <point x="972.4242424242424" y="1003.1515151515151"/>
      <point x="1026.4848484848485" y="994.7272727272727"/>
      <point x="1087.6969696969697" y="979.8787878787879" type="curve"/>
      <point x="1087.6969696969697" y="1118.3636363636363" type="line"/>
      <point x="1026.8484848484848" y="1136.0"/>
      <point x="966.060606060606" y="1144.0"/>
      <point x="895.6969696969697" y="1144.0" type="curve" smooth="yes"/>
      <point x="625.3939393939394" y="1144.0"/>
      <point x="466.7878787878788" y="994.4242424242424"/>
      <point x="466.7878787878788" y="733.2121212121212" type="curve" smooth="yes"/>
      <point x="466.7878787878788" y="466.72727272727275"/>
      <point x="628.6666666666666" y="324.0"/>
    </contour>
    <contour>
      <point x="827.030303030303" y="102.72727272727272" type="curve" smooth="yes"/>
      <point x="447.8181818181818" y="102.72727272727272"/>
      <point x="209.33333333333331" y="352.72727272727275"/>
      <point x="209.33333333333331" y="740.0" type="curve" smooth="yes"/>
      <point x="209.33333333333331" y="1127.2727272727273"/>
      <point x="447.8181818181818" y="1377.2727272727273"/>
      <point x="827.030303030303" y="1377.2727272727273" type="curve" smooth="yes"/>
      <point x="1206.2424242424242" y="1377.2727272727273"/>
      <point x="1444.7272727272727" y="1127.2727272727273"/>
      <point x="1444.7272727272727" y="740.0" type="curve" smooth="yes"/>
      <point x="1444.7272727272727" y="352.72727272727275"/>
      <point x="1206.2424242424242" y="102.72727272727272"/>
    </contour>
  </outline>
</glyph>
<glyph name="ordfeminine" format="2">
  <advance width="764.060606060606"/>
  <unicode hex="00AA"/>
  <outline>
    <contour>
      <point x="289.030303030303" y="594.4242424242424" type="curve" smooth="yes"/>
      <point x="378.72727272727275" y="594.4242424242424"/>
      <point x="458.0" y="627.6969696969697"/>
      <point x="506.1212121212121" y="704.060606060606" type="curve"/>
      <point x="516.060606060606" y="704.060606060606" type="line"/>
      <point x="529.939393939394" y="610.0" type="line"/>
      <point x="678.1212121212121" y="610.0" type="line"/>
      <point x="678.1212121212121" y="1171.3939393939395" type="line" smooth="yes"/>
      <point x="678.1212121212121" y="1412.5454545454545"/>
      <point x="569.0909090909091" y="1495.939393939394"/>
      <point x="342.54545454545456" y="1495.939393939394" type="curve" smooth="yes"/>
      <point x="263.5151515151515" y="1495.939393939394"/>
      <point x="170.84848484848484" y="1482.7272727272727"/>
      <point x="99.39393939393939" y="1460.3030303030303" type="curve"/>
      <point x="99.39393939393939" y="1313.5757575757575" type="line"/>
      <point x="171.45454545454547" y="1336.4242424242425"/>
      <point x="245.45454545454547" y="1348.8484848484848"/>
      <point x="308.6060606060606" y="1348.8484848484848" type="curve" smooth="yes"/>
      <point x="443.93939393939394" y="1348.8484848484848"/>
      <point x="500.6666666666667" y="1307.939393939394"/>
      <point x="500.6666666666667" y="1186.4242424242425" type="curve" smooth="yes"/>
      <point x="500.6666666666667" y="812.4848484848485" type="line"/>
      <point x="459.5151515151515" y="751.0909090909091"/>
      <point x="401.030303030303" y="730.4848484848485"/>
      <point x="352.6060606060606" y="730.4848484848485" type="curve" smooth="yes"/>
      <point x="269.6969696969697" y="730.4848484848485"/>
      <point x="218.66666666666666" y="772.7272727272727"/>
      <point x="218.66666666666666" y="863.939393939394" type="curve" smooth="yes"/>
      <point x="218.66666666666666" y="947.1515151515151"/>
      <point x="268.9090909090909" y="991.3939393939394"/>
      <point x="377.09090909090907" y="1000.6666666666666" type="curve" smooth="yes"/>
      <point x="558.7878787878788" y="1016.0" type="line"/>
      <point x="533.4545454545455" y="1123.2727272727273" type="line"/>
      <point x="358.1818181818182" y="1107.1515151515152" type="line" smooth="yes"/>
      <point x="134.24242424242425" y="1090.3030303030303"/>
      <point x="41.93939393939394" y="1000.3636363636364"/>
      <point x="41.93939393939394" y="838.6060606060606" type="curve" smooth="yes"/>
      <point x="41.93939393939394" y="690.6666666666666"/>
      <point x="143.0909090909091" y="594.4242424242424"/>
    </contour>
  </outline>
</glyph>
<glyph name="guillemetleft" format="2">
  <advance width="893.5151515151515"/>
  <unicode hex="00AB"/>
  <outline>
    <contour>
      <point x="282.24242424242425" y="136.06060606060606" type="line"/>
      <point x="473.1515151515151" y="136.06060606060606" type="line"/>
      <point x="281.2121212121212" y="563.939393939394" type="line"/>
      <point x="473.1515151515151" y="991.8181818181819" type="line"/>
      <point x="282.24242424242425" y="991.8181818181819" type="line"/>
      <point x="90.30303030303031" y="563.939393939394" type="line"/>
    </contour>
    <contour>
      <point x="652.3030303030303" y="136.06060606060606" type="line"/>
      <point x="843.2121212121212" y="136.06060606060606" type="line"/>
      <point x="651.2727272727273" y="563.939393939394" type="line"/>
      <point x="843.2121212121212" y="991.8181818181819" type="line"/>
      <point x="652.3030303030303" y="991.8181818181819" type="line"/>
      <point x="460.3636363636364" y="563.939393939394" type="line"/>
    </contour>
  </outline>
</glyph>
<glyph name="logicalnot" format="2">
  <advance width="1240.0"/>
  <unicode hex="00AC"/>
  <outline>
    <contour>
      <point x="965.5151515151515" y="191.21212121212122" type="line"/>
      <point x="1129.6363636363637" y="191.21212121212122" type="line"/>
      <point x="1129.6363636363637" y="838.4848484848485" type="line"/>
      <point x="118.0" y="838.4848484848485" type="line"/>
      <point x="118.0" y="681.5151515151515" type="line"/>
      <point x="965.5151515151515" y="681.5151515151515" type="line"/>
    </contour>
  </outline>
</glyph>
<glyph name="softhyphen" format="2">
  <advance width="709.8787878787879"/>
  <unicode hex="00AD"/>
  <outline>
    <contour>
      <point x="118.0" y="483.0909090909091" type="line"/>
      <point x="591.8787878787879" y="483.0909090909091" type="line"/>
      <point x="591.8787878787879" y="644.7878787878788" type="line"/>
      <point x="118.0" y="644.7878787878788" type="line"/>
    </contour>
  </outline>
</glyph>
<glyph name="registered" format="2">
  <advance width="1436.0"/>
  <unicode hex="00AE"/>
  <outline>
    <contour>
      <point x="718.0" y="268.0" type="curve" smooth="yes"/>
      <point x="1080.0" y="268.0"/>
      <point x="1328.0" y="518.0"/>
      <point x="1328.0" y="882.0" type="curve" smooth="yes"/>
      <point x="1328.0" y="1246.0"/>
      <point x="1080.0" y="1498.0"/>
      <point x="718.0" y="1498.0" type="curve" smooth="yes"/>
      <point x="356.0" y="1498.0"/>
      <point x="108.0" y="1246.0"/>
      <point x="108.0" y="882.0" type="curve" smooth="yes"/>
      <point x="108.0" y="518.0"/>
      <point x="356.0" y="268.0"/>
    </contour>
    <contour>
      <point x="867.6363636363636" y="600.0" type="line"/>
      <point x="985.3939393939394" y="600.0" type="line"/>
      <point x="818.8484848484849" y="844.2424242424242" type="line"/>
      <point x="717.8787878787879" y="818.2424242424242" type="line"/>
    </contour>
    <contour>
      <point x="718.0" y="369.45454545454544" type="curve" smooth="yes"/>
      <point x="413.6363636363636" y="369.45454545454544"/>
      <point x="215.3939393939394" y="571.2727272727273"/>
      <point x="215.3939393939394" y="882.0" type="curve" smooth="yes"/>
      <point x="215.3939393939394" y="1193.5151515151515"/>
      <point x="413.6363636363636" y="1396.5454545454545"/>
      <point x="718.0" y="1396.5454545454545" type="curve" smooth="yes"/>
      <point x="1022.3636363636364" y="1396.5454545454545"/>
      <point x="1220.6060606060605" y="1193.5151515151515"/>
      <point x="1220.6060606060605" y="882.0" type="curve" smooth="yes"/>
      <point x="1220.6060606060605" y="571.2727272727273"/>
      <point x="1022.3636363636364" y="369.45454545454544"/>
    </contour>
    <contour>
      <point x="504.4848484848485" y="600.0" type="line"/>
      <point x="609.8787878787879" y="600.0" type="line"/>
      <point x="612.2424242424242" y="810.2424242424242" type="line"/>
      <point x="706.3636363636364" y="810.2424242424242" type="line" smooth="yes"/>
      <point x="875.4545454545455" y="810.2424242424242"/>
      <point x="958.2424242424242" y="875.4545454545455"/>
      <point x="958.2424242424242" y="1000.1212121212121" type="curve" smooth="yes"/>
      <point x="958.2424242424242" y="1124.7878787878788"/>
      <point x="873.4545454545455" y="1192.0"/>
      <point x="706.3636363636364" y="1192.0" type="curve" smooth="yes"/>
      <point x="504.4848484848485" y="1192.0" type="line"/>
    </contour>
    <contour>
      <point x="612.2424242424242" y="899.8181818181819" type="line"/>
      <point x="612.2424242424242" y="1102.4242424242425" type="line"/>
      <point x="723.8787878787879" y="1102.4242424242425" type="line" smooth="yes"/>
      <point x="810.6666666666666" y="1102.4242424242425"/>
      <point x="854.4242424242424" y="1068.7272727272727"/>
      <point x="854.4242424242424" y="1000.1212121212121" type="curve" smooth="yes"/>
      <point x="854.4242424242424" y="931.5151515151515"/>
      <point x="812.6666666666666" y="899.8181818181819"/>
      <point x="723.8787878787879" y="899.8181818181819" type="curve" smooth="yes"/>
    </contour>
  </outline>
</glyph>
<glyph name="macron" format="2">
  <advance width="957.5757575757575"/>
  <unicode hex="00AF"/>
  <anchor x="478.78787878787875" y="1200.0" name="_top"/>
  <anchor x="478.78787878787875" y="1579.6363636363637" name="top"/>
  <outline>
    <contour>
      <point x="187.03030303030303" y="1355.3939393939395" type="line"/>
      <point x="770.5454545454545" y="1355.3939393939395" type="line"/>
      <point x="770.5454545454545" y="1487.4545454545455" type="line"/>
      <point x="187.03030303030303" y="1487.4545454545455" type="line"/>
    </contour>
  </outline>
</glyph>
<glyph name="degree" format="2">
  <advance width="910.4242424242424"/>
  <unicode hex="00B0"/>
  <outline>
    <contour>
      <point x="455.2121212121212" y="808.6666666666666" type="curve" smooth="yes"/>
      <point x="656.6060606060606" y="808.6666666666666"/>
      <point x="802.4242424242424" y="954.1212121212121"/>
      <point x="802.4242424242424" y="1153.5151515151515" type="curve" smooth="yes"/>
      <point x="802.4242424242424" y="1352.909090909091"/>
      <point x="656.6060606060606" y="1497.5757575757575"/>
      <point x="455.2121212121212" y="1497.5757575757575" type="curve" smooth="yes"/>
      <point x="253.8181818181818" y="1497.5757575757575"/>
      <point x="108.0" y="1352.909090909091"/>
      <point x="108.0" y="1153.5151515151515" type="curve" smooth="yes"/>
      <point x="108.0" y="954.1212121212121"/>
      <point x="253.8181818181818" y="808.6666666666666"/>
    </contour>
    <contour>
      <point x="455.2121212121212" y="936.4848484848485" type="curve" smooth="yes"/>
      <point x="333.2121212121212" y="936.4848484848485"/>
      <point x="244.54545454545456" y="1019.939393939394"/>
      <point x="244.54545454545456" y="1153.5151515151515" type="curve" smooth="yes"/>
      <point x="244.54545454545456" y="1287.090909090909"/>
      <point x="334.0" y="1369.7575757575758"/>
      <point x="455.2121212121212" y="1369.7575757575758" type="curve" smooth="yes"/>
      <point x="576.4242424242424" y="1369.7575757575758"/>
      <point x="665.8787878787879" y="1287.090909090909"/>
      <point x="665.8787878787879" y="1153.5151515151515" type="curve" smooth="yes"/>
      <point x="665.8787878787879" y="1019.939393939394"/>
      <point x="577.2121212121212" y="936.4848484848485"/>
    </contour>
  </outline>
</glyph>
<glyph name="plusminus" format="2">
  <advance width="1023.8787878787879"/>
  <unicode hex="00B1"/>
  <outline>
    <contour>
      <point x="429.8787878787879" y="343.57575757575756" type="line"/>
      <point x="594.0" y="343.57575757575756" type="line"/>
      <point x="594.0" y="670.7272727272727" type="line"/>
      <point x="905.8787878787879" y="670.7272727272727" type="line"/>
      <point x="905.8787878787879" y="827.6969696969697" type="line"/>
      <point x="594.0" y="827.6969696969697" type="line"/>
      <point x="594.0" y="1154.8484848484848" type="line"/>
      <point x="429.8787878787879" y="1154.8484848484848" type="line"/>
      <point x="429.8787878787879" y="827.6969696969697" type="line"/>
      <point x="118.0" y="827.6969696969697" type="line"/>
      <point x="118.0" y="670.7272727272727" type="line"/>
      <point x="429.8787878787879" y="670.7272727272727" type="line"/>
    </contour>
    <contour>
      <point x="118.0" y="0.7878787878787878" type="line"/>
      <point x="905.8787878787879" y="0.7878787878787878" type="line"/>
      <point x="905.8787878787879" y="157.75757575757575" type="line"/>
      <point x="118.0" y="157.75757575757575" type="line"/>
    </contour>
  </outline>
</glyph>
<glyph name="twosuperior" format="2">
  <advance width="735.1515151515151"/>
  <unicode hex="00B2"/>
  <outline>
    <contour>
      <point x="88.84848484848484" y="-136.0" type="line"/>
      <point x="638.9090909090909" y="-136.0" type="line"/>
      <point x="638.9090909090909" y="2.424242424242422" type="line"/>
      <point x="256.3636363636364" y="2.424242424242422" type="line"/>
      <point x="268.78787878787875" y="-37.27272727272727" type="line"/>
      <point x="475.3333333333333" y="270.1818181818182" type="line" smooth="yes"/>
      <point x="568.969696969697" y="407.57575757575756"/>
      <point x="605.3939393939394" y="503.1515151515151"/>
      <point x="606.6060606060606" y="601.5757575757576" type="curve" smooth="yes"/>
      <point x="607.8181818181818" y="798.4848484848485"/>
      <point x="483.6969696969697" y="876.7878787878788"/>
      <point x="286.1818181818182" y="876.7878787878788" type="curve" smooth="yes"/>
      <point x="211.03030303030303" y="876.7878787878788"/>
      <point x="130.0" y="864.0"/>
      <point x="76.06060606060606" y="841.5757575757576" type="curve"/>
      <point x="76.06060606060606" y="707.4545454545455" type="line"/>
      <point x="132.4848484848485" y="731.0909090909091"/>
      <point x="196.78787878787878" y="743.0909090909091"/>
      <point x="263.27272727272725" y="743.0909090909091" type="curve" smooth="yes"/>
      <point x="388.1818181818182" y="743.0909090909091"/>
      <point x="448.42424242424244" y="698.6060606060606"/>
      <point x="448.42424242424244" y="590.1212121212121" type="curve" smooth="yes"/>
      <point x="448.42424242424244" y="514.3030303030303"/>
      <point x="413.57575757575756" y="436.1818181818182"/>
      <point x="334.3030303030303" y="318.3636363636364" type="curve" smooth="yes"/>
      <point x="88.84848484848484" y="-47.151515151515156" type="line"/>
    </contour>
  </outline>
</glyph>
<glyph name="acute" format="2">
  <advance width="957.5757575757575"/>
  <unicode hex="00B4"/>
  <anchor x="478.78787878787875" y="1200.0" name="_top"/>
  <anchor x="478.78787878787875" y="1595.3939393939395" name="top"/>
  <outline>
    <contour>
      <point x="395.6363636363636" y="1246.6666666666667" type="line"/>
      <point x="561.939393939394" y="1246.6666666666667" type="line"/>
      <point x="763.7575757575758" y="1616.0" type="line"/>
      <point x="567.2727272727273" y="1616.0" type="line"/>
    </contour>
  </outline>
</glyph>
<glyph name="micro" format="2">
  <advance width="986.969696969697"/>
  <unicode hex="00B5"/>
  <outline>
    <contour>
      <point x="444.72727272727275" y="-18.78787878787879" type="curve" smooth="yes"/>
      <point x="533.7575757575758" y="-18.78787878787879"/>
      <point x="616.9090909090909" y="25.21212121212121"/>
      <point x="680.7272727272727" y="116.84848484848484" type="curve"/>
      <point x="691.8787878787879" y="116.84848484848484" type="line"/>
      <point x="706.5454545454545" y="0.0" type="line"/>
      <point x="868.969696969697" y="0.0" type="line"/>
      <point x="868.969696969697" y="1087.878787878788" type="line"/>
      <point x="675.6969696969697" y="1087.878787878788" type="line"/>
      <point x="675.6969696969697" y="279.57575757575756" type="line"/>
      <point x="623.3939393939394" y="188.9090909090909"/>
      <point x="527.6363636363636" y="155.93939393939394"/>
      <point x="462.4848484848485" y="155.93939393939394" type="curve" smooth="yes"/>
      <point x="369.57575757575756" y="155.93939393939394"/>
      <point x="303.6363636363636" y="202.96969696969697"/>
      <point x="303.6363636363636" y="350.4848484848485" type="curve" smooth="yes"/>
      <point x="303.6363636363636" y="554.5454545454545" type="line"/>
      <point x="213.0909090909091" y="554.5454545454545" type="line"/>
      <point x="213.0909090909091" y="338.72727272727275" type="line" smooth="yes"/>
      <point x="213.0909090909091" y="69.81818181818181"/>
      <point x="307.2121212121212" y="-18.78787878787879"/>
    </contour>
    <contour>
      <point x="110.36363636363636" y="-440.0" type="line"/>
      <point x="303.6363636363636" y="-440.0" type="line"/>
      <point x="303.6363636363636" y="1087.878787878788" type="line"/>
      <point x="110.36363636363636" y="1087.878787878788" type="line"/>
    </contour>
  </outline>
</glyph>
<glyph name="paragraph" format="2">
  <advance width="1118.6060606060605"/>
  <unicode hex="00B6"/>
  <outline>
    <contour>
      <point x="568.8484848484849" y="0.0" type="line"/>
      <point x="715.6363636363636" y="0.0" type="line"/>
      <point x="715.6363636363636" y="1480.0" type="line"/>
      <point x="649.6363636363636" y="1489.5757575757575"/>
      <point x="568.969696969697" y="1496.3636363636363"/>
      <point x="488.6060606060606" y="1496.3636363636363" type="curve" smooth="yes"/>
      <point x="205.45454545454547" y="1496.3636363636363"/>
      <point x="73.87878787878788" y="1336.060606060606"/>
      <point x="73.87878787878788" y="981.1515151515151" type="curve" smooth="yes"/>
      <point x="73.87878787878788" y="645.8181818181819"/>
      <point x="205.45454545454547" y="469.1515151515151"/>
      <point x="474.90909090909093" y="469.1515151515151" type="curve" smooth="yes"/>
      <point x="509.8181818181818" y="469.1515151515151"/>
      <point x="534.7272727272727" y="470.3636363636364"/>
      <point x="568.8484848484849" y="472.7878787878788" type="curve"/>
    </contour>
    <contour>
      <point x="837.7575757575758" y="0.0" type="line"/>
      <point x="984.5454545454545" y="0.0" type="line"/>
      <point x="984.5454545454545" y="1480.0" type="line"/>
      <point x="837.7575757575758" y="1480.0" type="line"/>
    </contour>
  </outline>
</glyph>
<glyph name="periodcentered" format="2">
  <advance width="432.4848484848485"/>
  <unicode hex="00B7"/>
  <anchor x="216.24242424242425" y="560.0" name="_periodcentered"/>
  <outline>
    <contour>
      <point x="216.24242424242425" y="425.8787878787879" type="curve" smooth="yes"/>
      <point x="294.78787878787875" y="425.8787878787879"/>
      <point x="350.72727272727275" y="478.24242424242425"/>
      <point x="350.72727272727275" y="558.7878787878788" type="curve" smooth="yes"/>
      <point x="350.72727272727275" y="639.3333333333334"/>
      <point x="296.3636363636364" y="692.9090909090909"/>
      <point x="216.24242424242425" y="692.9090909090909" type="curve" smooth="yes"/>
      <point x="136.12121212121212" y="692.9090909090909"/>
      <point x="81.75757575757575" y="640.9090909090909"/>
      <point x="81.75757575757575" y="558.7878787878788" type="curve" smooth="yes"/>
      <point x="81.75757575757575" y="476.6666666666667"/>
      <point x="137.6969696969697" y="425.8787878787879"/>
    </contour>
  </outline>
</glyph>
<glyph name="cedilla" format="2">
  <advance width="957.5757575757575"/>
  <unicode hex="00B8"/>
  <anchor x="478.78787878787875" y="0.0" name="_bottom"/>
  <outline>
    <contour>
      <point x="471.6363636363636" y="-423.6363636363636" type="curve" smooth="yes"/>
      <point x="613.0909090909091" y="-423.6363636363636"/>
      <point x="680.969696969697" y="-357.75757575757575"/>
      <point x="680.969696969697" y="-259.57575757575756" type="curve" smooth="yes"/>
      <point x="680.969696969697" y="-157.3939393939394"/>
      <point x="610.4242424242424" y="-97.45454545454545"/>
      <point x="485.8787878787879" y="-97.45454545454545" type="curve"/>
      <point x="538.7272727272727" y="-134.12121212121212" type="line"/>
      <point x="538.7272727272727" y="20.0" type="line"/>
      <point x="431.5151515151515" y="20.0" type="line"/>
      <point x="431.5151515151515" y="-169.5151515151515" type="line"/>
      <point x="463.8181818181818" y="-169.5151515151515" type="line" smooth="yes"/>
      <point x="530.6666666666666" y="-169.5151515151515"/>
      <point x="567.0909090909091" y="-196.36363636363637"/>
      <point x="567.0909090909091" y="-253.27272727272728" type="curve" smooth="yes"/>
      <point x="567.0909090909091" y="-307.3333333333333"/>
      <point x="534.6666666666666" y="-333.030303030303"/>
      <point x="466.6060606060606" y="-333.030303030303" type="curve" smooth="yes"/>
      <point x="423.75757575757575" y="-333.030303030303"/>
      <point x="370.6060606060606" y="-325.030303030303"/>
      <point x="317.3939393939394" y="-299.75757575757575" type="curve"/>
      <point x="317.3939393939394" y="-392.7878787878788" type="line"/>
      <point x="360.9090909090909" y="-412.42424242424244"/>
      <point x="416.54545454545456" y="-423.6363636363636"/>
    </contour>
  </outline>
</glyph>
<glyph name="ordmasculine" format="2">
  <advance width="812.060606060606"/>
  <unicode hex="00BA"/>
  <outline>
    <contour>
      <point x="406.42424242424244" y="594.4242424242424" type="curve" smooth="yes"/>
      <point x="628.3030303030303" y="594.4242424242424"/>
      <point x="762.969696969697" y="735.7575757575758"/>
      <point x="762.969696969697" y="1045.2121212121212" type="curve" smooth="yes"/>
      <point x="762.969696969697" y="1354.6666666666667"/>
      <point x="628.3030303030303" y="1495.939393939394"/>
      <point x="406.42424242424244" y="1495.939393939394" type="curve" smooth="yes"/>
      <point x="184.54545454545456" y="1495.939393939394"/>
      <point x="49.09090909090909" y="1358.6060606060605"/>
      <point x="49.09090909090909" y="1045.2121212121212" type="curve" smooth="yes"/>
      <point x="49.09090909090909" y="731.8181818181819"/>
      <point x="184.54545454545456" y="594.4242424242424"/>
    </contour>
    <contour>
      <point x="406.42424242424244" y="732.060606060606" type="curve" smooth="yes"/>
      <point x="301.3333333333333" y="732.060606060606"/>
      <point x="231.33333333333331" y="793.2727272727273"/>
      <point x="231.33333333333331" y="1045.2121212121212" type="curve" smooth="yes"/>
      <point x="231.33333333333331" y="1297.939393939394"/>
      <point x="301.3333333333333" y="1358.3030303030303"/>
      <point x="406.42424242424244" y="1358.3030303030303" type="curve" smooth="yes"/>
      <point x="511.5151515151515" y="1358.3030303030303"/>
      <point x="580.7272727272727" y="1297.939393939394"/>
      <point x="580.7272727272727" y="1045.2121212121212" type="curve" smooth="yes"/>
      <point x="580.7272727272727" y="793.2727272727273"/>
      <point x="511.5151515151515" y="732.060606060606"/>
    </contour>
  </outline>
</glyph>
<glyph name="guillemetright" format="2">
  <advance width="893.5151515151515"/>
  <unicode hex="00BB"/>
  <outline>
    <contour>
      <point x="50.303030303030305" y="136.06060606060606" type="line"/>
      <point x="241.2121212121212" y="136.06060606060606" type="line"/>
      <point x="433.1515151515151" y="563.939393939394" type="line"/>
      <point x="241.2121212121212" y="991.8181818181819" type="line"/>
      <point x="50.303030303030305" y="991.8181818181819" type="line"/>
      <point x="242.24242424242425" y="563.939393939394" type="line"/>
    </contour>
    <contour>
      <point x="420.3636363636364" y="136.06060606060606" type="line"/>
      <point x="611.2727272727273" y="136.06060606060606" type="line"/>
      <point x="803.2121212121212" y="563.939393939394" type="line"/>
      <point x="611.2727272727273" y="991.8181818181819" type="line"/>
      <point x="420.3636363636364" y="991.8181818181819" type="line"/>
      <point x="612.3030303030303" y="563.939393939394" type="line"/>
    </contour>
  </outline>
</glyph>
<glyph name="onequarter" format="2">
  <advance width="1718.121212121212"/>
  <unicode hex="00BC"/>
  <outline>
    <contour>
      <point x="325.1515151515151" y="636.0" type="line"/>
      <point x="482.9090909090909" y="636.0" type="line"/>
      <point x="482.9090909090909" y="1620.0" type="line"/>
      <point x="386.6060606060606" y="1620.0" type="line"/>
      <point x="134.36363636363637" y="1443.4545454545455" type="line"/>
      <point x="134.36363636363637" y="1294.6666666666667" type="line"/>
      <point x="386.6060606060606" y="1471.2121212121212" type="line"/>
      <point x="325.1515151515151" y="1512.3030303030303" type="line"/>
    </contour>
    <contour>
      <point x="134.9090909090909" y="616.0" type="line"/>
      <point x="663.939393939394" y="616.0" type="line"/>
      <point x="663.939393939394" y="754.4242424242424" type="line"/>
      <point x="134.9090909090909" y="754.4242424242424" type="line"/>
    </contour>
    <contour>
      <point x="415.45454545454544" y="-136.0" type="line"/>
      <point x="579.939393939394" y="-136.0" type="line"/>
      <point x="1302.6666666666667" y="1616.0" type="line"/>
      <point x="1138.1818181818182" y="1616.0" type="line"/>
    </contour>
    <contour>
      <point x="1013.030303030303" y="89.21212121212122" type="line"/>
      <point x="1691.2727272727273" y="89.21212121212122" type="line"/>
      <point x="1691.2727272727273" y="213.8181818181818" type="line"/>
      <point x="1146.6060606060605" y="213.8181818181818" type="line"/>
      <point x="1168.4848484848485" y="178.84848484848484" type="line"/>
      <point x="1480.969696969697" y="864.0" type="line"/>
      <point x="1328.6666666666667" y="864.0" type="line"/>
      <point x="1013.030303030303" y="178.84848484848484" type="line"/>
    </contour>
    <contour>
      <point x="1431.090909090909" y="-136.0" type="line"/>
      <point x="1571.090909090909" y="-136.0" type="line"/>
      <point x="1571.090909090909" y="526.0" type="line"/>
      <point x="1465.1515151515152" y="526.0" type="line"/>
      <point x="1431.090909090909" y="213.8181818181818" type="line"/>
    </contour>
  </outline>
</glyph>
<glyph name="onehalf" format="2">
  <advance width="1718.121212121212"/>
  <unicode hex="00BD"/>
  <outline>
    <contour>
      <point x="325.1515151515151" y="636.0" type="line"/>
      <point x="482.9090909090909" y="636.0" type="line"/>
      <point x="482.9090909090909" y="1620.0" type="line"/>
      <point x="386.6060606060606" y="1620.0" type="line"/>
      <point x="134.36363636363637" y="1443.4545454545455" type="line"/>
      <point x="134.36363636363637" y="1294.6666666666667" type="line"/>
      <point x="386.6060606060606" y="1471.2121212121212" type="line"/>
      <point x="325.1515151515151" y="1512.3030303030303" type="line"/>
    </contour>
    <contour>
      <point x="134.9090909090909" y="616.0" type="line"/>
      <point x="663.939393939394" y="616.0" type="line"/>
      <point x="663.939393939394" y="754.4242424242424" type="line"/>
      <point x="134.9090909090909" y="754.4242424242424" type="line"/>
    </contour>
    <contour>
      <point x="415.45454545454544" y="-136.0" type="line"/>
      <point x="579.939393939394" y="-136.0" type="line"/>
      <point x="1302.6666666666667" y="1616.0" type="line"/>
      <point x="1138.1818181818182" y="1616.0" type="line"/>
    </contour>
    <contour>
      <point x="1071.8181818181818" y="-136.0" type="line"/>
      <point x="1621.878787878788" y="-136.0" type="line"/>
      <point x="1621.878787878788" y="2.424242424242422" type="line"/>
      <point x="1239.3333333333333" y="2.424242424242422" type="line"/>
      <point x="1251.7575757575758" y="-37.27272727272727" type="line"/>
      <point x="1458.3030303030303" y="270.1818181818182" type="line" smooth="yes"/>
      <point x="1551.939393939394" y="407.57575757575756"/>
      <point x="1588.3636363636363" y="503.1515151515151"/>
      <point x="1589.5757575757575" y="601.5757575757576" type="curve" smooth="yes"/>
      <point x="1590.7878787878788" y="798.4848484848485"/>
      <point x="1466.6666666666667" y="876.7878787878788"/>
      <point x="1269.1515151515152" y="876.7878787878788" type="curve" smooth="yes"/>
      <point x="1194.0" y="876.7878787878788"/>
      <point x="1112.969696969697" y="864.0"/>
      <point x="1059.030303030303" y="841.5757575757576" type="curve"/>
      <point x="1059.030303030303" y="707.4545454545455" type="line"/>
      <point x="1115.4545454545455" y="731.0909090909091"/>
      <point x="1179.7575757575758" y="743.0909090909091"/>
      <point x="1246.2424242424242" y="743.0909090909091" type="curve" smooth="yes"/>
      <point x="1371.1515151515152" y="743.0909090909091"/>
      <point x="1431.3939393939395" y="698.6060606060606"/>
      <point x="1431.3939393939395" y="590.1212121212121" type="curve" smooth="yes"/>
      <point x="1431.3939393939395" y="514.3030303030303"/>
      <point x="1396.5454545454545" y="436.1818181818182"/>
      <point x="1317.2727272727273" y="318.3636363636364" type="curve" smooth="yes"/>
      <point x="1071.8181818181818" y="-47.151515151515156" type="line"/>
    </contour>
  </outline>
</glyph>
<glyph name="threequarters" format="2">
  <advance width="1718.121212121212"/>
  <unicode hex="00BE"/>
  <outline>
    <contour>
      <point x="295.45454545454544" y="603.2121212121212" type="curve" smooth="yes"/>
      <point x="517.7575757575758" y="603.2121212121212"/>
      <point x="652.7272727272727" y="703.1515151515151"/>
      <point x="652.7272727272727" y="884.6666666666666" type="curve" smooth="yes"/>
      <point x="652.7272727272727" y="1024.7878787878788"/>
      <point x="574.1818181818181" y="1116.8484848484848"/>
      <point x="420.0" y="1140.060606060606" type="curve"/>
      <point x="420.0" y="1128.4242424242425" type="line"/>
      <point x="548.6060606060606" y="1156.060606060606"/>
      <point x="622.3030303030303" y="1246.909090909091"/>
      <point x="622.3030303030303" y="1372.5454545454545" type="curve" smooth="yes"/>
      <point x="622.3030303030303" y="1538.060606060606"/>
      <point x="510.9090909090909" y="1628.7878787878788"/>
      <point x="301.3333333333333" y="1628.7878787878788" type="curve" smooth="yes"/>
      <point x="227.03030303030303" y="1628.7878787878788"/>
      <point x="141.57575757575756" y="1616.0"/>
      <point x="87.27272727272728" y="1593.5757575757575" type="curve"/>
      <point x="87.27272727272728" y="1464.969696969697" type="line"/>
      <point x="145.6969696969697" y="1489.3939393939395"/>
      <point x="213.57575757575756" y="1501.3939393939395"/>
      <point x="282.0" y="1501.3939393939395" type="curve" smooth="yes"/>
      <point x="409.45454545454544" y="1501.3939393939395"/>
      <point x="470.06060606060606" y="1454.7878787878788"/>
      <point x="470.06060606060606" y="1357.1515151515152" type="curve" smooth="yes"/>
      <point x="470.06060606060606" y="1257.4545454545455"/>
      <point x="398.06060606060606" y="1193.5151515151515"/>
      <point x="252.66666666666666" y="1193.5151515151515" type="curve" smooth="yes"/>
      <point x="171.3939393939394" y="1193.5151515151515" type="line"/>
      <point x="171.3939393939394" y="1062.5454545454545" type="line"/>
      <point x="280.9090909090909" y="1062.5454545454545" type="line" smooth="yes"/>
      <point x="433.8181818181818" y="1062.5454545454545"/>
      <point x="500.4848484848485" y="1000.1818181818181"/>
      <point x="500.4848484848485" y="894.5454545454545" type="curve" smooth="yes"/>
      <point x="500.4848484848485" y="784.060606060606"/>
      <point x="426.54545454545456" y="730.6060606060606"/>
      <point x="289.5151515151515" y="730.6060606060606" type="curve" smooth="yes"/>
      <point x="222.3030303030303" y="730.6060606060606"/>
      <point x="142.0" y="741.8181818181818"/>
      <point x="73.21212121212122" y="764.6666666666666" type="curve"/>
      <point x="73.21212121212122" y="636.060606060606" type="line"/>
      <point x="141.93939393939394" y="614.4242424242424"/>
      <point x="217.45454545454544" y="603.2121212121212"/>
    </contour>
    <contour>
      <point x="415.45454545454544" y="-136.0" type="line"/>
      <point x="579.939393939394" y="-136.0" type="line"/>
      <point x="1302.6666666666667" y="1616.0" type="line"/>
      <point x="1138.1818181818182" y="1616.0" type="line"/>
    </contour>
    <contour>
      <point x="1013.030303030303" y="89.21212121212122" type="line"/>
      <point x="1691.2727272727273" y="89.21212121212122" type="line"/>
      <point x="1691.2727272727273" y="213.8181818181818" type="line"/>
      <point x="1146.6060606060605" y="213.8181818181818" type="line"/>
      <point x="1168.4848484848485" y="178.84848484848484" type="line"/>
      <point x="1480.969696969697" y="864.0" type="line"/>
      <point x="1328.6666666666667" y="864.0" type="line"/>
      <point x="1013.030303030303" y="178.84848484848484" type="line"/>
    </contour>
    <contour>
      <point x="1431.090909090909" y="-136.0" type="line"/>
      <point x="1571.090909090909" y="-136.0" type="line"/>
      <point x="1571.090909090909" y="526.0" type="line"/>
      <point x="1465.1515151515152" y="526.0" type="line"/>
      <point x="1431.090909090909" y="213.8181818181818" type="line"/>
    </contour>
  </outline>
</glyph>
<glyph name="questiondown" format="2">
  <advance width="819.8787878787879"/>
  <unicode hex="00BF"/>
  <outline>
    <contour>
      <point x="526.4848484848485" y="696.4848484848485" type="line"/>
      <point x="404.42424242424244" y="696.4848484848485" type="line"/>
      <point x="386.54545454545456" y="394.6666666666667" type="line"/>
      <point x="150.66666666666666" y="298.3030303030303"/>
      <point x="48.18181818181818" y="168.0"/>
      <point x="48.18181818181818" y="-31.090909090909093" type="curve" smooth="yes"/>
      <point x="48.18181818181818" y="-266.4848484848485"/>
      <point x="201.5151515151515" y="-400.0"/>
      <point x="492.54545454545456" y="-400.0" type="curve" smooth="yes"/>
      <point x="596.4242424242424" y="-400.0"/>
      <point x="715.8181818181818" y="-380.0"/>
      <point x="791.6969696969697" y="-347.57575757575756" type="curve"/>
      <point x="791.6969696969697" y="-186.60606060606062" type="line"/>
      <point x="707.2727272727273" y="-221.45454545454544"/>
      <point x="613.030303030303" y="-239.45454545454544"/>
      <point x="514.6060606060606" y="-239.45454545454544" type="curve" smooth="yes"/>
      <point x="327.030303030303" y="-239.45454545454544"/>
      <point x="237.93939393939394" y="-163.93939393939394"/>
      <point x="237.93939393939394" y="-14.181818181818187" type="curve" smooth="yes"/>
      <point x="237.93939393939394" y="127.93939393939394"/>
      <point x="313.6969696969697" y="220.72727272727272"/>
      <point x="559.7575757575758" y="299.8787878787879" type="curve"/>
    </contour>
    <contour>
      <point x="465.45454545454544" y="1101.8181818181818" type="curve" smooth="yes"/>
      <point x="385.6969696969697" y="1101.8181818181818"/>
      <point x="330.969696969697" y="1048.2424242424242"/>
      <point x="330.969696969697" y="971.2727272727273" type="curve" smooth="yes"/>
      <point x="330.969696969697" y="893.0909090909091"/>
      <point x="385.3333333333333" y="839.5151515151515"/>
      <point x="465.45454545454544" y="839.5151515151515" type="curve" smooth="yes"/>
      <point x="545.5757575757576" y="839.5151515151515"/>
      <point x="599.939393939394" y="891.5151515151515"/>
      <point x="599.939393939394" y="971.2727272727273" type="curve" smooth="yes"/>
      <point x="599.939393939394" y="1049.8181818181818"/>
      <point x="544.0" y="1101.8181818181818"/>
    </contour>
  </outline>
</glyph>
<glyph name="Atilde" format="2">
  <advance width="1196.969696969697"/>
  <unicode hex="00C3"/>
  <anchor x="599.0909090909091" y="1520.0" name="_top"/>
  <anchor x="599.0909090909091" y="0.0" name="bottom"/>
  <anchor x="1184.3636363636363" y="0.0" name="ogonek"/>
  <anchor x="599.0909090909091" y="1520.0" name="top"/>
  <outline>
    <contour>
      <point x="12.606060606060607" y="0.0" type="line"/>
      <point x="205.93939393939394" y="0.0" type="line"/>
      <point x="610.6666666666666" y="1387.2121212121212" type="line"/>
      <point x="581.939393939394" y="1387.2121212121212" type="line"/>
      <point x="988.2424242424242" y="0.0" type="line"/>
      <point x="1184.3636363636363" y="0.0" type="line"/>
      <point x="740.3636363636364" y="1480.0" type="line"/>
      <point x="456.6060606060606" y="1480.0" type="line"/>
    </contour>
    <contour>
      <point x="246.0" y="455.5151515151515" type="line"/>
      <point x="950.1818181818181" y="455.5151515151515" type="line"/>
      <point x="909.6969696969697" y="625.5151515151515" type="line"/>
      <point x="286.4848484848485" y="625.5151515151515" type="line"/>
    </contour>
    <contour>
      <point x="743.6363636363636" y="1652.6666666666667" type="curve" smooth="yes"/>
      <point x="815.030303030303" y="1652.6666666666667"/>
      <point x="866.5454545454545" y="1675.878787878788"/>
      <point x="906.0" y="1720.1818181818182" type="curve"/>
      <point x="906.0" y="1852.3636363636363" type="line"/>
      <point x="858.5454545454545" y="1803.5757575757575"/>
      <point x="812.2424242424242" y="1778.7878787878788"/>
      <point x="745.2121212121212" y="1778.7878787878788" type="curve" smooth="yes"/>
      <point x="650.6060606060606" y="1778.7878787878788"/>
      <point x="569.5151515151515" y="1858.3636363636363"/>
      <point x="454.54545454545456" y="1858.3636363636363" type="curve" smooth="yes"/>
      <point x="383.1515151515151" y="1858.3636363636363"/>
      <point x="331.6363636363636" y="1834.3636363636363"/>
      <point x="292.1818181818182" y="1790.060606060606" type="curve"/>
      <point x="292.1818181818182" y="1657.878787878788" type="line"/>
      <point x="339.6363636363636" y="1706.6666666666667"/>
      <point x="385.93939393939394" y="1731.4545454545455"/>
      <point x="452.969696969697" y="1731.4545454545455" type="curve" smooth="yes"/>
      <point x="547.5757575757576" y="1731.4545454545455"/>
      <point x="628.6666666666666" y="1652.6666666666667"/>
    </contour>
  </outline>
</glyph>
<glyph name="Adieresis" format="2">
  <advance width="1196.969696969697"/>
  <unicode hex="00C4"/>
  <anchor x="599.0909090909091" y="1520.0" name="_top"/>
  <anchor x="599.0909090909091" y="0.0" name="bottom"/>
  <anchor x="1184.3636363636363" y="0.0" name="ogonek"/>
  <anchor x="599.0909090909091" y="1520.0" name="top"/>
  <outline>
    <contour>
      <point x="12.606060606060607" y="0.0" type="line"/>
      <point x="205.93939393939394" y="0.0" type="line"/>
      <point x="610.6666666666666" y="1387.2121212121212" type="line"/>
      <point x="581.939393939394" y="1387.2121212121212" type="line"/>
      <point x="988.2424242424242" y="0.0" type="line"/>
      <point x="1184.3636363636363" y="0.0" type="line"/>
      <point x="740.3636363636364" y="1480.0" type="line"/>
      <point x="456.6060606060606" y="1480.0" type="line"/>
    </contour>
    <contour>
      <point x="246.0" y="455.5151515151515" type="line"/>
      <point x="950.1818181818181" y="455.5151515151515" type="line"/>
      <point x="909.6969696969697" y="625.5151515151515" type="line"/>
      <point x="286.4848484848485" y="625.5151515151515" type="line"/>
    </contour>
    <contour>
      <point x="806.6666666666666" y="1642.7272727272727" type="curve" smooth="yes"/>
      <point x="880.4848484848485" y="1642.7272727272727"/>
      <point x="926.1818181818181" y="1682.4848484848485"/>
      <point x="926.1818181818181" y="1751.2121212121212" type="curve" smooth="yes"/>
      <point x="926.1818181818181" y="1819.939393939394"/>
      <point x="880.4848484848485" y="1860.909090909091"/>
      <point x="806.6666666666666" y="1860.909090909091" type="curve" smooth="yes"/>
      <point x="732.8484848484849" y="1860.909090909091"/>
      <point x="687.1515151515151" y="1819.939393939394"/>
      <point x="687.1515151515151" y="1751.2121212121212" type="curve" smooth="yes"/>
      <point x="687.1515151515151" y="1682.4848484848485"/>
      <point x="732.8484848484849" y="1642.7272727272727"/>
    </contour>
    <contour>
      <point x="391.5151515151515" y="1642.7272727272727" type="curve" smooth="yes"/>
      <point x="465.3333333333333" y="1642.7272727272727"/>
      <point x="511.030303030303" y="1682.4848484848485"/>
      <point x="511.030303030303" y="1751.2121212121212" type="curve" smooth="yes"/>
      <point x="511.030303030303" y="1819.939393939394"/>
      <point x="465.3333333333333" y="1860.909090909091"/>
      <point x="391.5151515151515" y="1860.909090909091" type="curve" smooth="yes"/>
      <point x="317.6969696969697" y="1860.909090909091"/>
      <point x="272.0" y="1819.939393939394"/>
      <point x="272.0" y="1751.2121212121212" type="curve" smooth="yes"/>
      <point x="272.0" y="1682.4848484848485"/>
      <point x="317.6969696969697" y="1642.7272727272727"/>
    </contour>
  </outline>
</glyph>
<glyph name="Aring" format="2">
  <advance width="1196.969696969697"/>
  <unicode hex="00C5"/>
  <anchor x="601.5151515151515" y="1410.909090909091" name="_top"/>
  <anchor x="599.0909090909091" y="0.0" name="bottom"/>
  <anchor x="1184.3636363636363" y="0.0" name="ogonek"/>
  <anchor x="599.0909090909091" y="1520.0" name="top"/>
  <outline>
    <contour>
      <point x="12.606060606060607" y="0.0" type="line"/>
      <point x="205.93939393939394" y="0.0" type="line"/>
      <point x="610.6666666666666" y="1387.2121212121212" type="line"/>
      <point x="581.939393939394" y="1387.2121212121212" type="line"/>
      <point x="988.2424242424242" y="0.0" type="line"/>
      <point x="1184.3636363636363" y="0.0" type="line"/>
      <point x="740.3636363636364" y="1480.0" type="line"/>
      <point x="456.6060606060606" y="1480.0" type="line"/>
    </contour>
    <contour>
      <point x="246.0" y="455.5151515151515" type="line"/>
      <point x="950.1818181818181" y="455.5151515151515" type="line"/>
      <point x="909.6969696969697" y="625.5151515151515" type="line"/>
      <point x="286.4848484848485" y="625.5151515151515" type="line"/>
    </contour>
    <contour>
      <point x="601.5151515151515" y="1485.1515151515152" type="curve" smooth="yes"/>
      <point x="717.7575757575758" y="1485.1515151515152"/>
      <point x="802.8484848484849" y="1568.6666666666667"/>
      <point x="802.8484848484849" y="1683.3333333333333" type="curve" smooth="yes"/>
      <point x="802.8484848484849" y="1798.0"/>
      <point x="717.7575757575758" y="1881.5151515151515"/>
      <point x="601.5151515151515" y="1881.5151515151515" type="curve" smooth="yes"/>
      <point x="485.27272727272725" y="1881.5151515151515"/>
      <point x="400.1818181818182" y="1798.0"/>
      <point x="400.1818181818182" y="1683.3333333333333" type="curve" smooth="yes"/>
      <point x="400.1818181818182" y="1568.6666666666667"/>
      <point x="485.27272727272725" y="1485.1515151515152"/>
    </contour>
    <contour>
      <point x="601.5151515151515" y="1571.030303030303" type="curve" smooth="yes"/>
      <point x="537.3333333333334" y="1571.030303030303"/>
      <point x="492.0" y="1613.939393939394"/>
      <point x="492.0" y="1683.3333333333333" type="curve" smooth="yes"/>
      <point x="492.0" y="1752.7272727272727"/>
      <point x="537.3333333333334" y="1795.6363636363637"/>
      <point x="601.5151515151515" y="1795.6363636363637" type="curve" smooth="yes"/>
      <point x="665.6969696969697" y="1795.6363636363637"/>
      <point x="711.030303030303" y="1752.7272727272727"/>
      <point x="711.030303030303" y="1683.3333333333333" type="curve" smooth="yes"/>
      <point x="711.030303030303" y="1613.939393939394"/>
      <point x="665.6969696969697" y="1571.030303030303"/>
    </contour>
  </outline>
</glyph>
<glyph name="AE" format="2">
  <advance width="1662.6060606060605"/>
  <unicode hex="00C6"/>
  <anchor x="892.1818181818181" y="0.0" name="bottom"/>
  <anchor x="854.6060606060606" y="1520.0" name="top"/>
  <outline>
    <contour>
      <point x="12.606060606060607" y="0.0" type="line"/>
      <point x="208.3030303030303" y="0.0" type="line"/>
      <point x="602.8484848484849" y="1308.4242424242425" type="line"/>
      <point x="864.969696969697" y="1308.4242424242425" type="line"/>
      <point x="864.969696969697" y="1480.0" type="line"/>
      <point x="463.8787878787879" y="1480.0" type="line"/>
    </contour>
    <contour>
      <point x="247.21212121212122" y="454.72727272727275" type="line"/>
      <point x="876.7878787878788" y="454.72727272727275" type="line"/>
      <point x="876.7878787878788" y="626.3030303030303" type="line"/>
      <point x="287.6969696969697" y="626.3030303030303" type="line"/>
    </contour>
    <contour>
      <point x="846.3636363636364" y="0.0" type="line"/>
      <point x="1619.1515151515152" y="0.0" type="line"/>
      <point x="1619.1515151515152" y="171.57575757575756" type="line"/>
      <point x="1025.8181818181818" y="171.57575757575756" type="line"/>
      <point x="961.8787878787879" y="1308.4242424242425" type="line"/>
      <point x="1609.1515151515152" y="1308.4242424242425" type="line"/>
      <point x="1609.1515151515152" y="1480.0" type="line"/>
      <point x="765.030303030303" y="1480.0" type="line"/>
    </contour>
    <contour>
      <point x="931.3333333333334" y="672.8484848484849" type="line"/>
      <point x="1513.6363636363635" y="672.8484848484849" type="line"/>
      <point x="1513.6363636363635" y="844.4242424242424" type="line"/>
      <point x="931.3333333333334" y="844.4242424242424" type="line"/>
    </contour>
  </outline>
</glyph>
<glyph name="Ccedilla" format="2">
  <advance width="997.7575757575758"/>
  <unicode hex="00C7"/>
  <anchor x="633.4545454545455" y="0.0" name="_bottom"/>
  <anchor x="633.4545454545455" y="0.0" name="bottom"/>
  <anchor x="627.3939393939394" y="1520.0" name="top"/>
  <outline>
    <contour>
      <point x="687.5757575757576" y="-18.78787878787879" type="curve" smooth="yes"/>
      <point x="792.7878787878788" y="-18.78787878787879"/>
      <point x="896.2424242424242" y="1.6363636363636367"/>
      <point x="973.4545454545455" y="30.424242424242426" type="curve"/>
      <point x="973.4545454545455" y="200.84848484848484" type="line"/>
      <point x="876.1818181818181" y="168.0"/>
      <point x="793.3939393939394" y="151.2121212121212"/>
      <point x="709.2121212121212" y="151.2121212121212" type="curve" smooth="yes"/>
      <point x="437.3939393939394" y="151.2121212121212"/>
      <point x="285.8181818181818" y="282.72727272727275"/>
      <point x="285.8181818181818" y="741.2121212121212" type="curve" smooth="yes"/>
      <point x="285.8181818181818" y="1187.2727272727273"/>
      <point x="435.6969696969697" y="1328.7878787878788"/>
      <point x="714.060606060606" y="1328.7878787878788" type="curve" smooth="yes"/>
      <point x="801.6969696969697" y="1328.7878787878788"/>
      <point x="882.9090909090909" y="1319.2121212121212"/>
      <point x="973.4545454545455" y="1292.3030303030303" type="curve"/>
      <point x="973.4545454545455" y="1462.7272727272727" type="line"/>
      <point x="888.2424242424242" y="1486.3636363636363"/>
      <point x="794.6666666666666" y="1498.7878787878788"/>
      <point x="704.7272727272727" y="1498.7878787878788" type="curve" smooth="yes"/>
      <point x="311.8181818181818" y="1498.7878787878788"/>
      <point x="80.66666666666667" y="1284.3030303030303"/>
      <point x="80.66666666666667" y="737.2121212121212" type="curve" smooth="yes"/>
      <point x="80.66666666666667" y="177.3939393939394"/>
      <point x="310.72727272727275" y="-18.78787878787879"/>
    </contour>
    <contour>
      <point x="620.2424242424242" y="-423.6363636363636" type="curve" smooth="yes"/>
      <point x="767.1515151515151" y="-423.6363636363636"/>
      <point x="843.5151515151515" y="-362.6060606060606"/>
      <point x="843.5151515151515" y="-258.3636363636364" type="curve" smooth="yes"/>
      <point x="843.5151515151515" y="-152.54545454545456"/>
      <point x="760.8484848484849" y="-96.24242424242425"/>
      <point x="632.060606060606" y="-96.24242424242425" type="curve"/>
      <point x="676.4242424242424" y="-134.12121212121212" type="line"/>
      <point x="676.4242424242424" y="20.0" type="line"/>
      <point x="569.2121212121212" y="20.0" type="line"/>
      <point x="569.2121212121212" y="-169.5151515151515" type="line"/>
      <point x="608.7878787878788" y="-169.5151515151515" type="line" smooth="yes"/>
      <point x="683.5757575757576" y="-169.5151515151515"/>
      <point x="728.4242424242424" y="-195.15151515151516"/>
      <point x="728.4242424242424" y="-252.06060606060606" type="curve" smooth="yes"/>
      <point x="728.4242424242424" y="-309.75757575757575"/>
      <point x="685.1515151515151" y="-333.030303030303"/>
      <point x="611.5757575757576" y="-333.030303030303" type="curve" smooth="yes"/>
      <point x="561.939393939394" y="-333.030303030303"/>
      <point x="504.06060606060606" y="-323.8181818181818"/>
      <point x="441.1515151515151" y="-297.3333333333333" type="curve"/>
      <point x="441.1515151515151" y="-390.3636363636364" type="line"/>
      <point x="494.3636363636364" y="-412.42424242424244"/>
      <point x="557.1515151515151" y="-423.6363636363636"/>
    </contour>
  </outline>
</glyph>
<glyph name="Eacute" format="2">
  <advance width="1017.6969696969697"/>
  <unicode hex="00C9"/>
  <anchor x="571.7575757575758" y="1520.0" name="_top"/>
  <anchor x="571.7575757575758" y="0.0" name="bottom"/>
  <anchor x="894.2424242424242" y="0.0" name="ogonek"/>
  <anchor x="571.7575757575758" y="1520.0" name="top"/>
  <anchor x="36.0" y="1480.0" name="topleft"/>
  <outline>
    <contour>
      <point x="134.06060606060606" y="0.0" type="line"/>
      <point x="974.2424242424242" y="0.0" type="line"/>
      <point x="974.2424242424242" y="171.57575757575756" type="line"/>
      <point x="327.3333333333333" y="171.57575757575756" type="line"/>
      <point x="327.3333333333333" y="1308.4242424242425" type="line"/>
      <point x="964.2424242424242" y="1308.4242424242425" type="line"/>
      <point x="964.2424242424242" y="1480.0" type="line"/>
      <point x="134.06060606060606" y="1480.0" type="line"/>
    </contour>
    <contour>
      <point x="279.93939393939394" y="672.8484848484849" type="line"/>
      <point x="868.7272727272727" y="672.8484848484849" type="line"/>
      <point x="868.7272727272727" y="844.4242424242424" type="line"/>
      <point x="279.93939393939394" y="844.4242424242424" type="line"/>
    </contour>
    <contour>
      <point x="487.030303030303" y="1604.1818181818182" type="line"/>
      <point x="656.4848484848485" y="1604.1818181818182" type="line"/>
      <point x="829.6363636363636" y="1893.5151515151515" type="line"/>
      <point x="628.4242424242424" y="1893.5151515151515" type="line"/>
    </contour>
  </outline>
</glyph>
<glyph name="Iacute" format="2">
  <advance width="463.75757575757575"/>
  <unicode hex="00CD"/>
  <anchor x="231.87878787878788" y="1520.0" name="_top"/>
  <anchor x="231.87878787878788" y="0.0" name="bottom"/>
  <anchor x="329.6969696969697" y="0.0" name="ogonek"/>
  <anchor x="231.87878787878788" y="1520.0" name="top"/>
  <outline>
    <contour>
      <point x="134.06060606060606" y="0.0" type="line"/>
      <point x="329.6969696969697" y="0.0" type="line"/>
      <point x="329.6969696969697" y="1480.0" type="line"/>
      <point x="134.06060606060606" y="1480.0" type="line"/>
    </contour>
    <contour>
      <point x="147.15151515151516" y="1604.1818181818182" type="line"/>
      <point x="316.6060606060606" y="1604.1818181818182" type="line"/>
      <point x="489.75757575757575" y="1893.5151515151515" type="line"/>
      <point x="288.54545454545456" y="1893.5151515151515" type="line"/>
    </contour>
  </outline>
</glyph>
<glyph name="Icircumflex" format="2">
  <advance width="463.75757575757575"/>
  <unicode hex="00CE"/>
  <anchor x="231.87878787878788" y="1520.0" name="_top"/>
  <anchor x="231.87878787878788" y="0.0" name="bottom"/>
  <anchor x="329.6969696969697" y="0.0" name="ogonek"/>
  <anchor x="231.87878787878788" y="1520.0" name="top"/>
  <outline>
    <contour>
      <point x="134.06060606060606" y="0.0" type="line"/>
      <point x="329.6969696969697" y="0.0" type="line"/>
      <point x="329.6969696969697" y="1480.0" type="line"/>
      <point x="134.06060606060606" y="1480.0" type="line"/>
    </contour>
    <contour>
      <point x="-49.39393939393939" y="1604.1818181818182" type="line"/>
      <point x="93.87878787878788" y="1604.1818181818182" type="line"/>
      <point x="245.39393939393938" y="1836.7272727272727" type="line"/>
      <point x="218.36363636363637" y="1836.7272727272727" type="line"/>
      <point x="369.8787878787879" y="1604.1818181818182" type="line"/>
      <point x="513.1515151515151" y="1604.1818181818182" type="line"/>
      <point x="318.72727272727275" y="1893.5151515151515" type="line"/>
      <point x="145.03030303030303" y="1893.5151515151515" type="line"/>
    </contour>
  </outline>
</glyph>
<glyph name="Idieresis" format="2">
  <advance width="463.75757575757575"/>
  <unicode hex="00CF"/>
  <anchor x="231.87878787878788" y="1520.0" name="_top"/>
  <anchor x="231.87878787878788" y="0.0" name="bottom"/>
  <anchor x="329.6969696969697" y="0.0" name="ogonek"/>
  <anchor x="231.87878787878788" y="1520.0" name="top"/>
  <outline>
    <contour>
      <point x="134.06060606060606" y="0.0" type="line"/>
      <point x="329.6969696969697" y="0.0" type="line"/>
      <point x="329.6969696969697" y="1480.0" type="line"/>
      <point x="134.06060606060606" y="1480.0" type="line"/>
    </contour>
    <contour>
      <point x="439.45454545454544" y="1642.7272727272727" type="curve" smooth="yes"/>
      <point x="513.2727272727273" y="1642.7272727272727"/>
      <point x="558.969696969697" y="1682.4848484848485"/>
      <point x="558.969696969697" y="1751.2121212121212" type="curve" smooth="yes"/>
      <point x="558.969696969697" y="1819.939393939394"/>
      <point x="513.2727272727273" y="1860.909090909091"/>
      <point x="439.45454545454544" y="1860.909090909091" type="curve" smooth="yes"/>
      <point x="365.6363636363636" y="1860.909090909091"/>
      <point x="319.93939393939394" y="1819.939393939394"/>
      <point x="319.93939393939394" y="1751.2121212121212" type="curve" smooth="yes"/>
      <point x="319.93939393939394" y="1682.4848484848485"/>
      <point x="365.6363636363636" y="1642.7272727272727"/>
    </contour>
    <contour>
      <point x="24.303030303030305" y="1642.7272727272727" type="curve" smooth="yes"/>
      <point x="98.12121212121212" y="1642.7272727272727"/>
      <point x="143.8181818181818" y="1682.4848484848485"/>
      <point x="143.8181818181818" y="1751.2121212121212" type="curve" smooth="yes"/>
      <point x="143.8181818181818" y="1819.939393939394"/>
      <point x="98.12121212121212" y="1860.909090909091"/>
      <point x="24.303030303030305" y="1860.909090909091" type="curve" smooth="yes"/>
      <point x="-49.515151515151516" y="1860.909090909091"/>
      <point x="-95.21212121212122" y="1819.939393939394"/>
      <point x="-95.21212121212122" y="1751.2121212121212" type="curve" smooth="yes"/>
      <point x="-95.21212121212122" y="1682.4848484848485"/>
      <point x="-49.515151515151516" y="1642.7272727272727"/>
    </contour>
  </outline>
</glyph>
<glyph name="Ntilde" format="2">
  <advance width="1300.0"/>
  <unicode hex="00D1"/>
  <anchor x="650.0" y="1520.0" name="_top"/>
  <anchor x="650.0" y="0.0" name="bottom"/>
  <anchor x="650.0" y="1520.0" name="top"/>
  <outline>
    <contour>
      <point x="134.06060606060606" y="0.0" type="line"/>
      <point x="318.24242424242425" y="0.0" type="line"/>
      <point x="318.24242424242425" y="1226.969696969697" type="line"/>
      <point x="276.0" y="1226.969696969697" type="line"/>
      <point x="966.2424242424242" y="0.0" type="line"/>
      <point x="1165.939393939394" y="0.0" type="line"/>
      <point x="1165.939393939394" y="1480.0" type="line"/>
      <point x="981.7575757575758" y="1480.0" type="line"/>
      <point x="981.7575757575758" y="253.03030303030303" type="line"/>
      <point x="1024.0" y="253.03030303030303" type="line"/>
      <point x="333.75757575757575" y="1480.0" type="line"/>
      <point x="134.06060606060606" y="1480.0" type="line"/>
    </contour>
    <contour>
      <point x="794.5454545454545" y="1652.6666666666667" type="curve" smooth="yes"/>
      <point x="865.939393939394" y="1652.6666666666667"/>
      <point x="917.4545454545455" y="1675.878787878788"/>
      <point x="956.9090909090909" y="1720.1818181818182" type="curve"/>
      <point x="956.9090909090909" y="1852.3636363636363" type="line"/>
      <point x="909.4545454545455" y="1803.5757575757575"/>
      <point x="863.1515151515151" y="1778.7878787878788"/>
      <point x="796.1212121212121" y="1778.7878787878788" type="curve" smooth="yes"/>
      <point x="701.5151515151515" y="1778.7878787878788"/>
      <point x="620.4242424242424" y="1858.3636363636363"/>
      <point x="505.45454545454544" y="1858.3636363636363" type="curve" smooth="yes"/>
      <point x="434.06060606060606" y="1858.3636363636363"/>
      <point x="382.54545454545456" y="1834.3636363636363"/>
      <point x="343.0909090909091" y="1790.060606060606" type="curve"/>
      <point x="343.0909090909091" y="1657.878787878788" type="line"/>
      <point x="390.54545454545456" y="1706.6666666666667"/>
      <point x="436.8484848484849" y="1731.4545454545455"/>
      <point x="503.8787878787879" y="1731.4545454545455" type="curve" smooth="yes"/>
      <point x="598.4848484848485" y="1731.4545454545455"/>
      <point x="679.5757575757576" y="1652.6666666666667"/>
    </contour>
  </outline>
</glyph>
<glyph name="Otilde" format="2">
  <advance width="1255.3939393939395"/>
  <unicode hex="00D5"/>
  <anchor x="627.6969696969697" y="1520.0" name="_top"/>
  <anchor x="627.6969696969697" y="0.0" name="bottom"/>
  <anchor x="627.6969696969697" y="740.0" name="center"/>
  <anchor x="788.1818181818181" y="0.0" name="ogonek"/>
  <anchor x="627.6969696969697" y="1520.0" name="top"/>
  <anchor x="39.57575757575758" y="1480.0" name="topleft"/>
  <anchor x="785.030303030303" y="1480.0" name="topright"/>
  <outline>
    <contour>
      <point x="627.6969696969697" y="-18.78787878787879" type="curve" smooth="yes"/>
      <point x="956.7878787878788" y="-18.78787878787879"/>
      <point x="1174.7272727272727" y="190.66666666666666"/>
      <point x="1174.7272727272727" y="740.0" type="curve" smooth="yes"/>
      <point x="1174.7272727272727" y="1289.3333333333333"/>
      <point x="956.7878787878788" y="1498.7878787878788"/>
      <point x="627.6969696969697" y="1498.7878787878788" type="curve" smooth="yes"/>
      <point x="298.6060606060606" y="1498.7878787878788"/>
      <point x="80.66666666666667" y="1289.3333333333333"/>
      <point x="80.66666666666667" y="740.0" type="curve" smooth="yes"/>
      <point x="80.66666666666667" y="190.66666666666666"/>
      <point x="298.6060606060606" y="-18.78787878787879"/>
    </contour>
    <contour>
      <point x="627.6969696969697" y="148.84848484848484" type="curve" smooth="yes"/>
      <point x="416.72727272727275" y="148.84848484848484"/>
      <point x="283.45454545454544" y="287.93939393939394"/>
      <point x="283.45454545454544" y="745.5757575757576" type="curve" smooth="yes"/>
      <point x="283.45454545454544" y="1192.060606060606"/>
      <point x="416.72727272727275" y="1331.1515151515152"/>
      <point x="627.6969696969697" y="1331.1515151515152" type="curve" smooth="yes"/>
      <point x="838.6666666666666" y="1331.1515151515152"/>
      <point x="971.939393939394" y="1192.060606060606"/>
      <point x="971.939393939394" y="734.4242424242424" type="curve" smooth="yes"/>
      <point x="971.939393939394" y="287.93939393939394"/>
      <point x="838.6666666666666" y="148.84848484848484"/>
    </contour>
    <contour>
      <point x="772.2424242424242" y="1652.6666666666667" type="curve" smooth="yes"/>
      <point x="843.6363636363636" y="1652.6666666666667"/>
      <point x="895.1515151515151" y="1675.878787878788"/>
      <point x="934.6060606060606" y="1720.1818181818182" type="curve"/>
      <point x="934.6060606060606" y="1852.3636363636363" type="line"/>
      <point x="887.1515151515151" y="1803.5757575757575"/>
      <point x="840.8484848484849" y="1778.7878787878788"/>
      <point x="773.8181818181818" y="1778.7878787878788" type="curve" smooth="yes"/>
      <point x="679.2121212121212" y="1778.7878787878788"/>
      <point x="598.1212121212121" y="1858.3636363636363"/>
      <point x="483.1515151515151" y="1858.3636363636363" type="curve" smooth="yes"/>
      <point x="411.75757575757575" y="1858.3636363636363"/>
      <point x="360.24242424242425" y="1834.3636363636363"/>
      <point x="320.7878787878788" y="1790.060606060606" type="curve"/>
      <point x="320.7878787878788" y="1657.878787878788" type="line"/>
      <point x="368.24242424242425" y="1706.6666666666667"/>
      <point x="414.54545454545456" y="1731.4545454545455"/>
      <point x="481.57575757575756" y="1731.4545454545455" type="curve" smooth="yes"/>
      <point x="576.1818181818181" y="1731.4545454545455"/>
      <point x="657.2727272727273" y="1652.6666666666667"/>
    </contour>
  </outline>
</glyph>
<glyph name="Odieresis" format="2">
  <advance width="1255.3939393939395"/>
  <unicode hex="00D6"/>
  <anchor x="627.6969696969697" y="1520.0" name="_top"/>
  <anchor x="627.6969696969697" y="0.0" name="bottom"/>
  <anchor x="627.6969696969697" y="740.0" name="center"/>
  <anchor x="788.1818181818181" y="0.0" name="ogonek"/>
  <anchor x="627.6969696969697" y="1520.0" name="top"/>
  <anchor x="39.57575757575758" y="1480.0" name="topleft"/>
  <anchor x="785.030303030303" y="1480.0" name="topright"/>
  <outline>
    <contour>
      <point x="627.6969696969697" y="-18.78787878787879" type="curve" smooth="yes"/>
      <point x="956.7878787878788" y="-18.78787878787879"/>
      <point x="1174.7272727272727" y="190.66666666666666"/>
      <point x="1174.7272727272727" y="740.0" type="curve" smooth="yes"/>
      <point x="1174.7272727272727" y="1289.3333333333333"/>
      <point x="956.7878787878788" y="1498.7878787878788"/>
      <point x="627.6969696969697" y="1498.7878787878788" type="curve" smooth="yes"/>
      <point x="298.6060606060606" y="1498.7878787878788"/>
      <point x="80.66666666666667" y="1289.3333333333333"/>
      <point x="80.66666666666667" y="740.0" type="curve" smooth="yes"/>
      <point x="80.66666666666667" y="190.66666666666666"/>
      <point x="298.6060606060606" y="-18.78787878787879"/>
    </contour>
    <contour>
      <point x="627.6969696969697" y="148.84848484848484" type="curve" smooth="yes"/>
      <point x="416.72727272727275" y="148.84848484848484"/>
      <point x="283.45454545454544" y="287.93939393939394"/>
      <point x="283.45454545454544" y="745.5757575757576" type="curve" smooth="yes"/>
      <point x="283.45454545454544" y="1192.060606060606"/>
      <point x="416.72727272727275" y="1331.1515151515152"/>
      <point x="627.6969696969697" y="1331.1515151515152" type="curve" smooth="yes"/>
      <point x="838.6666666666666" y="1331.1515151515152"/>
      <point x="971.939393939394" y="1192.060606060606"/>
      <point x="971.939393939394" y="734.4242424242424" type="curve" smooth="yes"/>
      <point x="971.939393939394" y="287.93939393939394"/>
      <point x="838.6666666666666" y="148.84848484848484"/>
    </contour>
    <contour>
      <point x="835.2727272727273" y="1642.7272727272727" type="curve" smooth="yes"/>
      <point x="909.0909090909091" y="1642.7272727272727"/>
      <point x="954.7878787878788" y="1682.4848484848485"/>
      <point x="954.7878787878788" y="1751.2121212121212" type="curve" smooth="yes"/>
      <point x="954.7878787878788" y="1819.939393939394"/>
      <point x="909.0909090909091" y="1860.909090909091"/>
      <point x="835.2727272727273" y="1860.909090909091" type="curve" smooth="yes"/>
      <point x="761.4545454545455" y="1860.909090909091"/>
      <point x="715.7575757575758" y="1819.939393939394"/>
      <point x="715.7575757575758" y="1751.2121212121212" type="curve" smooth="yes"/>
      <point x="715.7575757575758" y="1682.4848484848485"/>
      <point x="761.4545454545455" y="1642.7272727272727"/>
    </contour>
    <contour>
      <point x="420.1212121212121" y="1642.7272727272727" type="curve" smooth="yes"/>
      <point x="493.93939393939394" y="1642.7272727272727"/>
      <point x="539.6363636363636" y="1682.4848484848485"/>
      <point x="539.6363636363636" y="1751.2121212121212" type="curve" smooth="yes"/>
      <point x="539.6363636363636" y="1819.939393939394"/>
      <point x="493.93939393939394" y="1860.909090909091"/>
      <point x="420.1212121212121" y="1860.909090909091" type="curve" smooth="yes"/>
      <point x="346.3030303030303" y="1860.909090909091"/>
      <point x="300.6060606060606" y="1819.939393939394"/>
      <point x="300.6060606060606" y="1751.2121212121212" type="curve" smooth="yes"/>
      <point x="300.6060606060606" y="1682.4848484848485"/>
      <point x="346.3030303030303" y="1642.7272727272727"/>
    </contour>
  </outline>
</glyph>
<glyph name="multiply" format="2">
  <advance width="971.6363636363636"/>
  <unicode hex="00D7"/>
  <outline>
    <contour>
      <point x="206.96969696969697" y="370.969696969697" type="line"/>
      <point x="485.8181818181818" y="649.8181818181819" type="line"/>
      <point x="764.6666666666666" y="370.969696969697" type="line"/>
      <point x="874.8484848484849" y="481.1515151515151" type="line"/>
      <point x="596.0" y="760.0" type="line"/>
      <point x="874.8484848484849" y="1038.8484848484848" type="line"/>
      <point x="764.6666666666666" y="1149.030303030303" type="line"/>
      <point x="485.8181818181818" y="870.1818181818181" type="line"/>
      <point x="206.96969696969697" y="1149.030303030303" type="line"/>
      <point x="96.78787878787878" y="1038.8484848484848" type="line"/>
      <point x="375.6363636363636" y="760.0" type="line"/>
      <point x="96.78787878787878" y="481.1515151515151" type="line"/>
    </contour>
  </outline>
</glyph>
<glyph name="Ugrave" format="2">
  <advance width="1253.1515151515152"/>
  <unicode hex="00D9"/>
  <anchor x="629.1515151515151" y="1520.0" name="_top"/>
  <anchor x="629.1515151515151" y="0.0" name="bottom"/>
  <anchor x="799.939393939394" y="0.0" name="ogonek"/>
  <anchor x="629.1515151515151" y="1520.0" name="top"/>
  <anchor x="961.8181818181819" y="1480.0" name="topright"/>
  <outline>
    <contour>
      <point x="629.1515151515151" y="-18.78787878787879" type="curve" smooth="yes"/>
      <point x="971.8787878787879" y="-18.78787878787879"/>
      <point x="1126.3030303030303" y="150.72727272727272"/>
      <point x="1126.3030303030303" y="536.1212121212121" type="curve" smooth="yes"/>
      <point x="1126.3030303030303" y="1480.0" type="line"/>
      <point x="935.030303030303" y="1480.0" type="line"/>
      <point x="935.030303030303" y="512.7272727272727" type="line" smooth="yes"/>
      <point x="935.030303030303" y="260.9090909090909"/>
      <point x="841.6363636363636" y="150.42424242424244"/>
      <point x="629.1515151515151" y="150.42424242424244" type="curve" smooth="yes"/>
      <point x="416.66666666666663" y="150.42424242424244"/>
      <point x="322.4848484848485" y="260.9090909090909"/>
      <point x="322.4848484848485" y="512.7272727272727" type="curve" smooth="yes"/>
      <point x="322.4848484848485" y="1480.0" type="line"/>
      <point x="126.84848484848484" y="1480.0" type="line"/>
      <point x="126.84848484848484" y="536.1212121212121" type="line" smooth="yes"/>
      <point x="126.84848484848484" y="150.72727272727272"/>
      <point x="284.8484848484849" y="-18.78787878787879"/>
    </contour>
    <contour>
      <point x="544.4242424242424" y="1604.1818181818182" type="line"/>
      <point x="713.8787878787879" y="1604.1818181818182" type="line"/>
      <point x="572.4848484848485" y="1893.5151515151515" type="line"/>
      <point x="371.27272727272725" y="1893.5151515151515" type="line"/>
    </contour>
  </outline>
</glyph>
<glyph name="Udieresis" format="2">
  <advance width="1253.1515151515152"/>
  <unicode hex="00DC"/>
  <anchor x="629.1515151515151" y="1520.0" name="_top"/>
  <anchor x="629.1515151515151" y="0.0" name="bottom"/>
  <anchor x="799.939393939394" y="0.0" name="ogonek"/>
  <anchor x="629.1515151515151" y="1520.0" name="top"/>
  <anchor x="961.8181818181819" y="1480.0" name="topright"/>
  <outline>
    <contour>
      <point x="629.1515151515151" y="-18.78787878787879" type="curve" smooth="yes"/>
      <point x="971.8787878787879" y="-18.78787878787879"/>
      <point x="1126.3030303030303" y="150.72727272727272"/>
      <point x="1126.3030303030303" y="536.1212121212121" type="curve" smooth="yes"/>
      <point x="1126.3030303030303" y="1480.0" type="line"/>
      <point x="935.030303030303" y="1480.0" type="line"/>
      <point x="935.030303030303" y="512.7272727272727" type="line" smooth="yes"/>
      <point x="935.030303030303" y="260.9090909090909"/>
      <point x="841.6363636363636" y="150.42424242424244"/>
      <point x="629.1515151515151" y="150.42424242424244" type="curve" smooth="yes"/>
      <point x="416.66666666666663" y="150.42424242424244"/>
      <point x="322.4848484848485" y="260.9090909090909"/>
      <point x="322.4848484848485" y="512.7272727272727" type="curve" smooth="yes"/>
      <point x="322.4848484848485" y="1480.0" type="line"/>
      <point x="126.84848484848484" y="1480.0" type="line"/>
      <point x="126.84848484848484" y="536.1212121212121" type="line" smooth="yes"/>
      <point x="126.84848484848484" y="150.72727272727272"/>
      <point x="284.8484848484849" y="-18.78787878787879"/>
    </contour>
    <contour>
      <point x="836.7272727272727" y="1642.7272727272727" type="curve" smooth="yes"/>
      <point x="910.5454545454545" y="1642.7272727272727"/>
      <point x="956.2424242424242" y="1682.4848484848485"/>
      <point x="956.2424242424242" y="1751.2121212121212" type="curve" smooth="yes"/>
      <point x="956.2424242424242" y="1819.939393939394"/>
      <point x="910.5454545454545" y="1860.909090909091"/>
      <point x="836.7272727272727" y="1860.909090909091" type="curve" smooth="yes"/>
      <point x="762.9090909090909" y="1860.909090909091"/>
      <point x="717.2121212121212" y="1819.939393939394"/>
      <point x="717.2121212121212" y="1751.2121212121212" type="curve" smooth="yes"/>
      <point x="717.2121212121212" y="1682.4848484848485"/>
      <point x="762.9090909090909" y="1642.7272727272727"/>
    </contour>
    <contour>
      <point x="421.57575757575756" y="1642.7272727272727" type="curve" smooth="yes"/>
      <point x="495.3939393939394" y="1642.7272727272727"/>
      <point x="541.0909090909091" y="1682.4848484848485"/>
      <point x="541.0909090909091" y="1751.2121212121212" type="curve" smooth="yes"/>
      <point x="541.0909090909091" y="1819.939393939394"/>
      <point x="495.3939393939394" y="1860.909090909091"/>
      <point x="421.57575757575756" y="1860.909090909091" type="curve" smooth="yes"/>
      <point x="347.75757575757575" y="1860.909090909091"/>
      <point x="302.06060606060606" y="1819.939393939394"/>
      <point x="302.06060606060606" y="1751.2121212121212" type="curve" smooth="yes"/>
      <point x="302.06060606060606" y="1682.4848484848485"/>
      <point x="347.75757575757575" y="1642.7272727272727"/>
    </contour>
  </outline>
</glyph>
<glyph name="Yacute" format="2">
  <advance width="1061.1515151515152"/>
  <unicode hex="00DD"/>
  <anchor x="531.7575757575758" y="1520.0" name="_top"/>
  <anchor x="530.969696969697" y="0.0" name="bottom"/>
  <anchor x="531.7575757575758" y="1520.0" name="top"/>
  <anchor x="-10.848484848484848" y="1480.0" name="topleft"/>
  <outline>
    <contour>
      <point x="433.1515151515151" y="0.0" type="line"/>
      <point x="628.7878787878788" y="0.0" type="line"/>
      <point x="628.7878787878788" y="732.4242424242424" type="line"/>
      <point x="587.5757575757576" y="576.3636363636364" type="line"/>
      <point x="1095.6363636363635" y="1480.0" type="line"/>
      <point x="901.4545454545455" y="1480.0" type="line"/>
      <point x="507.5151515151515" y="781.5151515151515" type="line"/>
      <point x="563.8787878787879" y="781.5151515151515" type="line"/>
      <point x="167.09090909090907" y="1480.0" type="line"/>
      <point x="-41.696969696969695" y="1480.0" type="line"/>
      <point x="474.3636363636364" y="576.3636363636364" type="line"/>
      <point x="433.1515151515151" y="734.7878787878788" type="line"/>
    </contour>
    <contour>
      <point x="447.030303030303" y="1604.1818181818182" type="line"/>
      <point x="616.4848484848485" y="1604.1818181818182" type="line"/>
      <point x="789.6363636363636" y="1893.5151515151515" type="line"/>
      <point x="588.4242424242424" y="1893.5151515151515" type="line"/>
    </contour>
  </outline>
</glyph>
<glyph name="Thorn" format="2">
  <advance width="1128.6060606060605"/>
  <unicode hex="00DE"/>
  <outline>
    <contour>
      <point x="134.06060606060606" y="0.0" type="line"/>
      <point x="329.6969696969697" y="0.0" type="line"/>
      <point x="329.6969696969697" y="252.42424242424244" type="line"/>
      <point x="378.24242424242425" y="248.78787878787878"/>
      <point x="421.6363636363636" y="246.78787878787878"/>
      <point x="474.969696969697" y="246.78787878787878" type="curve" smooth="yes"/>
      <point x="856.1818181818181" y="246.78787878787878"/>
      <point x="1044.7272727272727" y="421.8787878787879"/>
      <point x="1044.7272727272727" y="758.7878787878788" type="curve" smooth="yes"/>
      <point x="1044.7272727272727" y="1113.6969696969697"/>
      <point x="855.3939393939394" y="1274.0"/>
      <point x="483.09090909090907" y="1274.0" type="curve" smooth="yes"/>
      <point x="427.09090909090907" y="1274.0"/>
      <point x="367.5151515151515" y="1268.3636363636363"/>
      <point x="329.6969696969697" y="1263.5151515151515" type="curve"/>
      <point x="329.6969696969697" y="1480.0" type="line"/>
      <point x="134.06060606060606" y="1480.0" type="line"/>
    </contour>
    <contour>
      <point x="478.6060606060606" y="410.4848484848485" type="curve" smooth="yes"/>
      <point x="425.27272727272725" y="410.4848484848485"/>
      <point x="377.8787878787879" y="412.4848484848485"/>
      <point x="329.6969696969697" y="418.9090909090909" type="curve"/>
      <point x="329.6969696969697" y="1097.4545454545455" type="line"/>
      <point x="382.3636363636364" y="1105.878787878788"/>
      <point x="434.6666666666667" y="1110.3030303030303"/>
      <point x="496.4848484848485" y="1110.3030303030303" type="curve" smooth="yes"/>
      <point x="738.1818181818181" y="1110.3030303030303"/>
      <point x="851.3939393939394" y="1004.3636363636364"/>
      <point x="851.3939393939394" y="754.7878787878788" type="curve" smooth="yes"/>
      <point x="851.3939393939394" y="516.1212121212121"/>
      <point x="732.1212121212121" y="410.4848484848485"/>
    </contour>
  </outline>
</glyph>
<glyph name="germandbls" format="2">
  <advance width="1247.7575757575758"/>
  <unicode hex="00DF"/>
  <outline>
    <contour>
      <point x="810.7272727272727" y="-19.575757575757574" type="curve" smooth="yes"/>
      <point x="1055.8181818181818" y="-19.575757575757574"/>
      <point x="1201.878787878788" y="103.03030303030303"/>
      <point x="1201.878787878788" y="306.3636363636364" type="curve" smooth="yes"/>
      <point x="1201.878787878788" y="466.8484848484849"/>
      <point x="1132.121212121212" y="561.6969696969697"/>
      <point x="953.5151515151515" y="609.3939393939394" type="curve" smooth="yes"/>
      <point x="834.7272727272727" y="640.1212121212121" type="line" smooth="yes"/>
      <point x="749.3939393939394" y="663.8787878787879"/>
      <point x="709.1515151515151" y="706.6060606060606"/>
      <point x="709.1515151515151" y="786.3636363636364" type="curve" smooth="yes"/>
      <point x="709.1515151515151" y="872.9090909090909"/>
      <point x="773.0909090909091" y="945.6969696969697"/>
      <point x="942.1212121212121" y="945.6969696969697" type="curve" smooth="yes"/>
      <point x="993.8181818181818" y="945.6969696969697"/>
      <point x="1030.909090909091" y="941.2727272727273"/>
      <point x="1071.3333333333333" y="932.8484848484849" type="curve"/>
      <point x="1086.4242424242425" y="991.6969696969697"/>
      <point x="1102.0" y="1082.3636363636363"/>
      <point x="1102.0" y="1170.6060606060605" type="curve" smooth="yes"/>
      <point x="1102.0" y="1507.3333333333333"/>
      <point x="916.7878787878788" y="1636.0"/>
      <point x="668.9090909090909" y="1636.0" type="curve" smooth="yes"/>
      <point x="368.6666666666667" y="1636.0"/>
      <point x="184.36363636363637" y="1458.1818181818182"/>
      <point x="184.36363636363637" y="1116.8484848484848" type="curve" smooth="yes"/>
      <point x="184.36363636363637" y="0.0" type="line"/>
      <point x="377.6363636363636" y="0.0" type="line"/>
      <point x="377.6363636363636" y="1112.4242424242425" type="line" smooth="yes"/>
      <point x="377.6363636363636" y="1383.6969696969697"/>
      <point x="486.72727272727275" y="1487.2727272727273"/>
      <point x="680.3636363636364" y="1487.2727272727273" type="curve" smooth="yes"/>
      <point x="835.8181818181818" y="1487.2727272727273"/>
      <point x="955.2727272727273" y="1409.5151515151515"/>
      <point x="955.2727272727273" y="1170.969696969697" type="curve" smooth="yes"/>
      <point x="955.2727272727273" y="1110.6666666666667"/>
      <point x="947.6969696969697" y="1056.3636363636363"/>
      <point x="936.5454545454545" y="1003.2727272727273" type="curve"/>
      <point x="1046.4848484848485" y="1090.3030303030303" type="line"/>
      <point x="1010.4848484848485" y="1096.7272727272727"/>
      <point x="956.3030303030303" y="1098.7272727272727"/>
      <point x="926.3636363636364" y="1098.7272727272727" type="curve" smooth="yes"/>
      <point x="666.6060606060606" y="1098.7272727272727"/>
      <point x="529.6363636363636" y="971.5757575757576"/>
      <point x="529.6363636363636" y="784.7272727272727" type="curve" smooth="yes"/>
      <point x="529.6363636363636" y="626.2424242424242"/>
      <point x="604.6060606060606" y="529.8787878787879"/>
      <point x="775.1515151515151" y="485.3939393939394" type="curve" smooth="yes"/>
      <point x="893.939393939394" y="454.6666666666667" type="line" smooth="yes"/>
      <point x="978.060606060606" y="430.90909090909093"/>
      <point x="1022.3636363636364" y="391.030303030303"/>
      <point x="1022.3636363636364" y="300.7878787878788" type="curve" smooth="yes"/>
      <point x="1022.3636363636364" y="198.12121212121212"/>
      <point x="952.7272727272727" y="139.39393939393938"/>
      <point x="806.7272727272727" y="139.39393939393938" type="curve" smooth="yes"/>
      <point x="724.9090909090909" y="139.39393939393938"/>
      <point x="642.7272727272727" y="150.96969696969697"/>
      <point x="555.5151515151515" y="177.39393939393938" type="curve"/>
      <point x="555.5151515151515" y="17.21212121212121" type="line"/>
      <point x="635.7575757575758" y="-7.575757575757576"/>
      <point x="722.0" y="-19.575757575757574"/>
    </contour>
    <contour>
      <point x="8.0" y="929.6969696969697" type="line"/>
      <point x="273.3333333333333" y="929.6969696969697" type="line"/>
      <point x="273.3333333333333" y="1087.878787878788" type="line"/>
      <point x="8.0" y="1087.878787878788" type="line"/>
    </contour>
  </outline>
</glyph>
<glyph name="ae" format="2">
  <advance width="1435.8181818181818"/>
  <unicode hex="00E6"/>
  <anchor x="710.7878787878788" y="0.0" name="bottom"/>
  <anchor x="710.7878787878788" y="1200.0" name="top"/>
  <outline>
    <contour>
      <point x="1075.2121212121212" y="-19.575757575757574" type="curve" smooth="yes"/>
      <point x="1154.6060606060605" y="-19.575757575757574"/>
      <point x="1232.909090909091" y="-8.787878787878787"/>
      <point x="1327.5757575757575" y="18.848484848484848" type="curve"/>
      <point x="1327.5757575757575" y="179.8181818181818" type="line"/>
      <point x="1237.5151515151515" y="153.75757575757575"/>
      <point x="1163.2121212121212" y="140.96969696969697"/>
      <point x="1095.7575757575758" y="140.96969696969697" type="curve" smooth="yes"/>
      <point x="891.5151515151515" y="140.96969696969697"/>
      <point x="803.0909090909091" y="228.60606060606062"/>
      <point x="803.0909090909091" y="509.57575757575756" type="curve" smooth="yes"/>
      <point x="803.0909090909091" y="589.030303030303" type="line" smooth="yes"/>
      <point x="803.0909090909091" y="889.3939393939394"/>
      <point x="883.6363636363636" y="968.1818181818182"/>
      <point x="1001.3939393939394" y="968.1818181818182" type="curve" smooth="yes"/>
      <point x="1118.3636363636363" y="968.1818181818182"/>
      <point x="1193.2727272727273" y="893.030303030303"/>
      <point x="1193.2727272727273" y="581.7575757575758" type="curve"/>
      <point x="1224.2424242424242" y="609.8787878787879" type="line"/>
      <point x="775.8787878787879" y="609.8787878787879" type="line"/>
      <point x="775.8787878787879" y="480.06060606060606" type="line"/>
      <point x="1377.939393939394" y="480.06060606060606" type="line"/>
      <point x="1377.939393939394" y="541.5757575757576" type="line" smooth="yes"/>
      <point x="1377.939393939394" y="947.030303030303"/>
      <point x="1233.3333333333333" y="1105.878787878788"/>
      <point x="1010.060606060606" y="1105.878787878788" type="curve" smooth="yes"/>
      <point x="784.9090909090909" y="1105.878787878788"/>
      <point x="650.4848484848485" y="937.1515151515151"/>
      <point x="650.4848484848485" y="567.3333333333334" type="curve"/>
      <point x="617.6969696969697" y="546.3030303030303" type="line"/>
      <point x="617.6969696969697" y="135.45454545454544"/>
      <point x="761.6363636363636" y="-19.575757575757574"/>
    </contour>
    <contour>
      <point x="374.3030303030303" y="-18.363636363636363" type="curve" smooth="yes"/>
      <point x="503.93939393939394" y="-18.363636363636363"/>
      <point x="624.8484848484849" y="28.545454545454547"/>
      <point x="714.4848484848485" y="192.84848484848484" type="curve"/>
      <point x="656.0" y="301.75757575757575" type="line"/>
      <point x="595.8181818181819" y="172.96969696969697"/>
      <point x="508.1212121212121" y="133.5151515151515"/>
      <point x="420.4848484848485" y="133.5151515151515" type="curve" smooth="yes"/>
      <point x="316.78787878787875" y="133.5151515151515"/>
      <point x="253.6969696969697" y="187.75757575757575"/>
      <point x="253.6969696969697" y="299.93939393939394" type="curve" smooth="yes"/>
      <point x="253.6969696969697" y="409.2121212121212"/>
      <point x="312.72727272727275" y="485.57575757575756"/>
      <point x="469.93939393939394" y="485.57575757575756" type="curve" smooth="yes"/>
      <point x="664.7272727272727" y="485.57575757575756" type="line"/>
      <point x="664.7272727272727" y="609.8787878787879" type="line"/>
      <point x="452.24242424242425" y="609.8787878787879" type="line" smooth="yes"/>
      <point x="171.33333333333334" y="609.8787878787879"/>
      <point x="61.515151515151516" y="474.3636363636364"/>
      <point x="61.515151515151516" y="281.6969696969697" type="curve" smooth="yes"/>
      <point x="61.515151515151516" y="89.45454545454545"/>
      <point x="184.66666666666666" y="-18.363636363636363"/>
    </contour>
    <contour>
      <point x="617.6969696969697" y="546.3030303030303" type="line"/>
      <point x="771.0909090909091" y="540.2424242424242" type="line"/>
      <point x="771.0909090909091" y="724.5454545454545" type="line" smooth="yes"/>
      <point x="771.0909090909091" y="991.5151515151515"/>
      <point x="657.8787878787879" y="1104.6666666666667"/>
      <point x="407.3333333333333" y="1104.6666666666667" type="curve" smooth="yes"/>
      <point x="320.24242424242425" y="1104.6666666666667"/>
      <point x="219.03030303030303" y="1091.030303030303"/>
      <point x="128.9090909090909" y="1063.030303030303" type="curve"/>
      <point x="128.9090909090909" y="902.060606060606" type="line"/>
      <point x="216.54545454545456" y="930.9090909090909"/>
      <point x="310.1212121212121" y="944.1212121212121"/>
      <point x="380.90909090909093" y="944.1212121212121" type="curve" smooth="yes"/>
      <point x="537.8787878787879" y="944.1212121212121"/>
      <point x="617.6969696969697" y="894.0"/>
      <point x="617.6969696969697" y="721.030303030303" type="curve" smooth="yes"/>
    </contour>
  </outline>
</glyph>
